<svg id="Bentley_Motors" data-name="Bentley Motors" xmlns="http://www.w3.org/2000/svg" width="167.183" height="83.327" viewBox="0 0 167.183 83.327">
  <g id="Layer_1" transform="translate(0 0)">
    <g id="Groupe_2230" data-name="Groupe 2230">
      <path id="Tracé_1819" data-name="Tracé 1819" d="M364.3,1017.435c1.449.091,2.107.821,2.107,1.9a1.734,1.734,0,0,1-1.874,1.9c-1.358.071-4.529.081-5.947,0-.051-1.256-.051-2.523,0-3.809,1.6-.051,4.366-.081,5.714,0m.253,6.717c2,.061,3,.9,3,2.209s-.881,2.077-2.918,2.178c-1.874.091-4,.091-6.028,0-.071-1.489-.071-2.857,0-4.387,1.945-.051,4.184-.051,5.947,0m-9.239,7.213q.167-8.237,0-16.666c2.827.071,6.068.071,9.037,0,3.414,0,5.187,2.077,5.187,4.164s-.729,2.958-1.844,3.6a4.2,4.2,0,0,1,3.019,4.2c0,3.181-2.32,4.711-5.207,4.711H355.3Z" transform="translate(-339.475 -948.048)" fill="#1e1e21" fill-rule="evenodd"/>
      <path id="Tracé_1820" data-name="Tracé 1820" d="M1157.158,1028.458c-.041.952-.041,1.925,0,2.908q-6.884-.122-13.758,0,.137-8.328,0-16.666c1.064.041,2.117.041,3.171,0q-.137,6.884,0,13.758,5.288.107,10.577,0" transform="translate(-1047.733 -948.048)" fill="#1e1e21" fill-rule="evenodd"/>
      <path id="Tracé_1821" data-name="Tracé 1821" d="M750.7,1014.6q4.68,5.577,9.685,11.164.122-5.577,0-11.154c.932.041,1.884.041,2.847,0q-.122,8.236,0,16.666a24.053,24.053,0,0,0-2.421,0q-4.878-5.835-10.172-11.813-.106,5.911,0,11.8c-.912-.04-1.864-.04-2.837,0q.106-8.328,0-16.655c.973.03,1.945.03,2.918-.01" transform="translate(-692.211 -947.958)" fill="#1e1e21" fill-rule="evenodd"/>
      <path id="Tracé_1822" data-name="Tracé 1822" d="M570.943,1017.608q-5.425-.122-10.972,0a29.235,29.235,0,0,0,0,3.769c2.472.071,4.984.071,7.507,0-.04.962-.04,1.935,0,2.908q-3.708-.106-7.507,0a40.932,40.932,0,0,0,0,4.174c3.718.071,7.446.071,11.164,0-.04.973-.04,1.935,0,2.908q-7.173-.122-14.335,0,.137-8.328,0-16.666,7.158.122,14.143,0c-.041.973-.041,1.935,0,2.908" transform="translate(-520.562 -948.048)" fill="#1e1e21" fill-rule="evenodd"/>
      <path id="Tracé_1823" data-name="Tracé 1823" d="M1517.159,1031.355c.081-2.361.081-4.741,0-7.163q-3.677-4.741-7.659-9.493c1.307.041,2.6.041,3.911,0,1.672,2.148,3.455,4.306,5.329,6.453,1.874-2.148,3.647-4.3,5.339-6.453,1.307.041,2.6.041,3.911,0q-3.966,4.741-7.659,9.493c-.081,2.391-.081,4.772,0,7.163q-1.581-.046-3.161,0" transform="translate(-1376.744 -948.048)" fill="#1e1e21" fill-rule="evenodd"/>
      <path id="Tracé_1824" data-name="Tracé 1824" d="M1337.843,1017.608q-5.425-.122-10.972,0a29.191,29.191,0,0,0,0,3.769c2.472.071,4.984.071,7.507,0-.041.962-.041,1.935,0,2.908-2.472-.071-4.984-.071-7.507,0a40.967,40.967,0,0,0,0,4.174c3.718.071,7.446.071,11.164,0-.041.973-.041,1.935,0,2.908q-7.173-.122-14.335,0,.137-8.328,0-16.666,7.158.122,14.143,0c-.041.973-.041,1.935,0,2.908" transform="translate(-1209.767 -948.048)" fill="#1e1e21" fill-rule="evenodd"/>
      <path id="Tracé_1825" data-name="Tracé 1825" d="M955.3,1031.365q.122-6.793,0-13.758-2.963-.137-6,0c.04-.963.04-1.925,0-2.908q7.583.122,15.166,0c-.041.952-.041,1.925,0,2.908-2-.081-4-.081-6,0q-.122,6.884,0,13.758c-1.044-.041-2.1-.041-3.171,0" transform="translate(-873.298 -948.048)" fill="#1e1e21" fill-rule="evenodd"/>
      <path id="Tracé_1826" data-name="Tracé 1826" d="M199.1,361.632s1.236-1.449,1.6-1.854.618-.719.861-.952a.9.9,0,0,1,.74-.274c.223.02,2.654.284,3.313.355s3.526.2,4.67.2h4.792c.638,0,5.41-.274,6.474-.355s7.173-.162,8.642-.182,8.318.243,10,.334,6.332.334,7.882.284,8.854-.355,10.313-.355,6.028.284,7.051.456a19.823,19.823,0,0,1,2.219.547s1.955-.79,2.958-1.114A39.459,39.459,0,0,1,282.5,356.8a38.245,38.245,0,0,1,7.213.689,46.462,46.462,0,0,1,5.359,1.52c.9.355,2.837,1.236,2.837,1.236s1.408-.426,2.594-.689a33.466,33.466,0,0,1,4.073-.618,30.028,30.028,0,0,1,3.171-.142c1.287.02,4.356.334,5.217.426a42.168,42.168,0,0,0,4.974.314c1.408-.01,5.937-.213,7.244-.284s9.169-.425,10.789-.456,8.713.405,10.151.476,4.427.213,5.359.192,4.052-.172,5.623-.334,4.944-.446,5.511-.476a2.438,2.438,0,0,1,1.013.041c.111.071,1.094,1.023,1.5,1.479s.81,1.013.962,1.2.223.253.182.344-.334.6-.436.729a1.011,1.011,0,0,1-.334.263c-.132.071-1.52.77-1.976.962s-1.641.689-1.641.689.344.811.476,1.165a6.252,6.252,0,0,1,.324,1.307,2.717,2.717,0,0,1-.041.77,11.681,11.681,0,0,1-1.033.557,18.247,18.247,0,0,1-1.763.669c-.456.111-1.3.344-1.3.344a9.178,9.178,0,0,1,.041,1.033,6.671,6.671,0,0,1-.122,1.256,3.1,3.1,0,0,1-.527,1.033,2.668,2.668,0,0,1-.8.547,9.291,9.291,0,0,1-1.55.466c-.436.081-1.044.182-1.307.2s-.476.02-.476.02-.02.78-.061,1.114a7.851,7.851,0,0,1-.233,1.216,2.5,2.5,0,0,1-.577.942,1.658,1.658,0,0,1-.851.436,13.39,13.39,0,0,1-1.53.284c-.537.061-1.56.172-1.9.2l-.709.04s-.263.962-.365,1.266a5.867,5.867,0,0,1-1.479,2.209,2.734,2.734,0,0,1-.679.456,8.253,8.253,0,0,1-1.266.081c-.365,0-1.439,0-1.976-.041s-1.114-.091-1.489-.132a4.236,4.236,0,0,1-.557-.091s-.122.74-.152.932a7.208,7.208,0,0,1-.3,1,2.4,2.4,0,0,1-.476.76,1.226,1.226,0,0,1-.74.405,6.355,6.355,0,0,1-1.155.132c-.274.01-2.016.061-2.482.061s-1.358-.01-1.682-.02-.821,0-.821,0-.132.547-.223.861a6.782,6.782,0,0,1-.415,1.043,2.945,2.945,0,0,1-.476.7.994.994,0,0,1-.689.385,9.481,9.481,0,0,1-1.358.071c-.476-.01-1.53-.071-2.016-.142s-1.489-.263-1.773-.344a5.6,5.6,0,0,1-.588-.213,5.091,5.091,0,0,1-.324.8,4.056,4.056,0,0,1-.659.9,1.981,1.981,0,0,1-.993.608,4.611,4.611,0,0,1-1.317-.081c-.4-.061-1.246-.253-1.621-.344s-1.3-.365-1.51-.426a5.02,5.02,0,0,1-.476-.172,6.13,6.13,0,0,1-.426.729,5.234,5.234,0,0,1-.689.74,2.365,2.365,0,0,1-.821.466,4.081,4.081,0,0,1-.912-.061,9.177,9.177,0,0,1-1.307-.334c-.415-.132-.76-.284-.76-.284s-.456,1.307-.567,1.611-.7,1.51-.922,1.915c-.182.344-1.145,1.915-1.439,2.34-.355.527-1.783,2.32-2.127,2.664s-.831.871-1.145,1.2-1.621,1.489-2.32,2.046a35.928,35.928,0,0,1-2.968,2.1c-.993.608-2.786,1.57-3.576,1.925s-1.692.729-1.692.729-.355.679-.547,1.114a12.907,12.907,0,0,1-.618,1.2.356.356,0,0,1-.415.1c-.182-.061-1.033-.385-1.358-.5s-1.033-.415-1.033-.415-.476.7-.648.962-.628.962-.709,1.044-.263.051-.365.01-1.033-.547-1.226-.659-.993-.567-.993-.567-.456.547-.689.871c-.192.263-.851,1.013-.9,1.074s-.152.051-.294,0a7.83,7.83,0,0,1-.729-.517c-.314-.223-.831-.638-1-.75s-.324-.253-.324-.253-.6.588-.81.79-.74.719-.81.79-.2.193-.2.193a.253.253,0,0,1-.253.01,10.587,10.587,0,0,1-1.013-.892c-.213-.2-.831-.821-.831-.821s-.75.547-1,.729-.922.7-1.033.76a.307.307,0,0,1-.385-.091c-.091-.132-.81-.952-.942-1.125s-.588-.7-.588-.7-.881.476-1.236.659-.892.537-.993.567-.314.04-.385-.081-.537-.78-.719-1.043c-.2-.294-.618-.942-.618-.942s-.81.294-1.094.415-1.145.456-1.3.486-.385,0-.446-.122c-.081-.152-.669-1.277-.79-1.55s-.3-.679-.3-.679-.962-.375-1.58-.669c-.679-.314-2.128-1.023-2.735-1.358s-1.621-.942-2.229-1.358-2-1.439-2.553-1.915-2.4-2.32-2.847-2.816-1.145-1.347-1.743-2.158a17.475,17.475,0,0,1-1.439-2.35,22.777,22.777,0,0,1-1.114-2.381c-.385-.942-.7-1.813-.8-2.128a3.668,3.668,0,0,1-.122-.456s-1.084.355-1.844.537a9.275,9.275,0,0,1-2.391.385c-.77-.051-.912-.172-1.1-.324a3.978,3.978,0,0,1-.689-.8,7.279,7.279,0,0,1-.507-.851l-1.651.405c-.456.111-1.56.324-2.219.405a10.463,10.463,0,0,1-1.8.122,1.867,1.867,0,0,1-.993-.486,3.3,3.3,0,0,1-.648-.75,9.567,9.567,0,0,1-.557-1.033,2.587,2.587,0,0,1-.122-.385s-1.368.02-1.722.02-2.239-.01-2.624-.02a16.66,16.66,0,0,1-1.824-.162,1.439,1.439,0,0,1-1.074-.679,3.947,3.947,0,0,1-.659-1.185c-.152-.415-.274-.881-.274-.881s-1.206-.01-1.844-.081-1.976-.223-2.7-.344-1.834-.314-2.128-.415-.466-.355-.729-.638a8.128,8.128,0,0,1-.76-1.023c-.243-.355-.729-1.084-.77-1.2a2.107,2.107,0,0,0-.122-.223s-1.236-.122-1.783-.192-1.347-.2-1.712-.274a13.22,13.22,0,0,1-1.55-.355,1.106,1.106,0,0,1-.588-.567,11.569,11.569,0,0,1-.476-1.783c-.162-.679-.274-1.226-.274-1.226s-1-.263-1.8-.476-1.023-.284-1.57-.456a6.052,6.052,0,0,1-1.378-.577c-.314-.2-.3-.588-.334-.8s-.122-1.125-.142-1.378a7.991,7.991,0,0,1-.01-.831s-1.986-.922-2.5-1.145-1.722-.81-1.976-.932-.213-.385-.172-.588.2-1.013.284-1.408.213-1.033.233-1.114a1.565,1.565,0,0,0,.03-.162s-1.915-.962-2.391-1.216-1.824-.932-2-1.033-.253-.324-.334-.618-.122-.466-.122-.466" transform="translate(-199.1 -356.8)" fill="#1e1e21" fill-rule="evenodd"/>
      <path id="Tracé_1827" data-name="Tracé 1827" d="M267.67,392.67c.193-2.2,2.958-4.66,2.553-6.9-.314-1.773-2.5-3.272-4.7-3.617-1.266-.2-5.42-.507-6.332-.537-1.114-.04-4.133-.091-5.076-.111s-3.434-.02-4.164-.051a18.568,18.568,0,0,1-2.837-.243,24.033,24.033,0,0,1-3.212-.81c-1.175-.355-2.117-.638-3.049-.841a26.231,26.231,0,0,0-2.918-.466c-.81-.071-2.4-.192-3.607-.213s-4.164,0-5.126.01-3.9.122-4.681.122-1.611-.01-1.976.01-.284.2-.456.223-1.074,0-1.58,0-.892-.02-1.074-.041-.436-.01-.436-.01a.187.187,0,0,0,.142.213,7.486,7.486,0,0,0,.78.1c.152.01,1.368.091,1.793.122s1.165.02,1.631.061,1.3.041,1.844.051,2.766,0,3.576.02,2.34.03,3.08.051,2.523.091,3.921.263a31.555,31.555,0,0,1,3.931.669c1.337.314,2.928.821,3.708,1.054s1.844.527,2.4.638a5.228,5.228,0,0,1,1.206.274.311.311,0,0,1,.061.426c-.081.182-.152.233-.213.405s-.122.294-.122.294h-.5a.444.444,0,0,0,.111-.2c.01-.111-.284-.284-.6-.344s-1.722-.193-2.1-.243a24.479,24.479,0,0,0-2.543-.172c-.76.01-3.738-.02-4.5,0s-3.546-.03-4.255-.01-3.151,0-3.819-.01-2.219-.01-2.837-.01-2.715,0-3.455-.01-3.262-.071-3.748-.061-1.874-.04-2.563-.051-3.06-.081-3.708-.081a9.55,9.55,0,0,1-1.7-.122c-.253-.071-1.611-.78-2.148-1.043s-1.58-.811-1.874-.952-.557-.334-.638-.375-.466.334-.567.476-.3,0-.3,0,1.307-1.449,1.57-1.763.588-.729.729-.77a3.988,3.988,0,0,1,1.064-.01c.344.041,2.543.223,2.979.263s2.3.091,2.8.122,2.867.041,3.657.061,3.252.081,3.992.051,2.786-.223,3.414-.263,2.624-.182,3.546-.2,2.837-.01,3.445-.051,3.009-.061,3.85-.061,3.181.1,3.971.122,4.214.2,5.106.253,5.319.2,6.3.223,2.431.071,3.2.02,4.488-.213,5.623-.253,4.093-.081,5.3-.051,4.093.324,5.076.446,1.935.365,2.219.375a1.736,1.736,0,0,1,.871.182c.152.142.3.466.6.638s.709.253.851.436.152.588.243.75a4.087,4.087,0,0,1,.476,1.084,2.566,2.566,0,0,1-.233,1.418,8.3,8.3,0,0,1-1.074,1.347c-.436.456-1.1.942-1.692,1.439a14.082,14.082,0,0,0-2.087,1.976,4.133,4.133,0,0,0-.942,1.884c-.1.7-.051,1.125-.081,1.236a1.711,1.711,0,0,1-.314.6c-.162.182-.892,1.023-1.155,1.368s-.7.993-.81,1.155a3.316,3.316,0,0,0-.2.344l-.162-.284a4.509,4.509,0,0,0,.405-.547c.142-.162.071-.669.142-1.53" transform="translate(-204.402 -375.852)" fill="#fff" fill-rule="evenodd"/>
      <path id="Tracé_1828" data-name="Tracé 1828" d="M253.11,437.423l.081-.446s1.216-.01,1.58.01,2.583.091,3.364.091,3.181.071,3.759.051,3.84.051,4.539.051,4.1.01,4.812.02,4.6.03,5.207.03,3.809,0,4.559.01,3.961-.02,4.691-.02,2.583.03,2.989.02a5.26,5.26,0,0,0,.81-.071c.081-.02.344-.132.5-.061s.223.253.294.344a1.411,1.411,0,0,0,.294.263,1.351,1.351,0,0,1,.355.284,1.308,1.308,0,0,0,.274.274c.162.132.2.193.142.263s-.314.4-.415.557-.142.344-.2.4a1.552,1.552,0,0,1-.415.081s.213-.152.182-.294a.865.865,0,0,0-.8-.5,19.136,19.136,0,0,0-2.361.142c-.567.061-4.356.4-5.025.456s-5.917.426-6.808.5-5.045.324-5.846.385-3.911.213-4.873.274-3.191.152-4.042.192-2.523.071-2.837.051a3.325,3.325,0,0,1-.942-.294c-.213-.091-1.56-.7-1.935-.871a4.513,4.513,0,0,1-1.165-.6c-.122-.152-.061-.405-.061-.6a.742.742,0,0,0-.223-.618c-.213-.182-.486-.385-.486-.385" transform="translate(-247.629 -428.853)" fill="#fff" fill-rule="evenodd"/>
      <path id="Tracé_1829" data-name="Tracé 1829" d="M294.31,468.216v-.334a6.827,6.827,0,0,0,.851-.051c.3-.051,1.479-.051,2.259-.081s3.86-.172,4.822-.223c.993-.061,5.369-.3,6.19-.355s6.605-.456,7.416-.527,5.582-.456,6.342-.507,3.252-.324,4.144-.4a5.28,5.28,0,0,0,1.165-.2c.142-.01.253-.091.4.071a3.961,3.961,0,0,0,.618.618c.182.122.74.476.75.648a1.274,1.274,0,0,1-.243.567,1.554,1.554,0,0,0-.081.507l-.567.1a1.206,1.206,0,0,0,.061-.213.522.522,0,0,0-.324-.405,1.917,1.917,0,0,0-1.023-.081c-.4.081-2.178.4-2.908.507s-4.944.821-5.967.993-5.076.79-6.038.922-4.7.618-6.008.75-2.887.284-3.759.334a16.824,16.824,0,0,1-2.421.061c-.638-.071-2.057-.517-2.685-.669a6.5,6.5,0,0,1-1.7-.588,1.022,1.022,0,0,1-.284-.507,1.475,1.475,0,0,0-.507-.669c-.152-.071-.507-.273-.507-.273" transform="translate(-284.655 -454.498)" fill="#fff" fill-rule="evenodd"/>
      <path id="Tracé_1830" data-name="Tracé 1830" d="M346.315,497.09a1.737,1.737,0,0,0,.5,0,5.579,5.579,0,0,1,.8-.162c.3-.01,1.236-.051,1.753-.071s2.016-.162,2.533-.213,3.009-.294,3.819-.405,5.248-.74,5.987-.841,4.458-.669,5.461-.851,4.407-.77,5.278-.942,1.915-.334,2.31-.415.659-.263.871-.2a5.754,5.754,0,0,1,.709.355,9.693,9.693,0,0,0,.922.344.962.962,0,0,1,.466.284,1.17,1.17,0,0,1-.091.577,1.8,1.8,0,0,0-.192.486,2.735,2.735,0,0,0-.051.344l-.537.192s.081-.243,0-.355a.844.844,0,0,0-.537-.314,3.262,3.262,0,0,0-.638.122c-.253.081-3.465,1.043-3.982,1.2l-3.84,1.054c-.476.132-3.5.892-4.356,1.074s-4.022.821-4.812.962-3.759.527-4.529.567a9.707,9.707,0,0,1-1.5.041c-.608-.041-1.753-.182-2.482-.284s-1.51-.263-1.783-.324-.537-.111-.658-.425-.1-.557-.3-.79a2.441,2.441,0,0,0-.618-.527c-.162-.071-.426-.071-.466-.152a.882.882,0,0,1-.051-.334" transform="translate(-331.381 -479.179)" fill="#fff" fill-rule="evenodd"/>
      <path id="Tracé_1831" data-name="Tracé 1831" d="M409.431,525.979s2.168-.223,2.654-.294,3.819-.547,4.62-.719,4.235-.912,4.853-1.054,4.387-1.125,5.136-1.327,3.272-.912,3.951-1.135,2.695-.821,2.918-.922.456-.263.679-.243a9.537,9.537,0,0,1,1.114.294,5.028,5.028,0,0,1,.962.284.4.4,0,0,1,.132.365c-.02.172-.01,1.043,0,1.145s.243.284.243.284l-.567.223c-.122.051-.385.142-.385.142s.061-.253.02-.324a1.389,1.389,0,0,0-.456-.284.908.908,0,0,0-.456.081c-.253.081-.892.375-1.216.517s-2.229.891-2.8,1.114-2.877,1.1-3.627,1.368-4.093,1.418-4.711,1.611-2.827.81-3.343.942a5.805,5.805,0,0,1-1.206.263c-.425.02-2.1-.122-2.786-.213s-2.634-.385-2.9-.466a1.24,1.24,0,0,1-.588-.365,1.663,1.663,0,0,0-.547-.456c-.263-.142-.567-.294-.79-.385s-.314-.122-.456-.172a3.344,3.344,0,0,1-.385-.132.3.3,0,0,1-.1-.162" transform="translate(-388.095 -503.721)" fill="#fff" fill-rule="evenodd"/>
      <path id="Tracé_1832" data-name="Tracé 1832" d="M498.2,551.762a7.062,7.062,0,0,0,.9-.263c.2-.091,1.337-.436,1.692-.537s1.631-.446,2.168-.618,3.039-1.033,3.526-1.206,3.465-1.287,4.052-1.509,3.89-1.581,4.366-1.773a8.553,8.553,0,0,0,1.114-.507,5.186,5.186,0,0,1,.952-.425,4.859,4.859,0,0,1,.973-.132c.223.01.4-.01.486.091a.592.592,0,0,1,.122.426,1.112,1.112,0,0,0,.253.78,2.427,2.427,0,0,0,.861.385,6.8,6.8,0,0,0,.8.142,1.087,1.087,0,0,0,.2,0s-.679.405-.841.486l-.881.436s-.061-.182-.142-.213a1.951,1.951,0,0,0-.669-.01,1.751,1.751,0,0,0-.76.263c-.243.142-2.523,1.358-2.979,1.6s-3.951,2.067-4.427,2.279-2.725,1.317-3.1,1.489a2.63,2.63,0,0,1-.932.344c-.345.041-1.135.051-1.834.061s-2.087-.02-2.513-.051a5.779,5.779,0,0,1-1.378-.162c-.334-.132-.385-.314-.588-.547a2.179,2.179,0,0,0-.77-.527,1.282,1.282,0,0,0-.567-.051c-.051.01-.081-.263-.081-.263" transform="translate(-467.898 -525.746)" fill="#fff" fill-rule="evenodd"/>
      <path id="Tracé_1833" data-name="Tracé 1833" d="M578.51,573.789s2.725-1.368,3.141-1.55,4.488-2.259,5.015-2.553,3.505-1.915,4.144-2.269,1.53-.831,1.682-.932a2.154,2.154,0,0,1,.425-.3,1.933,1.933,0,0,1,.294-.081s.253.334.4.517a1.51,1.51,0,0,0,.821.547,2.517,2.517,0,0,0,.76.03c.223-.02.618-.1.618-.1s-.983.952-1.165,1.094-2.35,1.915-2.776,2.3-2,1.611-2.361,1.895a21.222,21.222,0,0,1-1.753,1.256,8.994,8.994,0,0,1-1.276.476c-.4.1-2.2.486-2.857.618s-2.057.375-2.33.385a1.146,1.146,0,0,1-.9-.243c-.233-.253-.365-.618-.679-.77a1.367,1.367,0,0,0-.74-.223c-.426.061-.466-.091-.466-.091" transform="translate(-540.063 -544.896)" fill="#fff" fill-rule="evenodd"/>
      <path id="Tracé_1834" data-name="Tracé 1834" d="M656.7,587.882s1.479-1.084,1.8-1.347,1.651-1.307,2.016-1.591,1.925-1.56,2.4-1.955,1.9-1.611,2.28-1.945S666.3,580,666.3,580a.819.819,0,0,0,.182.4,2.251,2.251,0,0,0,.618.466,2.706,2.706,0,0,0,1.054.142c.3-.01.608-.051.729-.051a.3.3,0,0,1,.324.263c.01.2.02.344.02.446a.381.381,0,0,0,.051.182l-2.188,2.432c-.425.476-1.672,1.813-2.057,2.219s-1.4,1.489-1.51,1.58-.466.02-.679-.111c-.273-.162-.527-.041-.851.051s-.932.263-1.317.355a13.219,13.219,0,0,1-1.55.294.892.892,0,0,1-.679-.193,3.51,3.51,0,0,0-.679-.618c-.182-.081-.4-.142-.486-.081s-.476.284-.547.122" transform="translate(-610.341 -557.388)" fill="#fff" fill-rule="evenodd"/>
      <path id="Tracé_1835" data-name="Tracé 1835" d="M727.9,606.283s1.429-1.51,1.753-1.844,2.047-2.2,2.421-2.6,1-1.155,1.155-1.347.273-.324.344-.324a5.818,5.818,0,0,0,.8-.081,4.652,4.652,0,0,1,.932-.132c.122.041.122.132.132.223s.02,1.135.04,1.459a7,7,0,0,1-.061,1.327c-.071.263-.861,1.793-1.033,2.219s-.689,1.347-.76,1.52a.708.708,0,0,1-.182.284c-.061.061-.192-.152-.385-.375a.673.673,0,0,0-.811-.2c-.273.071-1.813.476-2.087.537a3.2,3.2,0,0,1-1,.142.716.716,0,0,1-.486-.415.57.57,0,0,0-.436-.334,1.248,1.248,0,0,1-.324-.051" transform="translate(-674.327 -575.312)" fill="#fff" fill-rule="evenodd"/>
      <path id="Tracé_1836" data-name="Tracé 1836" d="M796.6,639.408s.355-.841.436-1,.2-.405.2-.405a6.2,6.2,0,0,0,.182.638,5.79,5.79,0,0,1,.355.659c.051.172.405,1.084.466,1.226a1.05,1.05,0,0,1,.132.507.527.527,0,0,0,.03.355c.051.122.091.233.01.263-.122.051-.365.223-.456.263a.347.347,0,0,1-.405-.152c-.071-.112-.375-.132-.608-.324a.46.46,0,0,1-.2-.507,5.425,5.425,0,0,0,.061-1.054c-.061-.152-.2-.466-.2-.466" transform="translate(-736.067 -609.512)" fill="#fff" fill-rule="evenodd"/>
      <path id="Tracé_1837" data-name="Tracé 1837" d="M725.2,680.42s.446.557.729.547a1.23,1.23,0,0,0,.5-.121.794.794,0,0,1,.486.01.535.535,0,0,1,.253.426,2.477,2.477,0,0,0,.223.841c.152.344.76,1.58,1.125,2.168s1.388,2.057,1.834,2.594,1.9,2.138,2.29,2.462,2.31,1.945,3,2.4a36.9,36.9,0,0,0,3.333,2.026c1,.506,2.239,1.084,2.563,1.206s.537.152.6.243a1,1,0,0,0,.162.193l-.365.608-.324.517-.274-.132s.2-.172.132-.314a.8.8,0,0,0-.385-.405c-.223-.122-1.206-.537-1.631-.74s-2.31-1.226-2.978-1.651-2.31-1.56-3.09-2.188a39.362,39.362,0,0,1-3.009-2.9c-.557-.618-1.722-2.158-2.087-2.7s-1.368-2.381-1.58-2.867a3.25,3.25,0,0,0-.537-1c-.2-.193-.263-.223-.344-.233s-.294-.041-.294-.041-.061-.142-.172-.466c-.081-.253-.152-.5-.152-.5" transform="translate(-671.901 -647.616)" fill="#fff" fill-rule="evenodd"/>
      <path id="Tracé_1838" data-name="Tracé 1838" d="M745.6,674.893a2.606,2.606,0,0,0,.729-.152c.324-.132,1.206-.385,1.56-.476s.77-.273.952-.324a1.084,1.084,0,0,1,.415-.081c.111.02.172.081.284.253a3.657,3.657,0,0,0,.415.638,1.055,1.055,0,0,0,.75.324,3.379,3.379,0,0,0,.942-.193c.274-.122.79-.456.9-.517s.284-.193.344-.132a.805.805,0,0,0,.223.193.563.563,0,0,1,.253.213c.051.081.79,1.175,1.2,1.661s.993,1.135,1.4,1.52,1.58,1.418,2.047,1.753,1.824,1.236,2.431,1.56,1.347.719,1.945.962,1.226.5,1.4.577a1.544,1.544,0,0,1,.344.263c.122.091.193.213.142.334s-.679,1.1-.952,1.611-.77,1.3-.973,1.651-.74,1.226-.891,1.509-.557.942-.588,1.013-.132.061-.162,0,.142-.253.142-.486a1.235,1.235,0,0,0-.274-.709,3.2,3.2,0,0,0-.74-.415c-.213-.091-1.256-.6-1.783-.871s-1.58-.881-2.279-1.337-1.621-1.074-2.219-1.56-1.439-1.216-1.965-1.722a25.333,25.333,0,0,1-1.945-2.188,23.632,23.632,0,0,1-1.631-2.36c-.375-.679-.77-1.52-.9-1.672a1.506,1.506,0,0,0-.6-.456,3.7,3.7,0,0,0-.547-.152c-.122-.01-.334-.01-.355-.1a.291.291,0,0,1,0-.152" transform="translate(-690.234 -641.734)" fill="#fff" fill-rule="evenodd"/>
      <path id="Tracé_1839" data-name="Tracé 1839" d="M624.043,425.82s2.229-.01,2.877,0,2.553.01,2.756.01a4.156,4.156,0,0,1,.567.091l.2.02s.091.213.02.284a2.147,2.147,0,0,0-.213.456c-.061.142-.01.3-.1.324s-.466.071-.466.071.061-.182-.051-.253a1.244,1.244,0,0,0-.608-.152c-.233.01-1.358.122-1.712.152s-1.368.172-1.57.2a1.077,1.077,0,0,1-.577-.061,5.961,5.961,0,0,1-.861-.405.973.973,0,0,0-.284-.182l-.223-.051.112-.284c.04-.091.132-.243.132-.243" transform="translate(-580.774 -418.81)" fill="#fff" fill-rule="evenodd"/>
      <path id="Tracé_1840" data-name="Tracé 1840" d="M632.52,442.182a2.779,2.779,0,0,1,.284-.385,6.985,6.985,0,0,1,.821-.273c.213-.061,1.226-.3,1.682-.405s1.317-.263,1.722-.375a8.765,8.765,0,0,1,.9-.243.971.971,0,0,1,.456.152c.132.091.4.284.527.4s.263.284.223.375a.8.8,0,0,1-.162.263c-.071.091-.051.142-.071.253a1.3,1.3,0,0,0-.03.284s-.355.111-.415.122a1.292,1.292,0,0,0-.152.041s.091-.253.02-.294a1.323,1.323,0,0,0-.6-.263,5.573,5.573,0,0,0-1.266.284c-.253.081-1.185.334-1.55.436a3.269,3.269,0,0,1-.962.243,2.208,2.208,0,0,1-.79-.263c-.253-.122-.3-.172-.4-.213s-.263-.142-.263-.142" transform="translate(-588.592 -432.02)" fill="#fff" fill-rule="evenodd"/>
      <path id="Tracé_1841" data-name="Tracé 1841" d="M642.2,463.573a.461.461,0,0,1,.132-.284,4.533,4.533,0,0,1,.537-.223c.142-.071.588-.213,1.044-.375s1.337-.426,1.7-.537,1.165-.355,1.368-.436a1.88,1.88,0,0,1,.659-.223,3.442,3.442,0,0,1,.8.172c.213.081.436.172.476.324a.742.742,0,0,1-.132.476.84.84,0,0,0-.132.324,1.744,1.744,0,0,0-.02.273.729.729,0,0,1-.284.142l-.253.061a.408.408,0,0,0-.081-.284.737.737,0,0,0-.608-.182c-.2.061-.983.375-1.276.507s-1.145.527-1.429.638a1.379,1.379,0,0,1-.79.182,2.769,2.769,0,0,1-.77-.182c-.223-.111-.527-.263-.628-.3s-.314-.061-.314-.061" transform="translate(-597.31 -450.889)" fill="#fff" fill-rule="evenodd"/>
      <path id="Tracé_1842" data-name="Tracé 1842" d="M660.41,482.981l1.013-.486c.344-.162,1.651-.76,2.057-.952s1.064-.517,1.206-.567a1.719,1.719,0,0,1,.466-.182,3.8,3.8,0,0,1,.76.122c.213.051.517.081.588.213a.793.793,0,0,1,.071.486,1.163,1.163,0,0,0-.1.466c.01.111.051.365.051.365l-.3.162c-.152.081-.355.182-.355.182a.668.668,0,0,0-.182-.294.629.629,0,0,0-.567-.122c-.132.041-.9.486-1.2.669s-1.013.628-1.135.709a.669.669,0,0,1-.588.2,2.361,2.361,0,0,1-.7-.162,4.661,4.661,0,0,1-.638-.415c-.091-.071-.456-.162-.456-.263s.02-.122.02-.122" transform="translate(-613.666 -468.23)" fill="#fff" fill-rule="evenodd"/>
      <path id="Tracé_1843" data-name="Tracé 1843" d="M678.91,503.479s1.023-.679,1.469-.942,1.51-.881,1.925-1.1a6.1,6.1,0,0,1,1.033-.557,8.365,8.365,0,0,1,1.023-.02c.274,0,.466,0,.486.142a1.184,1.184,0,0,1-.041.385c-.01.122,0,.456,0,.456l-2.057,1.621c-.334.263-1.114.962-1.165.983s-.314-.2-.628-.324a2.647,2.647,0,0,0-.628-.162,3.62,3.62,0,0,1-.537-.213,1.367,1.367,0,0,0-.405-.152,1.443,1.443,0,0,0-.446.081l-.041-.162Z" transform="translate(-630.291 -486.256)" fill="#fff" fill-rule="evenodd"/>
      <path id="Tracé_1844" data-name="Tracé 1844" d="M703.5,515.372s.517-.466.871-.77,1.449-1.2,1.743-1.429,1.013-.8,1.114-.881a.558.558,0,0,1,.354-.1c.132,0,.456-.091.6-.091s.4-.01.415.182.122.557.112.7a.783.783,0,0,0,.051.4,1.546,1.546,0,0,0,.091.132,3.852,3.852,0,0,1-.324.344c-.2.192-.821.77-1.094,1.033s-.831.8-1.033,1.013-.527.517-.527.517a1.046,1.046,0,0,0-.263-.466,1.764,1.764,0,0,0-.881-.253c-.263-.01-.6-.263-.729-.294a.409.409,0,0,0-.284.051s-.162.051-.213-.071" transform="translate(-652.399 -496.366)" fill="#fff" fill-rule="evenodd"/>
      <path id="Tracé_1845" data-name="Tracé 1845" d="M729.2,528.4l1.408-1.408c.274-.274,1.2-1.135,1.408-1.347a2.535,2.535,0,0,1,.628-.537c.243-.111.527-.253.659-.2a.673.673,0,0,1,.294.415.858.858,0,0,0,.567.557,2.1,2.1,0,0,0,.689.132c.152-.01.243-.02.243-.02s-.334.344-.517.527-.7.689-1.013.973-1.1,1.084-1.337,1.3-.547.486-.547.486a.562.562,0,0,0-.162-.375.918.918,0,0,0-.77-.162.794.794,0,0,1-.588-.193c-.152-.132-.273-.263-.355-.274a.821.821,0,0,0-.324.112,1.5,1.5,0,0,1-.274.02" transform="translate(-675.496 -507.866)" fill="#fff" fill-rule="evenodd"/>
      <path id="Tracé_1846" data-name="Tracé 1846" d="M756.9,541.894s.77-.729,1.155-1.1,1.115-1.094,1.439-1.418.9-.871.9-.871a.532.532,0,0,0,.4.2c.274.02.537.071.74.081s.547.01.648-.1a.716.716,0,0,1,.253-.142s-.172.243-.365.5-.77,1.064-1.094,1.55-1.043,1.55-1.165,1.753-.4.628-.476.75-.192.263-.192.263a.967.967,0,0,0-.162-.557c-.193-.334-.294-.344-.466-.4s-.223.03-.476-.1-.385-.385-.537-.415-.152-.061-.274,0a.345.345,0,0,1-.324.01" transform="translate(-700.389 -520.092)" fill="#fff" fill-rule="evenodd"/>
      <path id="Tracé_1847" data-name="Tracé 1847" d="M795.6,544.6a2.542,2.542,0,0,0,.193.274c.091.122.223.253.2.344s-.456.952-.547,1.175-.405,1.236-.476,1.54a8.594,8.594,0,0,1-.274.962,4.045,4.045,0,0,0-.2.436l-.041.284a1.123,1.123,0,0,1-.263.142l-.263.071V549.6c0-.1-.142-.274-.233-.436a.708.708,0,0,1-.071-.679c.111-.324.243-.7.354-.962s.2-.547.4-.983a6.837,6.837,0,0,1,.567-1.125c.223-.334.334-.517.425-.638a.536.536,0,0,1,.223-.182" transform="translate(-733.344 -525.574)" fill="#fff" fill-rule="evenodd"/>
      <path id="Tracé_1848" data-name="Tracé 1848" d="M693.6,426.831s.932-.051,1.611-.061a14.65,14.65,0,0,1,1.986.071,9.156,9.156,0,0,0,1.489.091,13.576,13.576,0,0,1,1.408-.02c.689.02,1.925.061,2.756.182a12.341,12.341,0,0,1,2.239.517,6.587,6.587,0,0,1,2.29,1.216,1.866,1.866,0,0,1,.628,1.439,4.67,4.67,0,0,1-.476,1.6c-.193.365-.659,1.165-.74,1.307s-.8.81-1.084,1.135-1.216,1.317-1.58,1.763-.659.79-.78.912a2.564,2.564,0,0,0-.284.344h-.122a.609.609,0,0,0,.111-.4,1.028,1.028,0,0,0-.375-.608c-.162-.1-.213-.122-.334-.091s-.213.091-.294.111-.152.041-.152.041.415-.466.608-.669.719-.679.891-.861a.9.9,0,0,1,.415-.284,1.149,1.149,0,0,0,.577.02,1.2,1.2,0,0,0,.6-.729.79.79,0,0,0-.284-.659,1.025,1.025,0,0,0-.608-.223,1.375,1.375,0,0,0-.557.142.839.839,0,0,1-.233.081s.01-.132.041-.334a.9.9,0,0,0-.192-.567.848.848,0,0,0-.578-.334c-.263-.04-.385.041-.476-.04s-.02-.223-.111-.415a.928.928,0,0,0-.466-.557,2.155,2.155,0,0,0-.588-.152c-.122,0-.122-.071-.122-.223a.9.9,0,0,0-.719-1.074c-.162-.041-.284-.061-.284-.142a3.314,3.314,0,0,0,.1-.476.739.739,0,0,0-.263-.628c-.223-.152-.476-.243-.567-.4a1.284,1.284,0,0,0-.3-.334,2.481,2.481,0,0,0-.4,0c-.142.01-.486.081-.74.122a1.9,1.9,0,0,1-.517.061,2.354,2.354,0,0,0-.6-.142,9.213,9.213,0,0,0-.962.061,5.618,5.618,0,0,1-.881.061,1.742,1.742,0,0,1-.628-.172,1.778,1.778,0,0,1-.375-.192.971.971,0,0,1-.182-.132.742.742,0,0,1,.041-.182,1.2,1.2,0,0,1,.081-.182" transform="translate(-643.413 -419.679)" fill="#fff" fill-rule="evenodd"/>
      <path id="Tracé_1849" data-name="Tracé 1849" d="M700.41,439.721s.669-.284,1.135-.426c.486-.152,1.358-.365,1.753-.456a2.365,2.365,0,0,1,.831-.152,1.229,1.229,0,0,0,.456.041l.213-.02s.091.111.041.152-.071.081-.2.223a1.282,1.282,0,0,1-.4.355c-.152.061-.517.142-.922.253s-1.043.314-1.276.375a1.032,1.032,0,0,1-.638.061,5.6,5.6,0,0,1-.618-.132c-.152-.041-.162,0-.253.041a.124.124,0,0,1-.132,0v-.162a1.1,1.1,0,0,1,.01-.132" transform="translate(-649.614 -430.38)" fill="#fff" fill-rule="evenodd"/>
      <path id="Tracé_1850" data-name="Tracé 1850" d="M711.64,453.944s.638-.344,1.175-.567,1.621-.618,1.844-.679a1.027,1.027,0,0,1,.608-.061c.132.071.243.152.2.263a1.152,1.152,0,0,1-.344.436c-.132.071-.892.486-1.185.608a7.084,7.084,0,0,1-1.1.466,1.971,1.971,0,0,1-.588-.091c-.192-.061-.263-.091-.355-.111a2.689,2.689,0,0,0-.294,0,.314.314,0,0,0,.03-.122,1.407,1.407,0,0,1,.01-.142" transform="translate(-659.679 -442.901)" fill="#fff" fill-rule="evenodd"/>
      <path id="Tracé_1851" data-name="Tracé 1851" d="M723.9,469.666s.719-.415.952-.557,1.013-.507,1.347-.689a2.2,2.2,0,0,1,.881-.324.44.44,0,0,1,.385.193.794.794,0,0,1-.081.456,1.721,1.721,0,0,1-.405.537c-.294.284-.517.415-.689.578a2.078,2.078,0,0,1-.6.405c-.142.02-.365-.111-.486-.132a2.77,2.77,0,0,1-.557-.213.538.538,0,0,0-.334-.091c-.112.01-.415.081-.415.081v-.243Z" transform="translate(-670.733 -456.82)" fill="#fff" fill-rule="evenodd"/>
      <path id="Tracé_1852" data-name="Tracé 1852" d="M742.6,483.156s.425-.4.729-.628.841-.608,1.1-.8a2.24,2.24,0,0,1,.547-.344.258.258,0,0,1,.223.081c.061.061.223.061.273.2s0,.263.051.344.162.061.192.132a.7.7,0,0,1,0,.213s-.6.466-.81.669a7.512,7.512,0,0,1-.638.577c-.081.051-.4-.132-.588-.213a3.663,3.663,0,0,0-.8-.223c-.162-.01-.284-.01-.284-.01" transform="translate(-687.538 -468.76)" fill="#fff" fill-rule="evenodd"/>
      <path id="Tracé_1853" data-name="Tracé 1853" d="M759.01,493.813s.507-.476.76-.7.507-.466.7-.648a7.019,7.019,0,0,1,.6-.466s.182.01.152.122.1.132.193.132.284-.051.344-.02a.191.191,0,0,1,.152.193c0,.132.01.253.061.263s.162-.01.172.041.02.132.02.132-.669.669-.952.932-.729.729-.79.8a1,1,0,0,0-.091.122,1.405,1.405,0,0,0-.334-.476,1.165,1.165,0,0,0-.557-.344,1.865,1.865,0,0,0-.436-.061" transform="translate(-702.277 -478.303)" fill="#fff" fill-rule="evenodd"/>
      <path id="Tracé_1854" data-name="Tracé 1854" d="M796.891,508.247s.4-.486.74-.861l.831-.892a3.27,3.27,0,0,0,.243-.294,6.635,6.635,0,0,0-.274.78,5.8,5.8,0,0,0-.111.892,3.972,3.972,0,0,1-.132.679,2.718,2.718,0,0,0-.051.476s-.162.091-.284.152-.263.152-.263.152a1.236,1.236,0,0,0-.162-.547.812.812,0,0,0-.628-.405Z" transform="translate(-736.247 -491.064)" fill="#fff" fill-rule="evenodd"/>
      <path id="Tracé_1855" data-name="Tracé 1855" d="M883.5,364.106s.679-.253,1.1-.426,2.614-.932,3.293-1.1c.821-.213,2.735-.679,3.89-.851a40.959,40.959,0,0,1,5.714-.425,36.584,36.584,0,0,1,4.61.263c.932.111,2.8.446,3.566.628s2.036.517,2.745.75,1.834.618,2.259.81a8.062,8.062,0,0,1,.77.324c.071.071.081.182.3.284a5.264,5.264,0,0,0,.557.223,1.106,1.106,0,0,1-.294.182c-.182.071-.405.192-.588.263s-.355.172-.355.172,0-.253-.091-.334a7.1,7.1,0,0,0-1.216-.588c-.527-.2-1.347-.486-2.138-.719s-2.188-.628-3.131-.8-1.955-.344-2.867-.436-3.019-.263-4.123-.253-3.181.132-4.225.263-2.756.4-3.748.638-2.34.588-2.857.76a13.092,13.092,0,0,1-1.357.456c-.2.01-.628-.051-.77-.051a1.858,1.858,0,0,0-.365.02c-.081.02-.314.142-.405.1s-.284-.152-.284-.152" transform="translate(-814.163 -360.844)" fill="#fff" fill-rule="evenodd"/>
      <path id="Tracé_1856" data-name="Tracé 1856" d="M894.075,392.855s-.253-.263-.385-.405a11.513,11.513,0,0,1-.344-1.155,6.921,6.921,0,0,0-1.044-1.449,11.226,11.226,0,0,0-2.209-1.783,19.471,19.471,0,0,0-3.678-1.9,24.1,24.1,0,0,0-3.759-1.206,30.958,30.958,0,0,0-5.785-.77,33.115,33.115,0,0,0-5.39.274,25.393,25.393,0,0,0-4.762,1.064,17.8,17.8,0,0,0-2.6,1.013c-.527.253-1.783.881-2.249,1.2s-1.206.821-1.651,1.1-.537.517-.81.456a.717.717,0,0,1-.507-.456s.334-.405.659-.729,1.084-.962,1.56-1.358,1.408-1.185,1.56-1.337.567-.638.567-.638.132.284.375.213a1.776,1.776,0,0,0,.841-.709,3.3,3.3,0,0,0,.527-1.884c-.091-.689-.193-1.2-.375-1.317a2.01,2.01,0,0,0-.75-.375c-.243-.03-.324.01-.436-.041a1.372,1.372,0,0,1-.284-.192s.567-.213.821-.324a22.089,22.089,0,0,1,2.117-.719c.75-.2,1.55-.405,2.5-.6s2.361-.415,3.475-.527,2.573-.213,3.434-.2,2.847.122,3.657.213,2.381.3,3.323.517,2.7.638,3.475.912a18.892,18.892,0,0,1,1.793.648,1.007,1.007,0,0,0,.344.263,2.245,2.245,0,0,1,.284.152,5.771,5.771,0,0,0-.638.871c-.76,1.3.152,2.948,1.358,3.84,1.57,1.165,4.437,2.948,4.934,5.6a11.816,11.816,0,0,1,.091,1.732" transform="translate(-792.056 -375.936)" fill="#fff" fill-rule="evenodd"/>
      <path id="Tracé_1857" data-name="Tracé 1857" d="M1154.141,392.119a5.757,5.757,0,0,0-1.074-2.462c-.425-.608-.689-1.246-1.165-2.046a10.08,10.08,0,0,0-2.654-2.2,3.506,3.506,0,0,1-1.5-2.279c0-.81-.193-.962-.648-.7a1.758,1.758,0,0,1,.486-.578,7.426,7.426,0,0,1,1.986-1.145c.75-.274,2.553-.76,3.282-.932s2.827-.507,3.677-.588,2.36-.142,3.07-.142,2.259.071,3.374.193c1.165.122,2.766.355,3.809.415s2.847.1,3.637.081,2.229-.081,3.009-.091,3.657-.111,4.609-.162,3.536-.213,4.5-.263,3.921-.111,4.761-.111,4.5.162,5.43.213,3.211.172,4.063.223,2.057.091,2.766.132,2.786-.02,3.242-.02,2.036-.01,2.908-.051,3.181-.213,4.022-.284,3.009-.294,3.7-.344a11.777,11.777,0,0,1,1.682-.1,1.625,1.625,0,0,1,.74.385c.091.1.5.547.8.871a4.168,4.168,0,0,1,.638.8c.051.122.243.375.2.476s-.071.274-.182.334-.588.274-.588.274a.373.373,0,0,0-.193-.294,1.056,1.056,0,0,0-.669-.091c-.213.071-.9.365-1.307.547a7.5,7.5,0,0,1-1.378.527c-.3.03-1.52.081-2.33.091s-3.181.02-4.2.061-4.488.061-5.217.071-3.911.051-4.913.051-3.85.061-4.762.051-4.974.061-5.876.051-3.434.01-4.1.02-1.6.051-2.482.1-2.117.193-2.472.213a3.83,3.83,0,0,1-1-.091.97.97,0,0,0-.284-.091c-.1-.01-.405-.061-.405-.061l-.071-.152s.4-.071.709-.142.6-.213,1.165-.334,2.016-.4,2.725-.517,3.941-.689,4.873-.81,3.343-.4,4.184-.456,3.252-.253,4.1-.294,2.745-.132,3.222-.122,2.107.051,2.745.081.993.041.993.041l.122-.415s-.679-.04-1.256-.071-2.046-.061-2.543-.061-2.31.01-3,.051c-.659.041-1.631-.071-2.421-.1-.952-.04-3.11-.01-3.991.061s-3.374.3-4.154.405-3.485.486-4.731.719-3.171.608-4.073.77-2.057.405-3.09.517-3.13.142-3.89.132-3.009-.061-4.143-.051-3.029.01-4.144.142a14.229,14.229,0,0,0-2.624.537,6.268,6.268,0,0,0-1.55.689c-.4.284-.578.6-.557.7a.954.954,0,0,0,.051.172l.294.1s-.284.223-.456.365a1.605,1.605,0,0,0-.405.76,10.6,10.6,0,0,0-.162,1.266,1.161,1.161,0,0,0,.051.628c.091.223.547,1.033.729,1.378s.659,1.1.79,1.337.375.547.557.821a2.752,2.752,0,0,1,.567,1.976v1.55a1.044,1.044,0,0,1-.071.507c-.051.061-.193.182-.2.314a5.27,5.27,0,0,1-.132.588c-.041.152-.152.476-.152.476s-.192-.385-.2-.426a4.178,4.178,0,0,0,.051-.81,26.2,26.2,0,0,1-.882-3.343" transform="translate(-1051.058 -376.628)" fill="#fff" fill-rule="evenodd"/>
      <path id="Tracé_1858" data-name="Tracé 1858" d="M1212.3,429.127a2.257,2.257,0,0,1,.679-.628,7.2,7.2,0,0,1,1.56-.729,20.294,20.294,0,0,1,2.715-.547c.719-.061,2.634-.071,3.262-.081s1.834.02,2.239.01.973,0,1.408,0,1.246-.01,1.51-.01a8.453,8.453,0,0,1,.9.01c.142.041.405.081.446.193a.365.365,0,0,1,0,.324.63.63,0,0,0-.061.324v.111s-.081.051-.172.1-.476.284-.476.284a.694.694,0,0,0-.071-.243.746.746,0,0,0-.466-.324c-.162-.03-.77-.071-1.033-.081s-.892-.02-1.145-.051-.365-.061-.486-.061a.446.446,0,0,0-.3.081c-.1.071-.132.142-.192.152a1.5,1.5,0,0,1-.223-.01c-.041,0-.132.071.02.213a1.487,1.487,0,0,0,.851.294c.3.051.719.122,1.023.182s.729.132,1,.192a4.732,4.732,0,0,0,.628.081c.1.01.263.081.253.182a1.128,1.128,0,0,1-.071.263.561.561,0,0,0-.02.314.191.191,0,0,1-.081.192c-.071.051-.365.152-.446.193a.391.391,0,0,1-.2.02s.041-.193,0-.243a.732.732,0,0,0-.365-.223c-.223-.071-.821-.223-1.114-.284s-.77-.192-1.094-.253-.537-.152-.628-.071-.122.152-.182.162-.152-.03-.213.02-.142.132-.081.2a1.363,1.363,0,0,0,.486.274c.213.071.922.274,1.226.365s.841.314,1.135.365.588.152.648.314a.348.348,0,0,1-.061.405.523.523,0,0,0-.152.284c-.02.061-.061.213-.061.213s-.274.172-.334.2l-.263.111a.341.341,0,0,0,.01-.324c-.081-.2-.324-.324-.628-.476s-.942-.375-1.175-.466-1.013-.4-1.185-.456a1.077,1.077,0,0,0-.547-.091c-.172.041-.253.132-.2.213s.182.122.182.213,0,.172-.051.2a.219.219,0,0,0-.061.03,7.039,7.039,0,0,0,.679.405c.274.132.952.486,1.135.588s.74.355.871.456.405.253.355.385-.091.344-.122.415.02.132-.091.182-.557.162-.557.162a.511.511,0,0,0-.041-.162c-.02-.061-.1-.162-.344-.3s-1.084-.648-1.3-.75a7.374,7.374,0,0,1-.871-.507,5.863,5.863,0,0,0-.527-.415c-.1-.061-.324-.162-.466-.02a.423.423,0,0,0-.1.425c.071.081.233.223.233.223s-.142.111-.122.162a4.757,4.757,0,0,0,.689.537c.284.2,1.033.719,1.226.841s.6.385.729.507.162.223.071.334a.909.909,0,0,0-.132.213v.2a.569.569,0,0,1-.02.132.383.383,0,0,1-.213.081c-.152.02-.375.04-.375.04a.288.288,0,0,1-.041-.182c.01-.111-.091-.182-.253-.324-.2-.182-.77-.577-1.054-.78a11.811,11.811,0,0,1-.972-.709c-.132-.142-.375-.486-.5-.6s-.314-.223-.466-.162-.324.182-.344.324-.051.253.051.324.223.152.223.2-.152.081-.122.162a8.087,8.087,0,0,0,.76.638c.223.193,1,.8,1.2.962a2.833,2.833,0,0,1,.6.638.828.828,0,0,1-.041.527.616.616,0,0,1-.385.142c-.152.02-.354.051-.354.051s.071-.182.04-.253a6.9,6.9,0,0,0-.618-.486c-.253-.2-.993-.831-1.287-1.074a2.85,2.85,0,0,1-.669-.729c-.1-.2-.264-.476-.507-.476a.736.736,0,0,0-.618.223c-.142.192-.142.4-.03.476s.294.2.233.233l-.213.132a4.011,4.011,0,0,1,.517.385c.334.284.9.75,1.114.952s.659.618.74.689a.67.67,0,0,1,.192.436,1.233,1.233,0,0,1-.081.436c-.051.081.01.142-.1.2a1.134,1.134,0,0,1-.426.061.621.621,0,0,1-.152-.02s.2-.152.193-.223a2,2,0,0,0-.426-.466c-.162-.142-.973-.831-1.276-1.1a3.616,3.616,0,0,1-.821-.962,2.916,2.916,0,0,0-.253-.811c-.152-.213-.5-.476-.648-.709a15.206,15.206,0,0,1-.9-1.5,4.608,4.608,0,0,1-.547-1.277,5.2,5.2,0,0,0-.081-.8c-.071-.132-.233-.334-.324-.334s-.355-.041-.355-.041" transform="translate(-1109.653 -420.009)" fill="#fff" fill-rule="evenodd"/>
      <path id="Tracé_1859" data-name="Tracé 1859" d="M1231.3,505.3s.648.75.821.892a6.577,6.577,0,0,0,.618.415,4.258,4.258,0,0,1,.618.6c.111.132.365.385.354.537a1.737,1.737,0,0,1-.223.669.828.828,0,0,1-.354.233c-.111,0-.334-.03-.334-.03s.263-.071.263-.172-.051-.2-.243-.4a3.7,3.7,0,0,1-.466-.537,6.4,6.4,0,0,1-.365-.557l-.142.051h-.142c0,.01-.051-.436-.111-.689s-.142-.466-.172-.588c-.051-.152-.122-.415-.122-.415" transform="translate(-1126.728 -490.255)" fill="#fff" fill-rule="evenodd"/>
      <path id="Tracé_1860" data-name="Tracé 1860" d="M1230.6,547.736a4.935,4.935,0,0,0,.192-.547c.02-.152.111-.425.122-.5l.041-.193s.3.405.405.517.415.375.537.537.659.851.882,1.165.871,1.165.982,1.337a2.58,2.58,0,0,1,.456.821,1.593,1.593,0,0,1-.122.466c-.071.142-.142.294-.213.314s-.415.02-.415.02a.533.533,0,0,0,.091-.213.8.8,0,0,0-.365-.456,4.855,4.855,0,0,1-.729-.456c-.091-.111-.385-.881-.527-1.155a11.678,11.678,0,0,0-.628-1.135c-.182-.253-.294-.517-.365-.537s-.041.041-.142.051a.3.3,0,0,1-.193-.051" transform="translate(-1126.099 -527.281)" fill="#fff" fill-rule="evenodd"/>
      <path id="Tracé_1861" data-name="Tracé 1861" d="M1236,539.7a2.842,2.842,0,0,0,.689.152,3.268,3.268,0,0,0,.507-.01c.061-.02.162-.213.415-.274a.846.846,0,0,1,.729.152c.243.182,1.428,1.368,1.611,1.54s.952.912,1.2,1.145a4.776,4.776,0,0,1,.689.76c.071.152.1.284.051.365a.957.957,0,0,0-.182.253,1.542,1.542,0,0,1-.122.415.369.369,0,0,1-.3.152,3.312,3.312,0,0,1-.334-.02s.192-.111.192-.223a.46.46,0,0,0-.223-.375c-.162-.091-.344-.193-.6-.324a2.065,2.065,0,0,1-.628-.507c-.182-.2-.6-.76-.8-.993s-.689-.851-.922-1.074a1.635,1.635,0,0,0-.74-.476,2.206,2.206,0,0,0-.415-.071c-.061,0-.182.192-.152.243s-.112-.071-.233-.223-.405-.608-.405-.608" transform="translate(-1130.952 -521.024)" fill="#fff" fill-rule="evenodd"/>
      <path id="Tracé_1862" data-name="Tracé 1862" d="M1258.21,530.013a1.188,1.188,0,0,0,.051-.2c.01-.122.041-.274.1-.263a2.3,2.3,0,0,0,.557.152c.2,0,.223-.03.223-.03a.5.5,0,0,1,.354-.223,2.1,2.1,0,0,1,.415-.061,1,1,0,0,1,.466.081,9.016,9.016,0,0,1,1.256.922c.274.213,1.388,1.084,1.692,1.337s.669.486.76.588.405.4.334.527a2.684,2.684,0,0,0-.263.426c-.03.142-.051.344-.071.425s-.192.122-.273.111-.324-.02-.324-.02a.552.552,0,0,0,.172-.192c.03-.1-.041-.2-.172-.3a4.424,4.424,0,0,0-.6-.355,6.411,6.411,0,0,1-.942-.689c-.314-.253-1.114-1-1.3-1.165a6.783,6.783,0,0,0-.881-.7,5.315,5.315,0,0,0-.719-.162c-.152-.041-.385-.091-.385-.091s-.1.152-.152.152c-.1,0-.081-.01-.081-.01s.01,0-.071-.071a2.145,2.145,0,0,1-.162-.162" transform="translate(-1150.903 -511.899)" fill="#fff" fill-rule="evenodd"/>
      <path id="Tracé_1863" data-name="Tracé 1863" d="M1277.9,515.221v-.213a1.236,1.236,0,0,1,.365-.061,1.663,1.663,0,0,0,.618-.071,1.789,1.789,0,0,0,.385-.152c.152-.091.223-.122.385-.213s.122-.223.213-.233a1.2,1.2,0,0,1,.466,0c.081.051.689.537,1.043.75s1.439.881,1.844,1.135a14.331,14.331,0,0,1,1.216.76c.2.182.334.273.324.446s-.142.284-.213.415-.061.253-.112.355a1.915,1.915,0,0,0-.081.213l-.5.111a.34.34,0,0,0,.111-.253.563.563,0,0,0-.324-.385,4.185,4.185,0,0,0-.74-.213,4.189,4.189,0,0,1-.9-.557c-.253-.193-.881-.679-1.185-.881s-.729-.547-.942-.648a3.414,3.414,0,0,0-.831-.193c-.223-.01-.5.01-.547,0s-.122.253-.213.162a1.552,1.552,0,0,0-.253-.162c-.122-.071-.132-.111-.132-.111" transform="translate(-1168.607 -498.302)" fill="#fff" fill-rule="evenodd"/>
      <path id="Tracé_1864" data-name="Tracé 1864" d="M1307.4,498.7s.324-.02.4-.162a2.4,2.4,0,0,0,.071-.6c.02-.142.01-.223.071-.243s.213.091.365.111a1.278,1.278,0,0,1,.6.132c.253.132,1.317.689,1.884.932s1.682.821,2.026.952a3.158,3.158,0,0,1,1,.5.451.451,0,0,1,.03.476c-.091.152-.162.243-.132.344s.132.233.051.294a2.594,2.594,0,0,1-.415.122.866.866,0,0,1-.274.051.215.215,0,0,0,.091-.213.487.487,0,0,0-.4-.365c-.253-.061-.537-.071-.76-.132a3.019,3.019,0,0,1-.77-.355c-.344-.2-1.043-.618-1.418-.81s-1.044-.547-1.286-.7a2.53,2.53,0,0,0-.436-.263.623.623,0,0,0-.355-.02,1.234,1.234,0,0,1-.334-.04" transform="translate(-1195.118 -483.419)" fill="#fff" fill-rule="evenodd"/>
      <path id="Tracé_1865" data-name="Tracé 1865" d="M1327.2,481.813a2.873,2.873,0,0,0,.091-.405c.041-.213-.01-.324.061-.344s.192.041.344.02a.778.778,0,0,1,.415.041c.111.061.628.263.892.355s1.621.588,2.077.75,1.277.466,1.631.6a2.756,2.756,0,0,1,.729.284.655.655,0,0,1,.243.527c-.01.243.041.314-.061.426s-.122.142-.132.213.081.2.02.273-.152.081-.365.122l-.324.061s.182-.193.01-.344a1.329,1.329,0,0,0-.608-.4c-.385-.142-.993-.4-1.266-.507s-1.449-.638-1.783-.76a12.557,12.557,0,0,1-1.246-.517,1.2,1.2,0,0,1-.405-.273c-.071-.091-.324-.132-.324-.132" transform="translate(-1212.912 -468.47)" fill="#fff" fill-rule="evenodd"/>
      <path id="Tracé_1866" data-name="Tracé 1866" d="M1341.62,463.575s-.02-.577.061-.608.324.051.425.041a2.27,2.27,0,0,1,.679.061c.273.071,1.783.456,2.381.577s1.388.324,1.895.405.831.081.942.263a1.606,1.606,0,0,1,.081.76,5.462,5.462,0,0,1,.01.689,1.7,1.7,0,0,1-.466.243c-.172.071-.253.1-.253.1a.407.407,0,0,0-.04-.365,2.287,2.287,0,0,0-.892-.425c-.314-.081-1.206-.375-1.692-.527s-1.3-.415-1.57-.486a3.135,3.135,0,0,1-.79-.274c-.193-.122-.4-.334-.476-.385a1.051,1.051,0,0,0-.314-.071" transform="translate(-1225.854 -452.208)" fill="#fff" fill-rule="evenodd"/>
      <path id="Tracé_1867" data-name="Tracé 1867" d="M1352.6,443.2v-.223c-.01,0,.263-.263.334-.263a2.745,2.745,0,0,1,.557-.01c.294.02,1.57.172,2.077.263s1.834.263,2.219.314.973.01,1.155.061c.324.081.273.365.3.567a2.632,2.632,0,0,1,.03.6,1.274,1.274,0,0,1-.4.4c-.193.142-.385.253-.486.314s.031-.253-.081-.365a1.237,1.237,0,0,0-.557-.223c-.294-.061-.77-.172-1.064-.223s-1.378-.274-1.824-.355a5.921,5.921,0,0,1-1.236-.273c-.294-.142-.486-.385-.648-.456a1.541,1.541,0,0,0-.375-.091" transform="translate(-1235.737 -433.987)" fill="#fff" fill-rule="evenodd"/>
      <path id="Tracé_1868" data-name="Tracé 1868" d="M1360.381,420.9a2.067,2.067,0,0,1-.081-.3.444.444,0,0,1,.02-.122,4.619,4.619,0,0,0,.821-.041c.334-.061,1.317-.213,1.955-.314s1.823-.3,2.219-.385a2.841,2.841,0,0,1,1.033-.081.577.577,0,0,1,.314.405,5.354,5.354,0,0,0,.2.689c.051.152.172.4.142.466a1.959,1.959,0,0,1-.365.456c-.142.132-.486.466-.486.466a.686.686,0,0,0-.061-.436,1.09,1.09,0,0,0-.6-.456,10.639,10.639,0,0,0-1.783-.152c-.395.01-1.357.02-1.813.01a3.055,3.055,0,0,1-1.064-.182.842.842,0,0,0-.213-.081.242.242,0,0,0-.243.051" transform="translate(-1242.659 -413.264)" fill="#fff" fill-rule="evenodd"/>
      <path id="Tracé_1869" data-name="Tracé 1869" d="M1424.6,431.371l.588-.638c.122-.142.233-.324.314-.344a2.737,2.737,0,0,0,.588-.051,22.664,22.664,0,0,1,2.29-.081c.426-.01,3.394-.01,4.032-.01s4.833-.061,5.531-.051,3.728,0,4.5-.02,4.519,0,5.41-.04,5.552-.061,6.322-.081,4.367-.081,5.025-.091,1.955-.03,2.361-.061a7.464,7.464,0,0,1,.932-.051c.152.02.182.182.223.274s.273.821.385,1.145a4.912,4.912,0,0,1,.2.952c0,.2.081.456.041.507a4.235,4.235,0,0,1-.557.324c-.081.02-.193.051-.193.051a.312.312,0,0,0,.02-.263.855.855,0,0,0-.466-.314,1.368,1.368,0,0,0-.689.142,16.626,16.626,0,0,1-1.732.486,6.821,6.821,0,0,1-1.611.2c-.871.02-2.877.01-3.739-.02s-3.4-.111-4.61-.172-4.174-.213-5.217-.263-4.225-.233-4.984-.284-4.488-.274-5.268-.334-4.67-.294-5.3-.355-1.986-.152-2.4-.182a7.921,7.921,0,0,1-1.216-.132c-.213-.061-.213-.142-.385-.182a2.443,2.443,0,0,0-.4-.051" transform="translate(-1300.445 -422.446)" fill="#fff" fill-rule="evenodd"/>
      <path id="Tracé_1870" data-name="Tracé 1870" d="M1409,462.427s.547-.334.79-.527.517-.365.578-.537a.835.835,0,0,0,.061-.263s1.682.051,2.057.081,2.229.152,2.715.192,3.455.253,4.377.3,5.1.344,5.926.4l4.974.3c.821.051,4,.2,5.035.253s4.65.142,5.278.152,2.644.03,3,.01.8-.061,1.033-.061.507.02.527.274a8.777,8.777,0,0,1-.142,1.641,3.221,3.221,0,0,1-.527,1.074,3.552,3.552,0,0,1-.456.3.541.541,0,0,0,.041-.355.693.693,0,0,0-.5-.314c-.182.01-1.236.274-1.763.334a17.713,17.713,0,0,1-2.047.142c-.648-.01-2.168-.071-2.928-.132s-2.837-.213-3.87-.324-3.86-.415-5.167-.567-3.951-.486-4.883-.608-3.951-.527-4.762-.638-2.979-.405-3.576-.507-2.462-.365-3-.446-.871-.142-1.1-.142-.415-.02-.729,0-.263.02-.405.02-.182-.01-.324-.02a.54.54,0,0,1-.213-.051" transform="translate(-1286.425 -450.533)" fill="#fff" fill-rule="evenodd"/>
      <path id="Tracé_1871" data-name="Tracé 1871" d="M1394.541,488.927a6.155,6.155,0,0,0,.7-.263c.253-.122.659-.223.77-.425s.142-.253.132-.385a1.2,1.2,0,0,0-.051-.253l1.094.071c.314.02,1.8.253,2.259.314s2.735.415,3.353.507,4.822.669,5.643.77,4.417.567,5.086.638,4.711.527,5.349.577,2.908.273,3.688.334,2.472.152,3.191.162a9.178,9.178,0,0,1,1.439.051c.193.061.334.193.3.324s-.193,1.276-.263,1.5a4.079,4.079,0,0,1-.3.821,1.137,1.137,0,0,1-.365.426c-.182.091-.253.122-.253.122s.132-.253.061-.4a.9.9,0,0,0-.486-.405c-.152-.01-.75.1-1.145.152s-1.115.142-1.611.182-1.1.081-1.418.071-.892-.071-1.408-.142-2.391-.334-3.06-.446-2.857-.486-3.769-.648-4.174-.821-4.8-.962-3.049-.669-3.657-.81-3.252-.76-3.86-.912-2.3-.547-2.756-.659-1.378-.334-1.631-.385a1.766,1.766,0,0,0-.75-.061c-.213.061-.658.192-.8.243a.567.567,0,0,1-.385.04.731.731,0,0,1-.334-.152" transform="translate(-1273.394 -474.349)" fill="#fff" fill-rule="evenodd"/>
      <path id="Tracé_1872" data-name="Tracé 1872" d="M1374.581,511.268a4.727,4.727,0,0,0,.649-.071c.2-.051.719-.152.942-.223s.3-.111.334-.223-.02-.446.01-.567a2.306,2.306,0,0,1,.091-.284,6.147,6.147,0,0,0,.689.122,10.683,10.683,0,0,1,1.175.223c.284.071,3.546.892,4.062,1.023s4.245,1.033,4.883,1.165,3.678.8,4.356.942,5.187.973,5.937,1.094,3.323.527,3.931.588,1.489.152,1.672.2.344.122.3.334a8.058,8.058,0,0,1-1.064,2.259,3.957,3.957,0,0,1-.588.618,2.29,2.29,0,0,1-.223.142.618.618,0,0,0,.111-.355.635.635,0,0,0-.466-.365c-.213-.03-.679-.01-1.145-.01a23.743,23.743,0,0,1-3.009-.243c-1.185-.172-3.009-.476-4.235-.76s-2.979-.7-4.225-1.064-3.313-.942-4.61-1.378-2.958-.993-3.688-1.256-2.857-1.013-3.191-1.145a2.623,2.623,0,0,0-.81-.2c-.253-.02-.557.041-.821,0a6.978,6.978,0,0,1-.729-.162c-.142-.051-.253-.081-.314-.193a.314.314,0,0,1-.041-.2" transform="translate(-1255.482 -494.389)" fill="#fff" fill-rule="evenodd"/>
      <path id="Tracé_1873" data-name="Tracé 1873" d="M1349.931,538.479s.8-.192,1.206-.344a2.777,2.777,0,0,1,1.165-.284,9.629,9.629,0,0,1,1.661.486c.466.182,2.117.76,2.563.932s4.225,1.439,4.833,1.631,3.9,1.165,4.589,1.358,3.86,1,4.61,1.155,1.986.385,2.371.456.74.162.77.344a1.1,1.1,0,0,1-.061.608c-.071.142-.193.608-.294.892a3.259,3.259,0,0,1-.405.821,1.228,1.228,0,0,1-.507.243.34.34,0,0,0,.152-.3.428.428,0,0,0-.223-.355.692.692,0,0,0-.425-.192c-.2-.01-.729.051-1.135.071s-1.8.02-2.34.02a14.469,14.469,0,0,1-1.5-.01,9.846,9.846,0,0,1-1.54-.314c-.628-.172-2.188-.75-2.887-1.023s-2.745-1.2-3.293-1.439-2.594-1.266-3.272-1.611-1.641-.821-2.168-1.1-1.651-.9-1.955-1.043a3.4,3.4,0,0,0-.871-.294,3.725,3.725,0,0,1-.709-.243,3.631,3.631,0,0,0-.365-.122l.031-.334Z" transform="translate(-1233.313 -519.504)" fill="#fff" fill-rule="evenodd"/>
      <path id="Tracé_1874" data-name="Tracé 1874" d="M1324.171,557.949s.841-.193,1.064-.274a2.244,2.244,0,0,1,.861-.152,8.073,8.073,0,0,1,1.165.537c.365.2,2,1.074,2.523,1.347s2.675,1.378,3.171,1.621,2.077,1.023,2.644,1.276,2.553,1.135,3.11,1.358c.517.213,1.347.517,1.824.679s1.084.344,1.368.426.79.213.821.344a.723.723,0,0,1-.061.527c-.091.2-.324.831-.426,1.033a3.3,3.3,0,0,1-.436.74.907.907,0,0,1-.324.243c-.091.02-.1.01-.1.01s.172-.213.172-.294a.826.826,0,0,0-.253-.466,1.044,1.044,0,0,0-.486-.193,10.738,10.738,0,0,1-1.1-.051c-.466-.051-1.226-.142-1.783-.263a6.954,6.954,0,0,1-1.408-.385c-.466-.2-1.489-.74-2.026-1.043s-2.239-1.358-2.776-1.712c-.506-.334-2.948-2.087-3.323-2.34s-1.246-.9-1.611-1.175a9.593,9.593,0,0,0-1.074-.77c-.2-.091-.8-.314-1-.4s-.426-.152-.486-.284a.738.738,0,0,1-.041-.324" transform="translate(-1210.187 -537.181)" fill="#fff" fill-rule="evenodd"/>
      <path id="Tracé_1875" data-name="Tracé 1875" d="M1297.586,575.591a4.12,4.12,0,0,0,.669-.02,5.969,5.969,0,0,1,.76-.172,1.277,1.277,0,0,1,.618.061,7.28,7.28,0,0,1,1.155.709c.3.253,1.611,1.246,2.016,1.55s2.36,1.682,2.745,1.955,2.168,1.449,2.644,1.742,1.358.821,1.783,1.074a8.991,8.991,0,0,1,1.033.618c.132.132.294.263.162.557a9.622,9.622,0,0,1-.608,1.044,2.507,2.507,0,0,1-.486.5.8.8,0,0,1-.193.122s.2-.223.162-.385a.76.76,0,0,0-.365-.507,5.206,5.206,0,0,0-1.074-.263c-.354-.081-1.682-.405-2.188-.547a3.755,3.755,0,0,1-1.266-.507c-.324-.243-1.165-1.023-1.57-1.4s-1.266-1.175-1.753-1.621-1.489-1.378-1.844-1.722-1.337-1.206-1.5-1.4-.567-.567-.689-.689-.213-.111-.284-.223a.41.41,0,0,1-.01-.344,1.12,1.12,0,0,1,.071-.132" transform="translate(-1186.195 -553.242)" fill="#fff" fill-rule="evenodd"/>
      <path id="Tracé_1876" data-name="Tracé 1876" d="M1269.1,590.951l.111-.355a.681.681,0,0,0,.04-.193,5.294,5.294,0,0,0,.75-.02,3.439,3.439,0,0,1,.8-.111.564.564,0,0,1,.557.365,4.926,4.926,0,0,0,.871,1.033c.294.284,1.742,1.621,2.178,2.036s1.834,1.732,2.32,2.178,1.155,1.023,1.327,1.206.6.588.689.7a.521.521,0,0,1-.041.537,4.081,4.081,0,0,1-.5.709,6.392,6.392,0,0,1-.527.405.85.85,0,0,0,.1-.385,1.077,1.077,0,0,0-.486-.425c-.193-.071-1.013-.284-1.368-.4a6.511,6.511,0,0,1-1.358-.588c-.213-.162-1.155-1.3-1.368-1.56s-1.033-1.337-1.317-1.7-.922-1.246-1.266-1.692-.881-1.145-1.023-1.287-.162-.213-.294-.3-.193-.152-.193-.152" transform="translate(-1160.698 -566.616)" fill="#fff" fill-rule="evenodd"/>
      <path id="Tracé_1877" data-name="Tracé 1877" d="M1240.3,600.8s.527.071.821.071.578-.03.709-.01a.582.582,0,0,1,.425.162,2.013,2.013,0,0,1,.263.588c.061.152,1.013,1.5,1.165,1.712s.831,1.114,1.135,1.51,1.1,1.428,1.347,1.742.719.79.831.973.425.618.476.719-.071.223-.142.324a3.573,3.573,0,0,1-.355.405,1.941,1.941,0,0,1-.415.324c-.061.02.02-.162.041-.274a.48.48,0,0,0-.243-.375,3.57,3.57,0,0,0-.881-.436c-.273-.111-.851-.284-1.236-.446a1.962,1.962,0,0,1-.719-.426,11.187,11.187,0,0,1-.811-1.347c-.223-.405-.891-1.661-1.064-1.986a2.327,2.327,0,0,1-.274-.74,8.439,8.439,0,0,0-.111-1.135,1.89,1.89,0,0,0-.415-.628,1,1,0,0,0-.233-.152c-.061-.03-.263-.091-.263-.091s-.02-.263-.02-.324a.714.714,0,0,0-.02-.142" transform="translate(-1134.816 -576.08)" fill="#fff" fill-rule="evenodd"/>
      <path id="Tracé_1878" data-name="Tracé 1878" d="M1235.814,639.4s.334.557.456.75.425.6.588.9.628,1.094.76,1.358a1.545,1.545,0,0,1,.273.77,2.042,2.042,0,0,1-.324.729c-.071.132-.081.274-.253.405a1.131,1.131,0,0,1-.426.182.691.691,0,0,0,.182-.324.912.912,0,0,0-.2-.486,1.728,1.728,0,0,0-.486-.405c-.213-.1-.648-.334-.689-.466a.654.654,0,0,1,.051-.537,1.6,1.6,0,0,0,.061-.962,2.04,2.04,0,0,0-.152-.456.477.477,0,0,0-.152-.152l.2-.76.132-.547Z" transform="translate(-1130.502 -610.77)" fill="#fff" fill-rule="evenodd"/>
      <path id="Tracé_1879" data-name="Tracé 1879" d="M1113.5,687.842s.8-.294,1.165-.466,1.084-.476,1.55-.689c.486-.223,1.763-.932,2.31-1.277a18.748,18.748,0,0,0,1.824-1.307c.578-.476,1.489-1.317,1.854-1.682a18.432,18.432,0,0,0,1.5-1.763c.263-.385.719-1.094.719-1.094l1,.507a5,5,0,0,0,1.206.466,3.172,3.172,0,0,0,.821.061.734.734,0,0,0,.6-.274,3.129,3.129,0,0,0,.425-.709c.071-.172.182-.415.182-.415s.385.172.618.263l1.155.405a4.6,4.6,0,0,1,.942.324c.182.132.223.223.213.355a2.639,2.639,0,0,1-.264.689c-.122.243-.567,1.2-.75,1.51s-.9,1.5-1.276,2.026a27.489,27.489,0,0,1-1.986,2.421,8.946,8.946,0,0,1-1.3,1.135c-.324.162-.831.263-1.175.476l-1.813,1.135c-.476.3-1.155.7-1.641.952s-1.7.861-2.077,1.033-.871.4-1.1.507a1.533,1.533,0,0,1-.618.192.489.489,0,0,1-.405-.3c-.081-.152-.669-1.155-.881-1.55s-1.033-1.783-1.185-2.036a1.041,1.041,0,0,0-.608-.537,1.327,1.327,0,0,0-.436-.132.885.885,0,0,1-.375-.041.358.358,0,0,1-.182-.182" transform="translate(-1020.862 -646.538)" fill="#fff" fill-rule="evenodd"/>
      <path id="Tracé_1880" data-name="Tracé 1880" d="M1086.51,766.841s.658-.162.973-.274.679-.233.9-.284.324-.061.446.061a1.557,1.557,0,0,1,.284.507c.061.162.729,1.327.952,1.712s.861,1.489,1.054,1.834.871,1.439,1.013,1.682.314.557.426.75a8.472,8.472,0,0,1,.4.81c.081.182.152.324.091.476s-.456.861-.537,1.033-.456.831-.456.831a4.358,4.358,0,0,0-.132-.8,1.058,1.058,0,0,0-.4-.557c-.193-.132-.557-.213-.709-.324a1.365,1.365,0,0,1-.456-.557c-.182-.355-.659-1.651-.821-2.057-.182-.456-.77-1.955-.973-2.452a12.5,12.5,0,0,0-.689-1.56,1.852,1.852,0,0,0-.689-.517c-.132-.01-.314-.051-.355-.041s-.2.02-.2.02l-.132-.314Z" transform="translate(-996.598 -724.767)" fill="#fff" fill-rule="evenodd"/>
      <path id="Tracé_1881" data-name="Tracé 1881" d="M1163.644,678.808a1.121,1.121,0,0,0,.436-.051,4.643,4.643,0,0,0,.719-.547,4.086,4.086,0,0,0,.567-.638.641.641,0,0,1,.121-.172s.122.03.122.122-.243.871-.314,1.074-.314.871-.486,1.226-.7,1.4-.892,1.732-1.054,1.712-1.418,2.2-1.439,1.824-1.773,2.188-1.661,1.651-1.976,1.965-2.654,1.844-3.11,2.117-1.945,1.145-2.29,1.337-1.388.689-1.753.871a13.454,13.454,0,0,1-1.51.669,2.229,2.229,0,0,1-.689-.02,2.2,2.2,0,0,0-.365-.03c-.061,0-.334.041-.334.041l-.1-.182s.871-.344,1.307-.557,2.33-1.094,2.867-1.408,1.651-.942,2.229-1.317,1.945-1.378,2.442-1.824,1.925-1.834,2.178-2.148,1.4-1.368,1.651-1.641a9.649,9.649,0,0,0,1.054-1.165,23.107,23.107,0,0,0,1.266-2.107c.152-.354.334-.648.294-.8s-.051-.3-.091-.324-.314-.1-.314-.1l.111-.324c.03-.111.061-.193.061-.193" transform="translate(-1052.406 -644.92)" fill="#fff" fill-rule="evenodd"/>
      <path id="Tracé_1882" data-name="Tracé 1882" d="M1061.1,773.119a1.758,1.758,0,0,0,.527-.071,7.627,7.627,0,0,1,1.064-.344c.243-.02.6-.02.648.071a5.821,5.821,0,0,1,.253.628c.111.3.811,2.087.973,2.563s.952,2.371,1.094,2.766.506,1.266.557,1.439a3.109,3.109,0,0,1,.182.8,5.663,5.663,0,0,1-.486.831c-.162.253-.75,1.033-.75,1.033a1.163,1.163,0,0,1,.02-.405.58.58,0,0,0,.081-.405,1.658,1.658,0,0,0-.344-.588c-.182-.142-.517-.263-.689-.426a1.079,1.079,0,0,1-.385-.74c-.132-.527-.466-1.925-.567-2.34s-.537-2.391-.638-2.786a4.659,4.659,0,0,0-.354-1.114,1.794,1.794,0,0,0-.608-.517,2.032,2.032,0,0,0-.334-.01c-.051,0-.132.01-.132.01l-.091-.4Z" transform="translate(-973.771 -730.558)" fill="#fff" fill-rule="evenodd"/>
      <path id="Tracé_1883" data-name="Tracé 1883" d="M1036.6,777.043s.466-.051.638-.091a4.685,4.685,0,0,1,.952-.152c.284,0,.557.071.608.253s.122.689.152.922.547,2.411.608,2.735.659,2.675.719,3.029.263,1.165.253,1.358a2.056,2.056,0,0,1-.02.415,8.253,8.253,0,0,1-.567.7c-.182.182-.81.983-.81.983a.486.486,0,0,1,.02-.334c.081-.1.263-.263.243-.436a1.43,1.43,0,0,0-.344-.658c-.152-.142-.5-.324-.659-.486a.974.974,0,0,1-.274-.689c-.041-.4-.192-2.462-.243-3.141s-.193-2.573-.233-2.857a1.117,1.117,0,0,0-.79-1.074c-.122-.03-.243-.051-.243-.051v-.405Z" transform="translate(-951.753 -734.25)" fill="#fff" fill-rule="evenodd"/>
      <path id="Tracé_1884" data-name="Tracé 1884" d="M1011.2,778.491s.476,0,.588-.02a4.31,4.31,0,0,1,.9-.081c.334.01.689.091.719.273s.04.76.051,1.114.152,2.2.162,2.5.172,2.361.2,2.857.111,1.469.091,1.651-.01.425-.01.425-.547.567-.729.729-.821.7-.821.7a1.6,1.6,0,0,1,.192-.4c.091-.122.182-.314.111-.425a5.475,5.475,0,0,0-.719-.75,1.048,1.048,0,0,1-.385-.628c-.02-.253.091-1.9.172-2.594s.162-2.249.213-2.786a4.79,4.79,0,0,0,.03-1.408,1.355,1.355,0,0,0-.415-.567,1.653,1.653,0,0,0-.355-.112Z" transform="translate(-928.926 -735.678)" fill="#fff" fill-rule="evenodd"/>
      <path id="Tracé_1885" data-name="Tracé 1885" d="M978.328,777.491s.344,0,.517-.01a3.264,3.264,0,0,1,.6-.03,2.058,2.058,0,0,1,.689.071.44.44,0,0,1,.334.517c-.02.334-.111,1.51-.142,1.844s-.243,2.735-.243,2.968-.071,1.276-.1,1.621c-.02.263-.122.922-.142,1.165s-.152.669-.152.719a.4.4,0,0,1-.041.132,5.757,5.757,0,0,1-.6.426c-.152.071-.152-.081-.253-.182s-.223-.111-.456-.213a2.425,2.425,0,0,1-.729-.679,1.021,1.021,0,0,1-.111-.871c.091-.4.425-1.753.537-2.239s.426-1.844.537-2.32a11.415,11.415,0,0,0,.3-1.489.887.887,0,0,0-.223-.638.782.782,0,0,0-.263-.192c-.091-.03-.193-.061-.193-.061l.122-.527Z" transform="translate(-898.597 -734.829)" fill="#fff" fill-rule="evenodd"/>
      <path id="Tracé_1886" data-name="Tracé 1886" d="M942.526,773.51s.344.04.517.04a2.987,2.987,0,0,1,.77.03c.324.071.709.132.75.274a.859.859,0,0,1,.04.608c-.081.3-.638,2.634-.74,3.029s-.527,2.239-.6,2.543-.314,1.368-.385,1.611-.213.689-.243.74a2.081,2.081,0,0,1-.456.263c-.081.041-.2.091-.2.091s.132-.193.081-.314a.4.4,0,0,0-.355-.253c-.172,0-.375.142-.527.091a.854.854,0,0,1-.537-.537c-.162-.4-.182-.456-.122-.75s.8-2.057.952-2.482.821-2.148.993-2.563a5.636,5.636,0,0,0,.385-1.125,1.1,1.1,0,0,0-.223-.527.383.383,0,0,0-.253-.122.143.143,0,0,1-.1-.03l.253-.628Z" transform="translate(-865.379 -731.284)" fill="#fff" fill-rule="evenodd"/>
      <path id="Tracé_1887" data-name="Tracé 1887" d="M905.922,766.71a1.908,1.908,0,0,0,.507.081,2.77,2.77,0,0,1,.8.071,1.343,1.343,0,0,1,.729.466c.061.152-.081.456-.253.821s-.942,2.431-1.125,2.867-.962,2.411-1.074,2.695-.456,1.1-.557,1.317-.193.426-.193.426l-.436.132s.122-.182.051-.284-.294-.334-.425-.344a1.16,1.16,0,0,0-.466.081c-.193.071-.415.071-.5-.081a6.27,6.27,0,0,1-.344-.7.573.573,0,0,1,.01-.486c.122-.223.891-1.651,1.054-1.915s1.074-1.783,1.276-2.158.709-1.216.8-1.408.152-.344.081-.486-.071-.213-.152-.253a.92.92,0,0,0-.223-.061l.456-.79Z" transform="translate(-831.318 -725.173)" fill="#fff" fill-rule="evenodd"/>
      <path id="Tracé_1888" data-name="Tracé 1888" d="M975.065,626.789h-.2c-2.6,0-5.562-.729-5.562-4.924s2.9-5.045,5.653-5.066c2.624.02,5.42.983,5.42,5.066s-2.583,4.924-5.319,4.924" transform="translate(-891.271 -590.459)" fill="#1d1d1b" fill-rule="evenodd"/>
      <path id="Tracé_1889" data-name="Tracé 1889" d="M827.332,484.323c-12.431,0-21.832-7.659-21.832-16.362s9.4-16.362,21.832-16.362,21.832,7.659,21.832,16.362-9.4,16.362-21.832,16.362" transform="translate(-744.066 -441.996)" fill="#fff" fill-rule="evenodd"/>
      <path id="Tracé_1890" data-name="Tracé 1890" d="M976.035,509.6c3.009.03,5.035,1.246,5.035,4.569s-2.117,4.6-5.035,4.62c-2.786-.02-5.035-1.013-5.035-4.62s2.29-4.549,5.035-4.569" transform="translate(-892.799 -494.12)" fill="#1d1d1b" fill-rule="evenodd"/>
      <path id="Tracé_1891" data-name="Tracé 1891" d="M915.066,502.074c3-1.7,3.607-3.414,3.384-5.43-.405-3.637-5.39-6.241-12-6.16-7.943.091-12.755,4.073-12.755,5.116s1.57,1.307,1.57,1.864v10.941c.02.679-1.479,1.439-1.479,2.188s5.116,4.559,13.586,4.508c7.436-.04,11.711-3.161,11.752-6.889a6.819,6.819,0,0,0-4.073-6.089v-.051Z" transform="translate(-823.33 -476.939)" fill="#1d1d1b" fill-rule="evenodd"/>
      <path id="Tracé_1892" data-name="Tracé 1892" d="M833.713,459.1c12.573,0,21.113,7.841,21.113,15.652S846.275,490.4,833.713,490.4,812.6,482.563,812.6,474.752s8.54-15.652,21.113-15.652" transform="translate(-750.446 -448.736)" fill="#1e1e21" fill-rule="evenodd"/>
      <path id="Tracé_1893" data-name="Tracé 1893" d="M906.566,492.419c3.009.03,5.035,1.246,5.035,4.569s-2.117,4.6-5.035,4.62c-2.786-.02-5.035-1.013-5.035-4.62s2.29-4.549,5.035-4.569m8.5,9.655c3-1.7,3.607-3.414,3.384-5.43-.405-3.637-5.4-6.241-12-6.16-7.943.091-12.755,4.073-12.755,5.116s1.57,1.307,1.57,1.864v10.952c.02.679-1.479,1.439-1.479,2.188s5.116,4.559,13.586,4.508c7.436-.041,11.711-3.161,11.752-6.889a6.819,6.819,0,0,0-4.073-6.089v-.051Zm-7.943,11.195h-.2c-2.6,0-5.562-.729-5.562-4.924s2.9-5.045,5.653-5.066c2.624.02,5.42.983,5.42,5.066s-2.583,4.924-5.319,4.924" transform="translate(-823.33 -476.939)" fill="#fff" fill-rule="evenodd"/>
    </g>
  </g>
</svg>
