<svg xmlns="http://www.w3.org/2000/svg" width="48" height="53.232" viewBox="0 0 48 53.232">
  <g id="LOGO" transform="translate(70.248 232)">
    <path id="Tracé_2089" data-name="Tracé 2089" d="M47.616,14.672c-4.553-.23-8.327-.359-11.9-.4-2.072-.01-3.849,0-5.427.04L35.734,0,33.4.285c-3.335.4-7.114.859-9.989,3.29-3.245,2.7-4.922,7-6.41,10.8,0,0-.439,1.158-.644,1.722a40.282,40.282,0,0,0-4.942,1.792,18.726,18.726,0,0,0-4.947,3.145A6.832,6.832,0,0,0,4,27.048a4.879,4.879,0,0,0,4.788,4.243h.125A7.441,7.441,0,0,0,14.6,27.946a21.8,21.8,0,0,0,2.716-5.412c.359-.988.7-2,1.033-2.975l.324-.954a44.388,44.388,0,0,1,7.149-1.063L18.871,35.854c-1.822.06-3.919.09-6.57.075-3.31-.04-6.909-.155-11-.359l-.2-.01L0,38.535l.384.02c4.468.225,8.357.359,11.9.4,2.067.01,3.849,0,5.427-.04L12.266,53.232l2.336-.285c3.335-.4,7.114-.859,9.989-3.295,3.245-2.7,4.922-7,6.41-10.793,0,0,.439-1.163.644-1.722a40.283,40.283,0,0,0,4.942-1.792A18.809,18.809,0,0,0,41.535,32.2,6.832,6.832,0,0,0,44,26.184a4.879,4.879,0,0,0-4.788-4.243h-.125A7.441,7.441,0,0,0,33.4,25.285,21.717,21.717,0,0,0,30.682,30.7c-.354.978-.7,1.977-1.033,2.975l-.324.954a44.473,44.473,0,0,1-7.149,1.063l6.954-18.311c1.822-.065,3.919-.09,6.57-.075,3.315.04,6.909.155,11,.359l.2.01L48,14.7l-.384-.02ZM31.111,3.644l-4.1,10.793c-1.807.1-3.435.255-4.962.464-.729.1-1.453.22-2.152.349,1.333-3.4,2.856-7.2,5.456-9.365a11.943,11.943,0,0,1,5.761-2.241ZM16.889,49.583l4.1-10.8c1.807-.1,3.43-.255,4.962-.464h0c.729-.1,1.448-.22,2.152-.349-1.328,3.4-2.851,7.2-5.456,9.365a11.992,11.992,0,0,1-5.761,2.242ZM15.121,19.669c-.21.614-.424,1.228-.644,1.827a19.138,19.138,0,0,1-2.3,4.643,4.526,4.526,0,0,1-3.39,2.127,1.851,1.851,0,0,1-1.792-1.617,3.946,3.946,0,0,1,1.538-3.41,15.872,15.872,0,0,1,4.134-2.6c.834-.359,1.642-.679,2.451-.968ZM32.879,33.563c.21-.614.424-1.228.644-1.827a19.257,19.257,0,0,1,2.3-4.648,4.526,4.526,0,0,1,3.39-2.127,1.851,1.851,0,0,1,1.792,1.617,3.951,3.951,0,0,1-1.538,3.41,15.872,15.872,0,0,1-4.134,2.6c-.834.359-1.642.679-2.451.968Z" transform="translate(-70.248 -232)" fill="#db5c1d"/>
  </g>
</svg>
