<?xml version="1.0" encoding="UTF-8"?>
<svg id="Calque_2" data-name="Calque 2" xmlns="http://www.w3.org/2000/svg" viewBox="0 0 96.15 106.63">
  <defs>
    <style>
      .cls-1 {
        fill: #212125;
      }
    </style>
  </defs>
  <g id="LOGO">
    <path class="cls-1" d="M95.38,29.39c-9.12-.46-16.68-.72-23.83-.8-4.15-.02-7.71,0-10.87.08L71.58,0l-4.68.57c-6.68.81-14.25,1.72-20.01,6.59-6.5,5.41-9.86,14.02-12.84,21.63,0,0-.88,2.32-1.29,3.45-3.24.93-6.46,2.1-9.9,3.59-4.27,1.99-7.51,4.05-9.91,6.3-3.84,3.6-5.51,7.65-4.94,12.05.66,4.85,4.78,8.5,9.59,8.5h.25c4.41-.21,8.25-2.46,11.4-6.7,2.53-3.4,4.24-7.58,5.44-10.84.72-1.98,1.41-4,2.07-5.96l.65-1.91c4.32-1.04,8.9-1.72,14.32-2.13l-13.93,36.68c-3.65.12-7.85.18-13.16.15-6.63-.08-13.84-.31-22.03-.72l-.41-.02-2.2,5.96.77.04c8.95.45,16.74.72,23.83.8,4.14.02,7.71,0,10.87-.08l-10.9,28.68,4.68-.57c6.68-.81,14.25-1.72,20.01-6.6,6.5-5.41,9.86-14.02,12.84-21.62,0,0,.88-2.33,1.29-3.45,3.24-.93,6.46-2.1,9.9-3.59,4.26-1.99,7.51-4.05,9.91-6.3,3.84-3.6,5.51-7.65,4.94-12.05-.66-4.85-4.78-8.5-9.59-8.5h-.25c-4.41.21-8.25,2.46-11.4,6.7-2.54,3.41-4.24,7.58-5.44,10.84-.71,1.96-1.4,3.96-2.07,5.96l-.65,1.91c-4.32,1.04-8.91,1.72-14.32,2.13l13.93-36.68c3.65-.13,7.85-.18,13.16-.15,6.64.08,13.84.31,22.03.72l.41.02,2.2-5.96-.77-.04ZM62.32,7.3l-8.22,21.62c-3.62.2-6.88.51-9.94.93-1.46.2-2.91.44-4.31.7,2.67-6.81,5.72-14.42,10.93-18.76,3.23-2.74,7.74-3.86,11.54-4.49ZM33.83,99.32l8.22-21.63c3.62-.2,6.87-.51,9.94-.93h0c1.46-.2,2.9-.44,4.31-.7-2.66,6.81-5.71,14.42-10.93,18.76-3.23,2.73-7.74,3.86-11.54,4.49ZM30.29,39.4c-.42,1.23-.85,2.46-1.29,3.66-1.06,2.87-2.54,6.51-4.61,9.3-2.04,2.74-4.26,4.13-6.79,4.26-1.79,0-3.33-1.4-3.59-3.24-.3-2.37.71-4.61,3.08-6.83,1.92-1.8,4.63-3.5,8.28-5.21,1.67-.72,3.29-1.36,4.91-1.94ZM65.86,67.23c.42-1.23.85-2.46,1.29-3.66,1.06-2.87,2.54-6.51,4.61-9.31,2.04-2.74,4.26-4.13,6.79-4.26,1.79,0,3.33,1.4,3.59,3.24.3,2.37-.71,4.6-3.08,6.83-1.92,1.8-4.63,3.5-8.28,5.21-1.67.72-3.29,1.36-4.91,1.94Z"/>
  </g>
</svg>