<svg xmlns="http://www.w3.org/2000/svg" xmlns:xlink="http://www.w3.org/1999/xlink" width="219.148" height="120.251" viewBox="0 0 219.148 120.251"><defs><style>.a{fill:#1e1e21;}.b{clip-path:url(#a);}</style><clipPath id="a"><rect class="a" width="219.148" height="120.251"/></clipPath></defs><g class="b"><path class="a" d="M244.31,37.743v-2.5h-9.551c.754-1.873,1.5-3.639,2.186-5.149h-3.963c-.7,1.594-1.436,3.371-2.143,5.149h-4.387l-1.374,3.391,4.528-.209c-.681,1.805-1.288,3.5-1.733,4.849-1.2,3.65-2.027,6.434-2.027,6.434l0,0a.029.029,0,0,0,0,.014h0c-.059.239-.115.475-.169.709-4.671,6.214-5.331,4.644-5.179,3.15a2.789,2.789,0,0,1,.076-.423l2.081-5.161,0-.009c.117-.271.221-.507.3-.688l0-.007.161-.372a11.06,11.06,0,0,0,1.078-3.907c0-.021,0-.042,0-.062a2.636,2.636,0,0,0-2.57-2.737l-.1-.01-.116-.011-.128-.006c-.061,0-.12,0-.182,0-.108,0-.217,0-.325.01l-.1.008-.113.01-.108.011-.244.034c-.077.012-.153.027-.229.042-.127.025-.255.054-.38.088-.039.009-.077.019-.116.031l-.014,0-.17.05-.149.048-.146.049c-.109.038-.216.078-.321.12s-.195.079-.289.121a11.213,11.213,0,0,0-2.471,1.49l.664-1.678h-4.75l-4.071,10.06c-2.5,3.024-6.005,4.77-8.736,4.77-1.348,0-3.268-.5-3.268-2.506q0-.192.021-.42a18.343,18.343,0,0,0,2.09.125,9.331,9.331,0,0,0,6.4-2.056,6.7,6.7,0,0,0,1.868-2.452,8.5,8.5,0,0,0,.743-4.2.069.069,0,0,1,0-.011l0,0c-.337-2.528-2.33-3.742-5.328-3.742-5.72,0-9.18,5.95-10.03,10.524-4.478,5.884-5.118,4.345-4.969,2.873a7.88,7.88,0,0,1,.589-1.871c.547-1.385,2.038-4.789,2.038-4.789a11.085,11.085,0,0,0,1.078-3.907c0-1.751-1.146-2.83-3.1-2.83-2.392,0-4.785,1.65-6,2.83a2.713,2.713,0,0,0-3.033-2.83,8.691,8.691,0,0,0-5.221,2.223l.707-1.786h-4.75l-3.85,9.516c-2.513,3.368-6.287,5.314-9.181,5.314-1.348,0-3.268-.5-3.268-2.506,0-.128.007-.268.02-.42a18.371,18.371,0,0,0,2.091.125,9.337,9.337,0,0,0,6.4-2.056,6.7,6.7,0,0,0,1.868-2.452,8.5,8.5,0,0,0,.742-4.2.036.036,0,0,1,0-.011v0c-.337-2.528-2.331-3.742-5.329-3.742-5.452,0-8.852,5.407-9.895,9.875-.646.911-2.416,3.316-3.775,4.012l-.032.017c-1.384.743-1.77-.252-1.783-.267-2.1-2.268,9.7-28.462,10.223-28.583h-4.614c-1.932,3.252-5.805,12.969-7.474,18.038-1.2,3.65-2.026,6.434-2.026,6.434l-.005,0a.031.031,0,0,0,0,.014h0c-.2.284-2.4,3.523-4.013,4.348l-.031.017c-1.386.743-1.781-.246-1.784-.267-.062-.415-.587-1.226.757-5.3a84.344,84.344,0,0,1,2.98-7.9h-4.52c-.193.43-.4.91-.6,1.428a.138.138,0,0,0-.011-.015c-2.674-3.049-7.125-1.937-9.809.5a11.528,11.528,0,0,0-2.823,3.832,10.267,10.267,0,0,0-.807,2.5c-2.426,4.15-6.064,6.589-9.306,6.589-1.348,0-3.268-.5-3.268-2.506,0-2.338,2.317-9,5.349-9,1.077,0,2.305.357.836,4.2h4.329c1.862-5.409-.375-7.958-4.721-7.958-5.474,0-8.878,5.451-9.906,9.93-.678.951-2.406,3.275-3.736,3.956l-.031.017c-1.385.743-1.781-.246-1.783-.267-.064-.415-.588-1.226.755-5.3a80.234,80.234,0,0,1,2.883-7.685l-4.422-.216a60.752,60.752,0,0,0-2.869,8.161h0c-5.778,8.145-6.55,6.416-6.387,4.8a7.877,7.877,0,0,1,.589-1.871c.547-1.385,2.039-4.789,2.039-4.789a11.082,11.082,0,0,0,1.078-3.907c0-1.751-1.144-2.83-3.1-2.83-2.391,0-4.784,1.65-6,2.83a2.712,2.712,0,0,0-3.032-2.83A8.7,8.7,0,0,0,72.386,42.4l.708-1.786H68.343L61.268,58.1h4.75l4.188-10.347a6.338,6.338,0,0,1,2.681-3.125,3.717,3.717,0,0,1,1.723-.576c.506,0,.876.269.876.674a16.269,16.269,0,0,1-1.179,3.436C73.5,50.218,71.038,56.247,70.3,58.1h4.784L79.25,47.768a6.318,6.318,0,0,1,2.688-3.131,3.774,3.774,0,0,1,1.734-.586c.506,0,.91.269.91.708a17.607,17.607,0,0,1-1.18,3.4l-.808,1.954c-2.393,6-.876,8.423,2.358,8.423,2.412,0,4.544-1.489,6.464-3.755a5.183,5.183,0,0,0,.065.7,3.533,3.533,0,0,0,1.925,2.657,4.188,4.188,0,0,0,1.846.394,6.721,6.721,0,0,0,1.5-.183,7.106,7.106,0,0,0,2.548-1.25,14.876,14.876,0,0,0,2.351-2.234c2,5.254,11.684,4.969,16.726-1.579a6.569,6.569,0,0,0,4.206,4.93,6.247,6.247,0,0,0,6.372-1.561,3.364,3.364,0,0,0,1.526,1.484,4.188,4.188,0,0,0,1.846.394,6.722,6.722,0,0,0,1.5-.183,7.1,7.1,0,0,0,2.547-1.25,12.95,12.95,0,0,0,1.894-1.726c0,.038.01.074.018.109a3.531,3.531,0,0,0,1.924,2.657,4.184,4.184,0,0,0,1.845.394,6.727,6.727,0,0,0,1.5-.183,7.112,7.112,0,0,0,2.548-1.25,15.2,15.2,0,0,0,2.4-2.282c1.69,4.185,8.66,4.882,13.9,1.762l-.614,1.515h4.75l4.188-10.347a6.337,6.337,0,0,1,2.68-3.125,3.718,3.718,0,0,1,1.723-.576c.506,0,.876.269.876.674a16.282,16.282,0,0,1-1.179,3.436c-.809,2.056-3.268,8.085-4.009,9.938H175.6l4.169-10.332a6.308,6.308,0,0,1,2.687-3.131,3.774,3.774,0,0,1,1.735-.586c.505,0,.909.269.909.708a17.606,17.606,0,0,1-1.18,3.4l-.808,1.954c-2.393,6-.876,8.423,2.358,8.423,2.34,0,4.415-1.4,6.29-3.557,1.769,3.964,8.4,4.66,13.532,1.779l-.071.179-.124.3-.075.189-.2.485-.074.185h4.785l4.167-10.332a6.321,6.321,0,0,1,2.688-3.131,3.832,3.832,0,0,1,1.716-.586h.019c.505,0,.909.269.909.708a17.564,17.564,0,0,1-1.18,3.4l-.807,1.954c-1.818,4.555-1.38,7.05.353,7.985a4.184,4.184,0,0,0,2,.438,7.93,7.93,0,0,0,5.551-2.755c.07-.071.137-.157.207-.231a3.52,3.52,0,0,0,1.906,2.592,4.192,4.192,0,0,0,1.846.394,6.718,6.718,0,0,0,1.5-.183,7.1,7.1,0,0,0,2.548-1.25c2.114-1.483,4.893-5.437,5.015-5.6l-2.409-1.8c-.137.184-2.38,3.521-4.022,4.36l-.032.017c-1.385.743-1.77-.252-1.784-.267-1.074-1.16,1.194-8.586,3.848-15.578Zm-45.333,7.135c1.13-.926,2.7-1.39,3.486-.646s.612,2.283-.364,3.372a6.314,6.314,0,0,1-5.013,1.74.327.327,0,0,1-.3-.4,7.671,7.671,0,0,1,2.189-4.068m-43.189,0c1.13-.926,2.7-1.39,3.486-.646s.611,2.283-.364,3.372a6.316,6.316,0,0,1-5.013,1.74.327.327,0,0,1-.3-.4,7.671,7.671,0,0,1,2.189-4.068M130.323,46.01a50.69,50.69,0,0,0-1.392,5.074,5.292,5.292,0,0,1-1.509,2.75,4.724,4.724,0,0,1-.527.43c-1.453.99-3.33.791-4.091-.879a2.819,2.819,0,0,1-.216-.611,7.625,7.625,0,0,1,1.031-5.794,3.8,3.8,0,0,1,.228-.348c.072-.1.159-.25.239-.339a8.554,8.554,0,0,1,1.438-1.47,4.226,4.226,0,0,1,3.225-1.047,2.689,2.689,0,0,1,1.113.6,1.536,1.536,0,0,1,.46,1.639" transform="translate(-25.161 -10.362)"/><path class="a" d="M125.2,44.253l1.463-3.879L125.4,40.3q-1.485-.085-3.042-.169l-1.539,3.88c1.5.078,2.953.16,4.357.239Z" transform="translate(-49.619 -16.482)"/><path class="a" d="M50.587,26.809c6.12.073,12.142.3,17.692.575l1.434-3.89c-5.929-.3-12.446-.563-19.088-.641h-.015c-3.545-.016-6.631.01-9.383.084L49.948,0,46.934.365c-5.3.641-11.3,1.368-15.821,5.19-5.124,4.267-7.8,11.119-10.168,17.163,0,0-.835,2.212-1.107,2.98a64.458,64.458,0,0,0-8.046,2.893l-.051.024a29.75,29.75,0,0,0-7.83,4.977c-2.971,2.786-4.26,5.9-3.83,9.262l0,.015A7.366,7.366,0,0,0,7.328,49.3h.181c3.4-.158,6.359-1.9,8.805-5.191a34.629,34.629,0,0,0,4.3-8.579c.578-1.589,1.128-3.207,1.661-4.771.2-.583.4-1.173.6-1.764a72.36,72.36,0,0,1,12.512-1.831l-7.822,20.58H31.8l7.906-20.8c3.284-.118,6.87-.148,10.879-.13M16.9,34.164a31,31,0,0,1-3.762,7.579c-1.719,2.31-3.611,3.488-5.784,3.6H7.329a3.409,3.409,0,0,1-3.325-3c-.26-2.055.594-3.974,2.613-5.867a25.89,25.89,0,0,1,6.772-4.266c1.641-.71,3.247-1.329,4.85-1.871-.434,1.272-.879,2.567-1.337,3.824m11.8-10.3c-1.457.2-2.864.438-4.24.715l.164-.42c2.192-5.6,4.676-11.953,9.02-15.57l.011-.009c2.75-2.327,6.516-3.262,10.249-3.828L36.932,23.107c-3.08.165-5.735.414-8.228.757" transform="translate(0)"/><path class="a" d="M122.839,93.015h-3.968c.122,1.6.922,15.092-5.861,22.561a14.73,14.73,0,0,1-6.909,4.28c1.86-9.767.409-17.514-4.345-23.095a24.669,24.669,0,0,0-10.693-7.039,45.164,45.164,0,0,0-12.018-2.36c-2.184-.154-4.25-.179-6.091-.136L71.33,91.254c7.539-.365,20.762.253,27.421,8.08,4.154,4.883,5.213,12.006,3.168,21.228q-.427,1.936-1.041,4a25.2,25.2,0,0,0,4.225-.4,18.823,18.823,0,0,0,10.844-5.935c7.6-8.384,7.094-22.257,6.891-25.208" transform="translate(-29.293 -35.814)"/><path class="a" d="M220.428,124.3q-.157.27-.322.531c-2.478,3.886-6.643,6.151-9.771,6.151-1.347,0-3.267-.5-3.267-2.506,0-.128.006-.268.02-.42a18.35,18.35,0,0,0,2.091.126,9.329,9.329,0,0,0,6.4-2.056,6.684,6.684,0,0,0,1.868-2.452,8.488,8.488,0,0,0,.743-4.2.036.036,0,0,1,0-.011v0c-.337-2.528-2.331-3.742-5.329-3.742-5.762,0-9.238,6.043-10.055,10.631a12.555,12.555,0,0,1-3.222,3.255l-.031.017c-1.384.743-1.78-.246-1.783-.267-.064-.415-.588-1.226.756-5.3.2-.591.4-1.188.6-1.784.451-1.3.923-2.6,1.4-3.8l-4.271-.578-2.994-.406c.083-.382.29-1.332.29-1.332h-4.032a25.762,25.762,0,0,1-3.9,9.929,10.916,10.916,0,0,1-2.729,2.708c-.23.154-.457.289-.681.411a6.141,6.141,0,0,1-2.036.689,1.9,1.9,0,0,1-.985-.045,1.383,1.383,0,0,1-.739-.807,3.514,3.514,0,0,1,.01-1.842c.057-.45.136-.9.226-1.343a55.39,55.39,0,0,1,1.75-6.256c.644-1.958,1.35-3.894,2.083-5.821l10.711-.493v-2.5H183.69c.694-1.73,1.409-3.451,2.176-5.149H181.9c-.7,1.594-1.436,3.37-2.143,5.149h-4.387L174,114.165l4.528-.209c-.681,1.806-1.288,3.5-1.733,4.85-.44,1.337-.83,2.555-1.147,3.565a20.121,20.121,0,0,1-2.842,1,8.5,8.5,0,0,0-2.867-6.247l-.067-.054a6.179,6.179,0,0,0-5.262-1.205,9.874,9.874,0,0,0-6.247,5.067c-1.968,3.471-2.175,8.7,1.308,11.589a6.5,6.5,0,0,0,4.236,1.549,7.183,7.183,0,0,0,.79-.044,8.753,8.753,0,0,0,5.815-3.4,10.781,10.781,0,0,0,1.924-3.9,18.551,18.551,0,0,0,2.109-.549,17.208,17.208,0,0,0-.49,4.736c0,.038.011.074.017.108A3.533,3.533,0,0,0,176,133.681a4.188,4.188,0,0,0,1.846.393c.132,0,.268,0,.405-.014.144.006.3.01.464.01a11.423,11.423,0,0,0,6.245-1.9c3.224-2.1,5.662-5.742,7.294-10.827l2.644.358c-1.151,3.56-2.055,7.411-1.715,9.327a3.535,3.535,0,0,0,1.925,2.657,4.188,4.188,0,0,0,1.846.393,6.724,6.724,0,0,0,1.5-.183,7.108,7.108,0,0,0,2.548-1.25,13.972,13.972,0,0,0,2.131-1.986h0c1.314,2.722,4.977,3.841,8.808,3.251h.006c6.975-.711,10.586-7.4,10.586-7.4Zm-10.141-3.885c1.13-.926,2.7-1.39,3.486-.647s.612,2.283-.364,3.372a6.314,6.314,0,0,1-5.012,1.74.326.326,0,0,1-.3-.4,7.671,7.671,0,0,1,2.188-4.068m-44.273-.77a2.218,2.218,0,0,1,1.381.493,4.766,4.766,0,0,1,1.461,3.591,5.571,5.571,0,0,1-1.627-.461A4.1,4.1,0,0,1,165,119.845a3.456,3.456,0,0,1,.456-.138,2.661,2.661,0,0,1,.56-.063m1.36,8.6a4.8,4.8,0,0,1-3.113,1.883,2.624,2.624,0,0,1-2.047-.611c-1.759-1.458-1.575-4.594-.4-6.665l.05-.09c.093-.179.2-.353.306-.523a8.007,8.007,0,0,0,3.57,3.825,8.291,8.291,0,0,0,2.47.793,6.3,6.3,0,0,1-.814,1.355Z" transform="translate(-64.456 -43.378)"/><path class="a" d="M168.752,113.441l1.583,2.661h3.2l-2.762-5.761h-2.358l-7.344,5.761h4.11Z" transform="translate(-66.147 -45.314)"/><path class="a" d="M55.971,161.186l1.645,1.243,1.24-.723,2.978,2.25-.357,1.39,1.671,1.263,2.131-9.732-.528-.4Zm6.294,1.084-1.9-1.439,2.666-1.549Z" transform="translate(-22.986 -64.261)"/><path class="a" d="M81.471,171.314a1.8,1.8,0,1,1-3.159-1.685l2.564-4.806-1.656-.883-2.564,4.806a3.443,3.443,0,0,0,1.456,4.97,3.5,3.5,0,0,0,4.977-1.538l2.564-4.806-1.618-.863Z" transform="translate(-31.266 -67.326)"/><path class="a" d="M96.577,173.861l2.222.872-2.648,6.748,1.748.685,2.647-6.747,2.222.872.619-1.576L97.2,172.285Z" transform="translate(-39.487 -70.753)"/><path class="a" d="M116.748,179.8a4.682,4.682,0,1,0,3.283,5.785,4.679,4.679,0,0,0-3.283-5.785m1.424,5.261a2.8,2.8,0,1,1-1.883-3.632,2.806,2.806,0,0,1,1.883,3.632" transform="translate(-45.485 -73.763)"/><path class="a" d="M140.927,185.07l-3.848,5.266-1.849-6.259-.716-.125L131.32,192.6l1.881.328,1.6-4.6,1.5,5.251.331.058,3.218-4.428-.088,4.864,1.9.332-.013-9.21Z" transform="translate(-53.929 -75.544)"/><path class="a" d="M161.472,187.679a4.682,4.682,0,1,0,4.339,5.042,4.679,4.679,0,0,0-4.339-5.042m-.616,7.635a2.99,2.99,0,1,1,3.03-2.749,2.8,2.8,0,0,1-3.03,2.749" transform="translate(-64.219 -77.068)"/><path class="a" d="M184.864,193.1a2.225,2.225,0,0,0,1.167-1.877c.011-1.161-1.02-2.353-3.017-2.371l-3.037-.028-.081,8.94,3.244.029c2.126.019,3.211-1.186,3.224-2.521a2.358,2.358,0,0,0-1.5-2.173m-3.058-2.643,1.107.01a1.061,1.061,0,1,1-.008,2.094l-1.117-.011Zm1.337,5.719-1.388-.012.019-2.127,1.367.012c.846.008,1.33.479,1.325,1.065s-.466,1.07-1.322,1.062" transform="translate(-73.878 -77.547)"/><rect class="a" width="1.877" height="8.94" transform="translate(116.539 111.157) rotate(-2.925)"/><path class="a" d="M211.093,194.818l-.744-7.209-1.867.193.918,8.893,5.18-.535-.174-1.684Z" transform="translate(-85.618 -77.046)"/><path class="a" d="M226.933,192.289l-.344-2.011,3.112-.532-.281-1.647-3.113.532-.315-1.839,3.786-.648-.283-1.658-5.637.964,1.506,8.813,5.808-.992-.283-1.658Z" transform="translate(-91.933 -75.764)"/><path class="a" d="M256.171,185.449a2.974,2.974,0,0,1-1.73-5.689,4.851,4.851,0,0,1,2.916.078l-.562-1.848a5.673,5.673,0,0,0-2.819.131,4.686,4.686,0,1,0,2.713,8.963,5.473,5.473,0,0,0,2.422-1.473l-.562-1.848a4.823,4.823,0,0,1-2.379,1.687" transform="translate(-102.855 -73.046)"/><path class="a" d="M272.034,180.335l-2.757-6.7-1.736.714,3.4,8.267,4.816-1.981-.644-1.565Z" transform="translate(-109.872 -71.306)"/><path class="a" d="M287.16,163.263l-1.609.879,2.61,4.781a1.8,1.8,0,1,1-3.142,1.716l-2.61-4.781-1.648.9,2.61,4.781a3.443,3.443,0,0,0,4.954,1.51,3.5,3.5,0,0,0,1.446-5Z" transform="translate(-115.301 -67.048)"/><path class="a" d="M306.29,158.845a2.357,2.357,0,0,0-2.521-.784,2.226,2.226,0,0,0-.24-2.2c-.708-.92-2.255-1.222-3.837,0l-2.407,1.853,5.454,7.084,2.571-1.979c1.685-1.3,1.794-2.915.981-3.973m-5.28.683-1.278-1.66.877-.675a1.061,1.061,0,1,1,1.286,1.652Zm3.3,2.015-1.1.847-1.3-1.685,1.083-.834a1.151,1.151,0,0,1,1.7.02,1.133,1.133,0,0,1-.385,1.652" transform="translate(-122.087 -63.677)"/></g></svg>