<svg xmlns="http://www.w3.org/2000/svg" xmlns:xlink="http://www.w3.org/1999/xlink" width="26.366" height="26.366" viewBox="0 0 26.366 26.366">
  <defs>
    <clipPath id="clip-path">
      <rect id="Rectangle_875" data-name="Rectangle 875" width="26.366" height="26.366" transform="translate(0 0)" fill="none" stroke="#1e1e21" stroke-width="1"/>
    </clipPath>
  </defs>
  <g id="Groupe_2763" data-name="Groupe 2763" transform="translate(-1228 -748.817)">
    <g id="Groupe_2484" data-name="Groupe 2484" transform="translate(1228 748.817)">
      <g id="Groupe_2483" data-name="Groupe 2483" clip-path="url(#clip-path)">
        <path id="Tracé_1918" data-name="Tracé 1918" d="M25.866,13.183c0,1.584-2.239,2.712-2.81,4.089-.592,1.428.171,3.8-.905,4.879s-3.451.313-4.879.905c-1.377.571-2.5,2.81-4.089,2.81s-2.711-2.239-4.089-2.81c-1.428-.592-3.8.171-4.879-.905S3.9,18.7,3.31,17.272C2.739,15.894.5,14.767.5,13.183s2.239-2.712,2.81-4.089c.592-1.428-.171-3.8.905-4.879S7.666,3.9,9.094,3.31C10.472,2.739,11.6.5,13.183.5S15.9,2.739,17.272,3.31c1.428.592,3.8-.171,4.879.905s.313,3.451.905,4.879C23.627,10.472,25.866,11.6,25.866,13.183Z" fill="none" stroke="#1e1e21" stroke-width="1"/>
      </g>
    </g>
    <g id="LOGO" transform="translate(1304.206 985.959)">
      <path id="Tracé_2089" data-name="Tracé 2089" d="M14.334,4.417c-1.371-.069-2.507-.108-3.581-.12-.624,0-1.159,0-1.634.012L10.757,0l-.7.086a5.481,5.481,0,0,0-3.007.99,7.755,7.755,0,0,0-1.93,3.251s-.132.349-.194.518a12.127,12.127,0,0,0-1.488.54,5.637,5.637,0,0,0-1.489.947A2.057,2.057,0,0,0,1.2,8.142,1.469,1.469,0,0,0,2.645,9.42h.038A2.24,2.24,0,0,0,4.4,8.413a6.564,6.564,0,0,0,.818-1.629c.108-.3.212-.6.311-.9l.1-.287a13.363,13.363,0,0,1,2.152-.32L5.681,10.794c-.549.018-1.18.027-1.978.023-1-.012-2.08-.047-3.311-.108l-.062,0L0,11.6l.116.006c1.345.068,2.516.108,3.581.12.622,0,1.159,0,1.634-.012l-1.638,4.31.7-.086A5.471,5.471,0,0,0,7.4,14.947,7.759,7.759,0,0,0,9.333,11.7s.132-.35.194-.518a12.127,12.127,0,0,0,1.488-.54A5.662,5.662,0,0,0,12.5,9.693a2.057,2.057,0,0,0,.742-1.811A1.469,1.469,0,0,0,11.8,6.605h-.038a2.24,2.24,0,0,0-1.713,1.007,6.538,6.538,0,0,0-.818,1.629c-.107.295-.21.6-.311.9l-.1.287a13.388,13.388,0,0,1-2.152.32L8.769,5.231c.549-.02,1.18-.027,1.978-.023,1,.012,2.08.047,3.311.108l.062,0,.331-.9-.116-.006ZM9.366,1.1,8.13,4.346c-.544.03-1.034.077-1.494.14-.219.03-.437.066-.648.105A6.96,6.96,0,0,1,7.632,1.772,3.6,3.6,0,0,1,9.366,1.1ZM5.084,14.926,6.32,11.676c.544-.03,1.032-.077,1.494-.14h0c.219-.03.436-.066.648-.105A6.926,6.926,0,0,1,6.818,14.25a3.61,3.61,0,0,1-1.734.675ZM4.552,5.921c-.063.185-.128.37-.194.55a5.761,5.761,0,0,1-.693,1.4,1.362,1.362,0,0,1-1.02.64.557.557,0,0,1-.54-.487A1.188,1.188,0,0,1,2.568,7a4.778,4.778,0,0,1,1.244-.783c.251-.108.494-.2.738-.292ZM9.9,10.1c.063-.185.128-.37.194-.55a5.8,5.8,0,0,1,.693-1.4,1.362,1.362,0,0,1,1.02-.64.557.557,0,0,1,.54.487,1.189,1.189,0,0,1-.463,1.026,4.778,4.778,0,0,1-1.244.783c-.251.108-.494.2-.738.292Z" transform="translate(-70.248 -232)" fill="#1e1e21"/>
    </g>
  </g>
</svg>
