<svg xmlns="http://www.w3.org/2000/svg" width="19.196" height="19.196" viewBox="0 0 19.196 19.196">
  <g id="Groupe_2492" data-name="Groupe 2492" transform="translate(-195.9 5.8)">
    <g id="Icon-Share-Google" transform="translate(195.9 -5.8)">
      <path id="Fill-61" d="M-268.934-349.368a3.147,3.147,0,0,1-3.166-3.166,3.147,3.147,0,0,1,3.166-3.166,3.147,3.147,0,0,1,3.166,3.166,3.173,3.173,0,0,1-3.166,3.166Zm0-5.17a1.967,1.967,0,0,0-1.964,1.964,1.967,1.967,0,0,0,1.964,1.964,1.967,1.967,0,0,0,1.964-1.964,1.993,1.993,0,0,0-1.964-1.964Z" transform="translate(272.1 362.152)" fill="#1e1e21"/>
      <path id="Fill-62" d="M-236.834-365.468A3.147,3.147,0,0,1-240-368.634a3.147,3.147,0,0,1,3.166-3.166,3.147,3.147,0,0,1,3.166,3.166,3.173,3.173,0,0,1-3.166,3.166Zm0-5.13a1.967,1.967,0,0,0-1.964,1.964,1.967,1.967,0,0,0,1.964,1.964,1.967,1.967,0,0,0,1.964-1.964,1.967,1.967,0,0,0-1.964-1.964Z" transform="translate(252.864 371.8)" fill="#1e1e21"/>
      <path id="Fill-63" d="M-236.834-333.368A3.147,3.147,0,0,1-240-336.534a3.147,3.147,0,0,1,3.166-3.166,3.147,3.147,0,0,1,3.166,3.166,3.173,3.173,0,0,1-3.166,3.166Zm0-5.13a1.967,1.967,0,0,0-1.964,1.964,1.967,1.967,0,0,0,1.964,1.964,1.967,1.967,0,0,0,1.964-1.964,1.967,1.967,0,0,0-1.964-1.964Z" transform="translate(252.864 352.564)" fill="#1e1e21"/>
      <path id="Fill-64" d="M-250.944-341.11l-8.256-4.128.561-1.162,8.3,4.128-.6,1.162" transform="translate(264.37 356.579)" fill="#1e1e21"/>
      <path id="Fill-65" d="M-258.639-357.15l-.561-1.122,8.256-4.128.6,1.122-8.3,4.128" transform="translate(264.37 366.167)" fill="#1e1e21"/>
    </g>
  </g>
</svg>
