<svg xmlns="http://www.w3.org/2000/svg" width="18.6" height="18.6" viewBox="0 0 18.6 18.6"><defs><style>.a{fill:#1e1e21;}</style></defs><g transform="translate(-3.4 -4.8)"><path class="a" d="M20.2,16.7A4.8,4.8,0,1,0,25,21.5,4.809,4.809,0,0,0,20.2,16.7Zm0,7.875A3.075,3.075,0,1,1,23.275,21.5,3.089,3.089,0,0,1,20.2,24.575Z" transform="translate(-7.5 -7.438)"/><circle class="a" cx="1.087" cy="1.087" r="1.087" transform="translate(16.6 8.063)"/><path class="a" d="M20.5,6.337A5.341,5.341,0,0,0,16.563,4.8H8.837A5.137,5.137,0,0,0,3.4,10.237v7.688a5.4,5.4,0,0,0,1.575,4.012,5.473,5.473,0,0,0,3.9,1.463h7.65a5.537,5.537,0,0,0,3.938-1.463A5.369,5.369,0,0,0,22,17.962V10.237A5.376,5.376,0,0,0,20.5,6.337Zm-.15,11.625A3.664,3.664,0,0,1,19.262,20.7a3.876,3.876,0,0,1-2.738.975H8.875A3.876,3.876,0,0,1,6.137,20.7a3.769,3.769,0,0,1-1.012-2.775V10.237A3.738,3.738,0,0,1,6.137,7.5a3.813,3.813,0,0,1,2.738-.975H16.6a3.738,3.738,0,0,1,2.738,1.012,3.87,3.87,0,0,1,1.012,2.7v7.725Z" transform="translate(0)"/></g></svg>