<svg xmlns="http://www.w3.org/2000/svg" xmlns:xlink="http://www.w3.org/1999/xlink" width="148.054" height="81.24" viewBox="0 0 148.054 81.24"><defs><style>.a{fill:#1e1e21;}.b{clip-path:url(#a);}</style><clipPath id="a"><rect class="a" width="148.054" height="81.24"/></clipPath></defs><g class="b"><path class="a" d="M184.929,33.685V31.992h-6.453c.509-1.266,1.016-2.459,1.477-3.479h-2.677c-.472,1.077-.97,2.277-1.448,3.479h-2.964l-.928,2.291L175,34.142c-.46,1.22-.87,2.361-1.171,3.276-.813,2.466-1.369,4.347-1.369,4.347l0,0a.02.02,0,0,0,0,.009h0c-.04.162-.078.321-.114.479-3.156,4.2-3.6,3.138-3.5,2.128a1.884,1.884,0,0,1,.051-.286l1.406-3.487,0-.006c.079-.183.149-.343.2-.465l0,0,.109-.251a7.472,7.472,0,0,0,.729-2.64c0-.014,0-.028,0-.042A1.781,1.781,0,0,0,169.6,35.35l-.069-.007-.078-.007-.087,0-.123,0c-.073,0-.147,0-.22.007l-.07.006-.076.007-.073.008-.165.023c-.052.008-.1.018-.155.028-.086.017-.172.037-.256.059l-.078.021-.009,0-.115.033-.1.032-.1.033c-.074.026-.146.053-.217.081s-.131.053-.2.082a7.575,7.575,0,0,0-1.669,1.007l.448-1.134h-3.209l-2.75,6.8a8.353,8.353,0,0,1-5.9,3.223c-.911,0-2.208-.338-2.208-1.693q0-.13.014-.284a12.393,12.393,0,0,0,1.412.084,6.3,6.3,0,0,0,4.327-1.389,4.525,4.525,0,0,0,1.262-1.656,5.74,5.74,0,0,0,.5-2.84.047.047,0,0,1,0-.008v0c-.227-1.708-1.574-2.528-3.6-2.528-3.864,0-6.2,4.02-6.776,7.11-3.025,3.975-3.458,2.936-3.357,1.941a5.323,5.323,0,0,1,.4-1.264c.369-.936,1.377-3.235,1.377-3.235a7.489,7.489,0,0,0,.729-2.64,1.848,1.848,0,0,0-2.094-1.912,6.48,6.48,0,0,0-4.051,1.912,1.833,1.833,0,0,0-2.049-1.912,5.872,5.872,0,0,0-3.527,1.5l.478-1.206H133.96l-2.6,6.429a8.484,8.484,0,0,1-6.2,3.59c-.911,0-2.208-.338-2.208-1.693,0-.086,0-.181.014-.284a12.412,12.412,0,0,0,1.413.084,6.308,6.308,0,0,0,4.327-1.389,4.53,4.53,0,0,0,1.262-1.656,5.74,5.74,0,0,0,.5-2.84.025.025,0,0,1,0-.008v0c-.228-1.708-1.575-2.528-3.6-2.528-3.683,0-5.98,3.653-6.685,6.672a10.318,10.318,0,0,1-2.55,2.71l-.022.012c-.935.5-1.2-.17-1.2-.18-1.418-1.532,6.552-19.228,6.906-19.31h-3.117a91.279,91.279,0,0,0-5.05,12.186c-.813,2.466-1.369,4.347-1.369,4.347l0,0a.021.021,0,0,0,0,.009h0a11.53,11.53,0,0,1-2.711,2.937l-.021.012c-.936.5-1.2-.166-1.206-.18-.042-.28-.4-.829.511-3.579a56.982,56.982,0,0,1,2.013-5.338H109.3c-.13.29-.268.615-.408.965l-.008-.01c-1.806-2.06-4.814-1.308-6.627.336a7.788,7.788,0,0,0-1.907,2.589,6.936,6.936,0,0,0-.545,1.688c-1.639,2.8-4.1,4.451-6.287,4.451-.911,0-2.208-.339-2.208-1.693,0-1.58,1.565-6.083,3.614-6.083.728,0,1.558.241.565,2.838h2.925c1.258-3.654-.253-5.376-3.189-5.376-3.7,0-6,3.682-6.692,6.709a10.181,10.181,0,0,1-2.524,2.673l-.021.012c-.936.5-1.2-.166-1.2-.18-.043-.28-.4-.829.51-3.579a54.205,54.205,0,0,1,1.948-5.192l-2.988-.146a41.043,41.043,0,0,0-1.938,5.513h0c-3.9,5.5-4.425,4.335-4.315,3.242a5.322,5.322,0,0,1,.4-1.264c.37-.936,1.378-3.235,1.378-3.235a7.487,7.487,0,0,0,.728-2.64,1.847,1.847,0,0,0-2.093-1.912,6.482,6.482,0,0,0-4.051,1.912,1.832,1.832,0,0,0-2.048-1.912,5.874,5.874,0,0,0-3.528,1.5l.478-1.206H66.048l-4.78,11.813h3.209l2.829-6.99a4.282,4.282,0,0,1,1.811-2.111,2.511,2.511,0,0,1,1.164-.389c.342,0,.592.182.592.455a10.991,10.991,0,0,1-.8,2.322c-.546,1.389-2.208,5.462-2.709,6.714H70.6l2.816-6.98a4.269,4.269,0,0,1,1.816-2.115,2.55,2.55,0,0,1,1.172-.4c.342,0,.615.182.615.478a11.9,11.9,0,0,1-.8,2.3l-.546,1.32c-1.616,4.051-.592,5.69,1.593,5.69,1.629,0,3.07-1.006,4.367-2.537a3.5,3.5,0,0,0,.044.476,2.387,2.387,0,0,0,1.3,1.795,2.829,2.829,0,0,0,1.247.266,4.541,4.541,0,0,0,1.014-.124,4.8,4.8,0,0,0,1.722-.844,10.05,10.05,0,0,0,1.589-1.509c1.35,3.549,7.894,3.357,11.3-1.067a4.438,4.438,0,0,0,2.842,3.33A4.22,4.22,0,0,0,107,46.465a2.273,2.273,0,0,0,1.031,1,2.829,2.829,0,0,0,1.247.266,4.541,4.541,0,0,0,1.014-.124,4.8,4.8,0,0,0,1.721-.844A8.748,8.748,0,0,0,113.29,45.6c0,.025.007.05.012.074a2.386,2.386,0,0,0,1.3,1.795,2.826,2.826,0,0,0,1.247.266,4.545,4.545,0,0,0,1.014-.124,4.805,4.805,0,0,0,1.721-.844,10.266,10.266,0,0,0,1.618-1.542c1.142,2.828,5.85,3.3,9.392,1.19l-.415,1.024h3.209l2.83-6.99a4.281,4.281,0,0,1,1.811-2.111,2.512,2.512,0,0,1,1.164-.389c.342,0,.592.182.592.455a11,11,0,0,1-.8,2.322c-.546,1.389-2.208,5.462-2.709,6.714h3.232l2.816-6.98a4.262,4.262,0,0,1,1.816-2.115,2.55,2.55,0,0,1,1.172-.4c.341,0,.614.182.614.478a11.9,11.9,0,0,1-.8,2.3l-.546,1.32c-1.616,4.051-.592,5.69,1.593,5.69a5.835,5.835,0,0,0,4.249-2.4c1.195,2.678,5.672,3.149,9.142,1.2l-.048.121-.084.2-.051.127-.132.328-.05.125h3.232l2.815-6.98a4.27,4.27,0,0,1,1.816-2.115,2.589,2.589,0,0,1,1.159-.4h.013c.341,0,.614.182.614.478a11.866,11.866,0,0,1-.8,2.3l-.545,1.32c-1.228,3.077-.932,4.763.238,5.394a2.827,2.827,0,0,0,1.354.3,5.358,5.358,0,0,0,3.751-1.861c.047-.048.093-.106.14-.156a2.378,2.378,0,0,0,1.288,1.751,2.832,2.832,0,0,0,1.247.266,4.539,4.539,0,0,0,1.014-.124,4.8,4.8,0,0,0,1.721-.844,20.051,20.051,0,0,0,3.388-3.784l-1.627-1.216c-.093.125-1.608,2.379-2.717,2.946l-.021.012c-.936.5-1.2-.17-1.205-.18-.725-.784.807-5.8,2.6-10.524ZM154.3,38.5c.763-.626,1.827-.939,2.355-.437a1.714,1.714,0,0,1-.246,2.278,4.266,4.266,0,0,1-3.387,1.175.221.221,0,0,1-.2-.268A5.183,5.183,0,0,1,154.3,38.5m-29.178,0c.764-.626,1.827-.939,2.355-.437a1.715,1.715,0,0,1-.246,2.278,4.267,4.267,0,0,1-3.387,1.175.221.221,0,0,1-.2-.268,5.183,5.183,0,0,1,1.479-2.748m-17.2.764a34.248,34.248,0,0,0-.94,3.428,3.575,3.575,0,0,1-1.02,1.858,3.19,3.19,0,0,1-.356.29,1.783,1.783,0,0,1-2.764-.594,1.9,1.9,0,0,1-.146-.412,5.151,5.151,0,0,1,.7-3.914,2.568,2.568,0,0,1,.154-.235c.049-.066.107-.169.162-.229a5.779,5.779,0,0,1,.971-.993,2.855,2.855,0,0,1,2.179-.708,1.817,1.817,0,0,1,.752.4,1.038,1.038,0,0,1,.311,1.107" transform="translate(-36.875 -15.186)"/><path class="a" d="M123.78,42.917l.989-2.621-.85-.048q-1-.057-2.055-.114l-1.04,2.621c1.011.053,1.995.108,2.943.161Z" transform="translate(-72.718 -24.155)"/><path class="a" d="M34.176,18.111c4.135.049,8.2.2,11.953.389l.969-2.628c-4.006-.2-8.408-.38-12.9-.433h-.01c-2.4-.011-4.479.007-6.339.057L33.744,0,31.708.246C28.13.68,24.075,1.171,21.02,3.753c-3.461,2.883-5.272,7.512-6.869,11.6,0,0-.564,1.494-.748,2.013a43.547,43.547,0,0,0-5.436,1.954l-.034.016a20.1,20.1,0,0,0-5.29,3.363A7.136,7.136,0,0,0,.055,28.952l0,.01A4.976,4.976,0,0,0,4.951,33.3h.122A7.783,7.783,0,0,0,11.021,29.8,23.4,23.4,0,0,0,13.928,24c.39-1.074.762-2.166,1.122-3.223.134-.394.27-.793.407-1.192a48.886,48.886,0,0,1,8.453-1.237l-5.285,13.9h2.86L26.827,18.2c2.219-.08,4.642-.1,7.35-.088M11.419,23.081A20.945,20.945,0,0,1,8.877,28.2,5.194,5.194,0,0,1,4.97,30.632H4.951a2.3,2.3,0,0,1-2.246-2.025A4.567,4.567,0,0,1,4.47,24.643a17.491,17.491,0,0,1,4.575-2.882c1.109-.48,2.194-.9,3.276-1.264-.293.86-.594,1.734-.9,2.583m7.974-6.958c-.984.136-1.935.3-2.864.483l.111-.284C18.12,12.537,19.8,8.246,22.733,5.8L22.74,5.8c1.858-1.572,4.4-2.2,6.924-2.586l-4.714,12.4c-2.081.111-3.875.279-5.558.512" transform="translate(0)"/><path class="a" d="M106.129,91.131h-2.681c.082,1.083.623,10.2-3.96,15.242a9.951,9.951,0,0,1-4.667,2.891c1.257-6.6.276-11.832-2.935-15.6a16.666,16.666,0,0,0-7.224-4.755,30.512,30.512,0,0,0-8.119-1.594c-1.476-.1-2.871-.121-4.115-.092l-1.1,2.721c5.093-.246,14.027.171,18.525,5.459,2.806,3.3,3.522,8.111,2.14,14.341q-.288,1.308-.7,2.7a17.024,17.024,0,0,0,2.855-.27,12.716,12.716,0,0,0,7.326-4.01c5.136-5.664,4.793-15.037,4.655-17.03" transform="translate(-42.931 -52.487)"/><path class="a" d="M199.836,118.242q-.106.182-.218.359c-1.674,2.625-4.488,4.155-6.6,4.155-.91,0-2.207-.338-2.207-1.693,0-.086,0-.181.014-.284a12.4,12.4,0,0,0,1.413.085,6.3,6.3,0,0,0,4.326-1.389,4.515,4.515,0,0,0,1.262-1.656,5.734,5.734,0,0,0,.5-2.84.024.024,0,0,1,0-.008v0c-.228-1.708-1.575-2.528-3.6-2.528-3.893,0-6.241,4.083-6.793,7.182a8.482,8.482,0,0,1-2.177,2.2l-.021.012c-.935.5-1.2-.166-1.2-.18-.043-.28-.4-.829.511-3.579.132-.4.268-.8.408-1.205.3-.88.624-1.756.945-2.568l-2.885-.39-2.023-.274c.056-.258.2-.9.2-.9h-2.724a17.4,17.4,0,0,1-2.634,6.708,7.375,7.375,0,0,1-1.844,1.829c-.156.1-.309.2-.46.278a4.148,4.148,0,0,1-1.376.465,1.281,1.281,0,0,1-.666-.031.934.934,0,0,1-.5-.545,2.374,2.374,0,0,1,.007-1.245c.038-.3.092-.607.153-.907a37.419,37.419,0,0,1,1.182-4.227c.435-1.323.912-2.631,1.407-3.932l7.236-.333V109.1h-6.446c.469-1.169.952-2.332,1.47-3.479H173.81c-.472,1.077-.97,2.277-1.448,3.479H169.4l-.928,2.291,3.059-.141c-.46,1.22-.87,2.362-1.171,3.276s-.561,1.726-.775,2.408a13.6,13.6,0,0,1-1.92.679,5.744,5.744,0,0,0-1.937-4.221l-.045-.037a4.175,4.175,0,0,0-3.555-.814,6.671,6.671,0,0,0-4.221,3.423c-1.329,2.345-1.469,5.881.884,7.829a4.39,4.39,0,0,0,2.862,1.047,4.853,4.853,0,0,0,.534-.03,5.914,5.914,0,0,0,3.928-2.3,7.284,7.284,0,0,0,1.3-2.638,12.532,12.532,0,0,0,1.425-.371,11.626,11.626,0,0,0-.331,3.2c0,.025.007.05.012.073a2.387,2.387,0,0,0,1.3,1.8,2.829,2.829,0,0,0,1.247.266c.089,0,.181,0,.274-.01s.2.007.313.007a7.717,7.717,0,0,0,4.219-1.287c2.178-1.419,3.825-3.879,4.928-7.314l1.786.242c-.778,2.405-1.388,5.007-1.159,6.3a2.388,2.388,0,0,0,1.3,1.8,2.829,2.829,0,0,0,1.247.266,4.542,4.542,0,0,0,1.014-.123,4.8,4.8,0,0,0,1.721-.844,9.44,9.44,0,0,0,1.44-1.342h0c.888,1.839,3.363,2.6,5.95,2.2h0c4.712-.48,7.151-5,7.151-5Zm-6.851-2.625c.763-.626,1.827-.939,2.355-.437a1.714,1.714,0,0,1-.246,2.278,4.266,4.266,0,0,1-3.386,1.175.221.221,0,0,1-.2-.268,5.182,5.182,0,0,1,1.478-2.748m-29.91-.52a1.5,1.5,0,0,1,.933.333,3.22,3.22,0,0,1,.987,2.426,3.764,3.764,0,0,1-1.1-.312,2.771,2.771,0,0,1-1.508-2.312,2.333,2.333,0,0,1,.308-.093,1.8,1.8,0,0,1,.379-.043m.919,5.809a3.241,3.241,0,0,1-2.1,1.272,1.773,1.773,0,0,1-1.383-.413c-1.188-.985-1.064-3.1-.267-4.5l.034-.061c.063-.121.132-.238.207-.353a5.41,5.41,0,0,0,2.412,2.584,5.6,5.6,0,0,0,1.669.536,4.254,4.254,0,0,1-.55.916Z" transform="translate(-94.463 -63.572)"/><path class="a" d="M166.26,112.435l1.07,1.8h2.162l-1.866-3.892h-1.593l-4.962,3.892h2.777Z" transform="translate(-96.942 -66.41)"/><path class="a" d="M55.971,159.659l1.111.84.838-.488,2.012,1.52-.241.939,1.129.853,1.44-6.575-.357-.27Zm4.252.732-1.287-.972,1.8-1.046Z" transform="translate(-33.687 -94.177)"/><path class="a" d="M79.739,168.922a1.217,1.217,0,1,1-2.134-1.138l1.732-3.247-1.119-.6-1.732,3.247a2.326,2.326,0,0,0,.984,3.358,2.364,2.364,0,0,0,3.362-1.039l1.732-3.247-1.093-.583Z" transform="translate(-45.822 -98.669)"/><path class="a" d="M96.439,173.35l1.5.589L96.152,178.5l1.181.463,1.788-4.558,1.5.589.418-1.065-4.183-1.641Z" transform="translate(-57.87 -103.691)"/><path class="a" d="M114.8,179.738a3.163,3.163,0,1,0,2.218,3.909,3.161,3.161,0,0,0-2.218-3.909m.962,3.554a1.892,1.892,0,1,1-1.272-2.454,1.9,1.9,0,0,1,1.272,2.454" transform="translate(-66.66 -108.103)"/><path class="a" d="M137.811,184.707l-2.6,3.557-1.249-4.229-.484-.084L131.32,189.8l1.271.222,1.078-3.109,1.011,3.547.224.039,2.174-2.992-.06,3.286,1.285.224-.009-6.222Z" transform="translate(-79.036 -110.712)"/><path class="a" d="M159.818,187.674a3.163,3.163,0,1,0,2.931,3.406,3.161,3.161,0,0,0-2.931-3.406m-.416,5.158a2.02,2.02,0,1,1,2.047-1.857,1.894,1.894,0,0,1-2.047,1.857" transform="translate(-94.116 -112.946)"/><path class="a" d="M183.252,191.718a1.5,1.5,0,0,0,.788-1.268c.007-.784-.689-1.59-2.038-1.6l-2.052-.019-.055,6.039,2.192.02c1.437.013,2.169-.8,2.178-1.7a1.593,1.593,0,0,0-1.013-1.468m-2.066-1.785.748.007a.717.717,0,1,1-.006,1.415l-.755-.007Zm.9,3.864-.938-.008.013-1.437.924.008c.572.006.9.323.9.719s-.315.723-.893.717" transform="translate(-108.271 -113.648)"/><rect class="a" width="1.268" height="6.04" transform="translate(78.732 75.096) rotate(-2.925)"/><path class="a" d="M210.246,192.479l-.5-4.87-1.261.13.62,6.008,3.5-.361-.117-1.137Z" transform="translate(-125.476 -112.914)"/><path class="a" d="M225.936,189.758,225.7,188.4l2.1-.36-.19-1.112-2.1.359-.213-1.243,2.558-.438-.191-1.12-3.808.651,1.018,5.954,3.924-.67-.192-1.12Z" transform="translate(-134.732 -111.035)"/><path class="a" d="M254.317,182.99a2.009,2.009,0,0,1-1.169-3.844,3.278,3.278,0,0,1,1.97.053l-.379-1.249a3.833,3.833,0,0,0-1.9.088,3.166,3.166,0,1,0,1.833,6.055,3.7,3.7,0,0,0,1.636-1l-.379-1.249a3.258,3.258,0,0,1-1.607,1.14" transform="translate(-150.739 -107.053)"/><path class="a" d="M270.577,178.16l-1.862-4.528-1.173.483,2.3,5.585,3.254-1.338-.435-1.057Z" transform="translate(-161.022 -104.502)"/><path class="a" d="M285.084,163.263l-1.087.594,1.763,3.23a1.217,1.217,0,1,1-2.123,1.159l-1.763-3.23-1.113.608,1.763,3.23a2.326,2.326,0,0,0,3.347,1.02,2.364,2.364,0,0,0,.977-3.381Z" transform="translate(-168.978 -98.261)"/><path class="a" d="M303.369,157.615a1.592,1.592,0,0,0-1.7-.53,1.5,1.5,0,0,0-.162-1.484,1.79,1.79,0,0,0-2.592,0l-1.626,1.252,3.684,4.786,1.737-1.337c1.138-.876,1.212-1.97.663-2.684m-3.567.461-.863-1.121.592-.456a.717.717,0,1,1,.869,1.116Zm2.232,1.362-.743.573-.877-1.139.732-.563a.778.778,0,0,1,1.148.014.765.765,0,0,1-.26,1.116" transform="translate(-178.923 -93.321)"/></g></svg>