<svg width="51" height="57" viewBox="0 0 51 57" fill="none" xmlns="http://www.w3.org/2000/svg">
<path d="M38.0189 18.1193C42.1204 18.1686 46.1548 18.3221 49.874 18.5048L50.8349 15.8984C46.8627 15.6964 42.4962 15.521 38.0448 15.4685H38.0351C35.6598 15.458 33.5917 15.4757 31.7483 15.5258L37.5906 0.156006L35.5709 0.400882C32.0222 0.830022 28.0008 1.31654 24.9701 3.87845C21.537 6.73777 19.7421 11.3282 18.1572 15.3788C18.1572 15.3788 17.598 16.8609 17.4153 17.3749C15.6171 17.8849 13.8521 18.5226 12.024 19.3138L11.9901 19.3291C9.72394 20.387 8.00819 21.4788 6.7434 22.6644C4.75206 24.5313 3.88893 26.6196 4.17664 28.8712L4.17826 28.8809C4.51284 31.3499 6.59227 33.1885 9.03214 33.1885C9.05962 33.1885 9.0871 33.1885 9.11458 33.1877L9.15418 33.1869C11.43 33.081 13.4149 31.9107 15.0538 29.7085C16.3938 27.9087 17.2973 25.6935 17.9366 23.9599C18.3237 22.8948 18.693 21.811 19.0494 20.7628C19.1828 20.3725 19.3178 19.9773 19.4527 19.5813C22.0542 18.9412 24.756 18.5646 27.8375 18.3545L20.1057 38.7059C17.9051 38.7859 15.5024 38.8053 12.816 38.7932C8.71534 38.7439 4.68013 38.5903 0.960918 38.4077L0 41.0148C3.97298 41.2161 8.33954 41.3914 12.7901 41.444H12.7998C15.1759 41.4545 17.2432 41.4367 19.0874 41.3866L13.2443 56.7564L15.264 56.5124C18.8135 56.0824 22.8341 55.5959 25.8648 53.034C29.2979 50.1747 31.0937 45.5842 32.6777 41.5337C32.6777 41.5337 33.2377 40.0523 33.4204 39.5375C35.2178 39.0275 36.9836 38.3899 38.8117 37.5987L38.8457 37.5833C41.111 36.5246 42.8275 35.4336 44.0923 34.248C46.0828 32.3811 46.946 30.2936 46.6583 28.042L46.6566 28.0315C46.3221 25.5625 44.2426 23.724 41.8028 23.724C41.7753 23.724 41.7478 23.724 41.7211 23.7248L41.6815 23.7256C39.4049 23.8322 37.42 25.0017 35.7811 27.2039C34.4419 29.0046 33.5384 31.2198 32.8983 32.9525C32.5112 34.0177 32.1427 35.1014 31.7855 36.1496C31.6521 36.54 31.5179 36.9352 31.3822 37.332C28.7807 37.9712 26.0798 38.3478 22.9982 38.5588L30.7292 18.2066C32.9306 18.1265 35.3333 18.1071 38.0189 18.1193ZM15.4474 23.0475C14.872 24.6097 14.0646 26.597 12.9275 28.1261C11.7759 29.6745 10.5079 30.4633 9.05154 30.5377H9.03295C7.91767 30.5377 6.96322 29.681 6.80563 28.5294C6.63106 27.1522 7.20406 25.8664 8.55613 24.5984C9.60999 23.6092 11.0954 22.6733 13.094 21.7391C14.1939 21.2639 15.2696 20.8485 16.3437 20.4856C16.0527 21.3382 15.7545 22.2054 15.4474 23.0475ZM35.3875 33.8649C35.9629 32.3027 36.7703 30.3154 37.9082 28.7864C39.0598 27.2379 40.3278 26.4491 41.7842 26.3748H41.802C42.9172 26.3748 43.8717 27.2314 44.0301 28.3831C44.2038 29.7602 43.6317 31.046 42.2788 32.314C41.2249 33.3032 39.7395 34.2391 37.7409 35.1733C36.6418 35.6485 35.5653 36.0639 34.492 36.4268C34.7822 35.5742 35.0804 34.707 35.3875 33.8649ZM27.4787 40.7659C28.455 40.6309 29.3981 40.4725 30.3194 40.2867L30.2095 40.5687C28.7411 44.3227 27.077 48.5777 24.166 51.0014L24.1579 51.0071C22.3153 52.566 19.7922 53.1924 17.2909 53.5722L21.9661 41.2734C24.0302 41.1627 25.809 40.9962 27.4787 40.7659ZM23.3562 16.1465C22.3799 16.2815 21.4376 16.4399 20.5155 16.6258L20.6254 16.3445C22.0938 12.5898 23.7587 8.33472 26.6697 5.91182L26.677 5.90535C28.5196 4.34638 31.0427 3.72005 33.544 3.34021L28.8696 15.639C26.8055 15.7497 25.0259 15.9162 23.3562 16.1465Z" fill="#1E1E21"/>
</svg>
