<svg width="19" height="19" viewBox="0 0 19 19" fill="none" xmlns="http://www.w3.org/2000/svg">
<path d="M9.3 4.66254C6.675 4.66254 4.5 6.80004 4.5 9.46254C4.5 12.125 6.6375 14.2625 9.3 14.2625C11.9625 14.2625 14.1 12.0875 14.1 9.46254C14.1 6.83754 11.925 4.66254 9.3 4.66254ZM9.3 12.5375C7.6125 12.5375 6.225 11.15 6.225 9.46254C6.225 7.77504 7.6125 6.38754 9.3 6.38754C10.9875 6.38754 12.375 7.77504 12.375 9.46254C12.375 11.15 10.9875 12.5375 9.3 12.5375Z" fill="#1E1E21"/>
<circle cx="14.2875" cy="4.55002" r="1.0875" fill="#1E1E21"/>
<path d="M17.1 1.73751C16.125 0.725012 14.7375 0.200012 13.1625 0.200012H5.4375C2.175 0.200012 0 2.37501 0 5.63751V13.325C0 14.9375 0.525 16.325 1.575 17.3375C2.5875 18.3125 3.9375 18.8 5.475 18.8H13.125C14.7375 18.8 16.0875 18.275 17.0625 17.3375C18.075 16.3625 18.6 14.975 18.6 13.3625V5.63751C18.6 4.06251 18.075 2.71251 17.1 1.73751ZM16.95 13.3625C16.95 14.525 16.5375 15.4625 15.8625 16.1C15.1875 16.7375 14.25 17.075 13.125 17.075H5.475C4.35 17.075 3.4125 16.7375 2.7375 16.1C2.0625 15.425 1.725 14.4875 1.725 13.325V5.63751C1.725 4.51251 2.0625 3.57501 2.7375 2.90001C3.375 2.26251 4.35 1.92501 5.475 1.92501H13.2C14.325 1.92501 15.2625 2.26251 15.9375 2.93751C16.575 3.61251 16.95 4.55001 16.95 5.63751V13.3625Z" fill="#1E1E21"/>
</svg>
