<svg id="Jaguar" xmlns="http://www.w3.org/2000/svg" width="142.433" height="61.424" viewBox="0 0 142.433 61.424">
  <g id="Layer_1" transform="translate(0 0)">
    <g id="Groupe_2231" data-name="Groupe 2231" transform="translate(0)">
      <path id="Tracé_1894" data-name="Tracé 1894" d="M503.02,410.907a4.453,4.453,0,0,0,1.888-.489,2.365,2.365,0,0,0,.541-.3c-.446-.009-1.184-.017-1.459-.017a2.286,2.286,0,0,0-1.8.721c-.017.034.154.06.412.069a2.912,2.912,0,0,0,.412.017" transform="translate(-475.754 -410.1)" fill="#1e1e21"/>
      <path id="Tracé_1895" data-name="Tracé 1895" d="M356.446,424.072a9.708,9.708,0,0,0,.73,1.279,2.656,2.656,0,0,0,2.437,1.141c.515-.086.524-.24.524-.24a2.351,2.351,0,0,0,1.545.566,12.19,12.19,0,0,1-.592-1.553,2.615,2.615,0,0,1,.077-.953,4.13,4.13,0,0,1,.867-1.6,1.5,1.5,0,0,1,1.8-.232,3.053,3.053,0,0,1,.635,3.321c-.034.12-.609,1.356-1.219,1.536a.474.474,0,0,1-.172.026,3.625,3.625,0,0,1-1.193-.438,1.644,1.644,0,0,0,.086.566c.069.249.172.524.24.747,0,0-.163.266-.24.421-.137.172-.292.772.034,1.013a6.465,6.465,0,0,0,2.7,1,1.33,1.33,0,0,0,1.262-.558,15.258,15.258,0,0,1,1.888-2.352,10.453,10.453,0,0,1,4.669-2.249c.18-.017,3.158-.858,8.248,3.193-1.459.1-3.184.463-4.5.687-3.751.678-6.162,4.188-6.849,5.63a3.419,3.419,0,0,0,1.9,5.038,6.9,6.9,0,0,0,5.252-4.025,1.814,1.814,0,0,1,2.266-1.133c1.1.352,10.642,3.682,12.788,4.24,0,0,6.394,1.656,8.814-1.27,3.836,1.262,7.441,1.862,16.9.652a18.154,18.154,0,0,1,2.944-.163,6.936,6.936,0,0,1,4.832,2.626c2.5,3.956,5.647,11.835,16.616,10.891l4.961-.446c3.021-.18,5.476-.309,7.982,1.013a11.467,11.467,0,0,1,3.527,2.523c2.523,2.4,4.849,4.986,7.947,3.587a8.055,8.055,0,0,0,2.326-2.455,3.528,3.528,0,0,0-1.5-2.48c2.8.652,9.132,1.081,11.586-3.184a2.67,2.67,0,0,0,.455-2.42c-.678-1.485-2.532-1-2.532-1-.875.189-1.871,1.193-3.356,1.639a9.349,9.349,0,0,1-5.759-.154c-4.918-2.137-20.744-11.14-28.785-15.088,0,0-9.338-4.317-22.9-9.672,0,0-26.657-11.32-44.44-10.4,0,0-9.484.257-12.462,4.42a1.252,1.252,0,0,0-.223,1.2.277.277,0,0,1-.06.292,16.582,16.582,0,0,0-2.412,2.712,1.393,1.393,0,0,0,0,1.759,2.317,2.317,0,0,1,.369.386m.867-1.45a4.037,4.037,0,0,1,2.978-2.5c.257-.026,1.073-.146,1.073-.146a5.131,5.131,0,0,0,3.373-2.764,15.779,15.779,0,0,0-2.292.086c-1.51.266-2.034,2.051-2.034,2.034-1.27.309-1.253-.807-1.021-1.133.2-.309.953-1.622,5.888-2.763a25.567,25.567,0,0,1,7.63-.5l-.223.386a4.785,4.785,0,0,1-5.3,2s.034,1.339,3.3,1.8c0,0,2.969.532,7.973,4.54,0,0-2.395-4.746-6.463-5.973,0,0-.506-.094-.266-.421a9.945,9.945,0,0,1,5.75-2.412s10.951-1.056,17.027,7.286A32.068,32.068,0,0,0,391.5,417.1s6.351,1.794,16.143,5.184c0,0,6.668,2.343,10.925,4.025,5.767,2.257,20.177,7.853,29.386,12.856,1.631.884,18.263,9.518,18.263,9.518,4.6,2.068,7.793.824,7.793.824,1.038-.4,2.9-1.854,3.733-1.03a1.421,1.421,0,0,1,.283,1.545,5.478,5.478,0,0,1-2.867,2.575,14.737,14.737,0,0,1-6.5.549,11.723,11.723,0,0,1-6.626-3.579c-.987-1.013-2.189-2.163-3.287-3.313a6.206,6.206,0,0,0-3.69-1.965c-2.068-.283-7.158-.421-9.054-1.047-1.279-.429-2.824-1.287-4.858-4.308a8.108,8.108,0,0,0-3.038-2.695,7.648,7.648,0,0,1,1.613,1.837c.832,1.5,1.279,2.592,1.734,3.373a6.986,6.986,0,0,0,1.751,2.137,4.618,4.618,0,0,0,2.618,1.1c1.013.163,4.4.137,7.321.094a6.761,6.761,0,0,1,5.089,1.674c.867.729,2.36,2.832,3.287,3.742a13.378,13.378,0,0,0,4.068,3.3c.747.378,1.974,1.3,1.914,2.206-.978.961-2.18,1.227-5.072.455a4.189,4.189,0,0,0,4.308,1.038,3.334,3.334,0,0,1-2.36.875c-2.712-.146-5.373-3.484-6.857-4.7a32.487,32.487,0,0,0-3.193-2.506c-2.927-2.008-9.484-1.442-9.484-1.442l-4.832.257c-9.381.7-13.32-7.587-14.367-9.32a15.091,15.091,0,0,0-.987-1.476c-.481-.635-3.055-3.939-5.639-5.038,0,0,2.549,2.2,2.412,3.639,0,0-1.064-.472-3.939-.069-12.341,1.742-16.547-1.33-16.547-1.33.566-2.489-1.167-5-1.167-5,.961.292,7.029,2.352,12.8,1.176,0,0-9.389.06-15.972-5.167,0,0,4.094,5.107,3.115,8.462,0,0-.669,3.562-7.819,2.137-.755-.154-1.656-.4-12.341-3.364-2.515-.738-3.381.455-3.836,1.167a4.253,4.253,0,0,1-1.9,2.669c-3.3-.592-1.991-3.648-1.991-3.648-2.077,2.961.077,4.274.781,4.36a8.179,8.179,0,0,1-1.124.472s-2.712-1.6-1.193-4.231c2.111-3.673,4.257-4.849,8.2-5.2a20.566,20.566,0,0,1,4.24-.137c2.858.386,4.66,2,8.917,2.42-9.054-2.678-9.08-7.9-9.106-8.007v-.017a6.814,6.814,0,0,0,.223,4.411c-.129-.051-2.12-1.339-2.875-1.811a16.525,16.525,0,0,0-5.827-2.317c-1.064-.146-1.588-1.442-1.588-1.442a.983.983,0,0,0-.1-.189c-1.493-2.575-3-2.6-3-2.6a5.191,5.191,0,0,1,.875,2.738c.438,3.175-3.176,4.154-3.176,4.154-2.214,2.8-2.1,2.858-2.583,2.935a4.226,4.226,0,0,1-1.579-.481.465.465,0,0,1,.077-.532,9.955,9.955,0,0,0,.755-.652c2.343-2.386,2.618-3.553,2.326-5.089-.584-3.107-2.815-2.738-2.815-2.738a1.912,1.912,0,0,0-1.519.978c-.36.575-1.15,2.334-1.15,2.334-.481,1.047-.987,1.27-1.236,1.313a1.91,1.91,0,0,1-.378.009,2.033,2.033,0,0,1-1.322-.712.513.513,0,0,1-.094-.1,1.58,1.58,0,0,1-.206-1.7m3.562-3.33s.086-.292.112-.36c.043-.06.309-.807.987-.875,0,0,.386-.026,1-.026a1.856,1.856,0,0,1-1.468,1.15,3.831,3.831,0,0,1-.626.12" transform="translate(-341.907 -413.009)" fill="#1e1e21"/>
      <path id="Tracé_1896" data-name="Tracé 1896" d="M211.013,999.318a4.868,4.868,0,0,0,1.262-3.708V990.1h-4.223v5.167a4.27,4.27,0,0,1-1.073,3.244c-.97.961-2.583,1.356-4.978,1.356h-7.8v1.511h8.471c4.017,0,6.849-.541,8.342-2.06" transform="translate(-194.2 -940.322)" fill="#1e1e21"/>
      <path id="Tracé_1897" data-name="Tracé 1897" d="M1302.9,999.074l2.077,2.4h4.729l-9.827-11.277h-4.154l-9.827,11.277h2.446l2.077-2.4H1302.9Zm-6.257-7.235,4.995,5.767h-9.973Z" transform="translate(-1192.206 -940.414)" fill="#1e1e21"/>
      <path id="Tracé_1898" data-name="Tracé 1898" d="M446.179,1001.377h4.729L441.081,990.1h-4.162l-9.818,11.277h2.446l2.06-2.394h12.5Zm-13.3-3.853,4.969-5.776,4.995,5.776Z" transform="translate(-407.112 -940.322)" fill="#1e1e21"/>
      <path id="Tracé_1899" data-name="Tracé 1899" d="M1625.438,996.545a3.066,3.066,0,0,0,1.571-2.8,3.349,3.349,0,0,0-1.9-3c-1.107-.481-2.455-.644-5.149-.644H1606.9v11.277h4.206v-3.914h5.527l6.325,3.914h5.132l-6.617-4a9.028,9.028,0,0,0,3.957-.832m-14.315-.5v-4.54h8.308c1.579,0,2.274.137,2.764.506a1.881,1.881,0,0,1,.618,1.682v.215a1.887,1.887,0,0,1-.712,1.7,4.646,4.646,0,0,1-2.609.438h-8.368Z" transform="translate(-1485.657 -940.322)" fill="#1e1e21"/>
      <path id="Tracé_1900" data-name="Tracé 1900" d="M1021.209,990.1v5.621a5.531,5.531,0,0,0,.884,3.553c1.2,1.579,3.407,2.472,9.492,2.472h.077c6.119,0,8.316-.893,9.5-2.472a5.467,5.467,0,0,0,.9-3.562V990.1h-4.214v5.458a4.939,4.939,0,0,1-.738,3.081c-.9,1.279-2.343,1.742-5.313,1.742h-.36c-2.823,0-4.394-.463-5.312-1.742a4.923,4.923,0,0,1-.721-3.081V990.1h-4.2Z" transform="translate(-950.224 -940.322)" fill="#1e1e21"/>
      <path id="Tracé_1901" data-name="Tracé 1901" d="M732.807,991.593h10.513V990.1H731.485c-2.867,0-4.583.326-6.111,1.176a5.162,5.162,0,0,0,.738,9.286,14.8,14.8,0,0,0,5.441.815h12.2v-5.184h-4.205v3.673h-6.72c-2.188,0-3.45-.318-4.386-1.03a4.252,4.252,0,0,1-.086-6.145c.953-.755,2.18-1.107,4.437-1.107" transform="translate(-677.434 -940.322)" fill="#1e1e21"/>
    </g>
  </g>
</svg>
