<?xml version="1.0" encoding="UTF-8"?>
<svg id="Calque_2" data-name="Calque 2" xmlns="http://www.w3.org/2000/svg" viewBox="0 0 371.86 204.05">
  <defs>
    <style>
      .cls-1 {
        fill: #212125;
      }
    </style>
  </defs>
  <g id="LOGO">
    <g>
      <g>
        <g>
          <path class="cls-1" d="M371.86,46.46v-4.25h-16.21c1.28-3.18,2.55-6.18,3.71-8.74h-6.72c-1.19,2.7-2.44,5.72-3.64,8.74h-7.44l-2.33,5.75,7.68-.35c-1.16,3.06-2.18,5.93-2.94,8.23-2.04,6.19-3.44,10.92-3.44,10.92h0s0,.01,0,.02c0,0,0,0,0,0-.1.41-.2.81-.29,1.2-7.93,10.54-9.04,7.88-8.79,5.34.02-.23.07-.47.13-.72l3.53-8.76v-.02c.21-.46.38-.86.52-1.17,0,0,0,0,0-.01.17-.4.27-.63.27-.63,1.2-2.92,1.83-4.97,1.83-6.63,0-.04,0-.07,0-.11-.04-2.63-1.63-4.34-4.36-4.64-.06,0-.12-.01-.17-.02-.07,0-.13-.01-.2-.02-.07,0-.15,0-.22-.01-.1,0-.2,0-.31,0-.18,0-.37,0-.55.02-.06,0-.12,0-.18.01-.06,0-.13,0-.19.02-.06,0-.12.01-.18.02-.14.02-.28.04-.41.06-.13.02-.26.05-.39.07-.22.04-.43.09-.64.15-.07.02-.13.03-.2.05,0,0-.02,0-.02,0-.1.03-.19.06-.29.08-.08.03-.17.05-.25.08-.08.03-.17.06-.25.08-.18.06-.36.13-.54.2h0s0,0,0,0c-.17.07-.33.13-.49.2-1.58.68-3.03,1.61-4.19,2.53l1.13-2.85h-8.06l-6.91,17.07c-4.24,5.13-10.19,8.09-14.82,8.09-2.29,0-5.54-.85-5.54-4.25,0-.22.01-.45.03-.71,1.08.12,2.28.21,3.55.21,3.7,0,7.91-.75,10.87-3.49,0,0,1.85-1.34,3.17-4.16.83-1.78,1.45-4.14,1.26-7.13,0,0,0-.01,0-.02h0c-.57-4.29-3.95-6.35-9.04-6.35-9.71,0-15.58,10.1-17.02,17.86-7.6,9.98-8.68,7.37-8.43,4.87.1-1.01.63-2.23,1-3.18.93-2.35,3.46-8.13,3.46-8.13,1.2-2.92,1.83-4.97,1.83-6.63,0-2.97-1.94-4.8-5.26-4.8-4.06,0-8.12,2.8-10.18,4.8.06-2.92-1.94-4.8-5.15-4.8-3.94,0-7.72,2.69-8.86,3.77l1.2-3.03h-8.06l-6.53,16.15c-4.26,5.72-10.67,9.02-15.58,9.02-2.29,0-5.54-.85-5.54-4.25,0-.22.01-.45.03-.71,1.08.12,2.28.21,3.55.21,3.7,0,7.91-.75,10.87-3.49,0,0,1.85-1.34,3.17-4.16.83-1.78,1.45-4.14,1.26-7.13,0,0,0-.01,0-.02h0c-.57-4.29-3.95-6.35-9.04-6.35-9.25,0-15.02,9.18-16.79,16.76-1.1,1.54-4.1,5.63-6.41,6.81l-.05.03c-2.35,1.26-3-.43-3.03-.45-3.56-3.85,16.46-48.3,17.35-48.5h-7.83c-3.28,5.52-9.85,22.01-12.68,30.61-2.04,6.19-3.44,10.92-3.44,10.92h0s0,.01,0,.02c0,0,0,0,0,0-.35.48-4.07,5.98-6.81,7.38l-.05.03c-2.35,1.26-3.02-.42-3.03-.45-.11-.7-1-2.08,1.28-8.99,1.55-4.7,3.35-9.65,5.06-13.41h-7.67c-.33.73-.67,1.54-1.03,2.42,0,0-.01-.02-.02-.02-4.54-5.17-12.09-3.29-16.64.84-2.02,1.8-3.68,4.04-4.79,6.5-.62,1.3-1.08,2.74-1.37,4.24-4.12,7.04-10.29,11.18-15.79,11.18-2.29,0-5.55-.85-5.55-4.25,0-3.97,3.93-15.28,9.08-15.28,1.83,0,3.91.6,1.42,7.13h7.35c3.16-9.18-.64-13.5-8.01-13.5-9.29,0-15.07,9.25-16.81,16.85-1.15,1.61-4.08,5.56-6.34,6.71l-.05.03c-2.35,1.26-3.02-.42-3.03-.45-.11-.7-1-2.08,1.28-8.99,1.55-4.7,3.18-9.28,4.89-13.04l-7.5-.37c-1.55,3.45-3.49,8.8-4.87,13.85h0c-9.8,13.82-11.11,10.89-10.84,8.14.1-1.01.63-2.23,1-3.18.93-2.35,3.46-8.13,3.46-8.13,1.2-2.92,1.83-4.97,1.83-6.63,0-2.97-1.94-4.8-5.26-4.8-4.06,0-8.12,2.8-10.18,4.8.06-2.92-1.94-4.8-5.15-4.8-3.94,0-7.72,2.69-8.86,3.77l1.2-3.03h-8.06l-12.01,29.67h8.06l7.11-17.56c.9-2.22,2.48-4.11,4.55-5.3,1.15-.66,2.18-.98,2.92-.98.86,0,1.49.46,1.49,1.14,0,.91-.97,3.26-2,5.83-1.37,3.49-5.54,13.72-6.8,16.86h8.12l7.07-17.53c.9-2.22,2.48-4.12,4.56-5.31,1.16-.67,2.2-.99,2.94-.99.86,0,1.54.46,1.54,1.2,0,.86-.97,3.14-2,5.77l-1.37,3.32c-4.06,10.18-1.49,14.29,4,14.29,4.09,0,7.71-2.53,10.97-6.37.01.43.05.84.11,1.2.37,2.07,1.53,3.67,3.27,4.51.92.44,1.97.67,3.13.67.8,0,1.65-.1,2.55-.31,1.91-.44,3.31-1.41,4.32-2.12,1.27-.89,2.69-2.32,3.99-3.79,3.39,8.91,19.83,8.43,28.38-2.68.9,3.74,3.16,6.98,7.14,8.36,3.79,1.33,8.09.1,10.81-2.65.58,1.1,1.46,1.97,2.59,2.52.92.44,1.97.67,3.13.67.8,0,1.65-.1,2.55-.31,1.91-.44,3.31-1.41,4.32-2.12,1.02-.72,2.14-1.78,3.21-2.93,0,.06.02.12.03.18.37,2.07,1.53,3.67,3.27,4.51.92.44,1.97.67,3.13.67.8,0,1.65-.1,2.55-.31,1.91-.44,3.31-1.41,4.32-2.12,1.3-.91,2.74-2.37,4.06-3.87,2.87,7.1,14.7,8.28,23.59,2.99l-1.04,2.57h8.06l7.11-17.56c.9-2.22,2.48-4.11,4.55-5.3,1.15-.66,2.18-.98,2.92-.98.86,0,1.49.46,1.49,1.14,0,.91-.97,3.26-2,5.83-1.37,3.49-5.54,13.72-6.8,16.86h8.12l7.07-17.53c.9-2.22,2.48-4.12,4.56-5.31,1.16-.67,2.2-.99,2.94-.99.86,0,1.54.46,1.54,1.2,0,.86-.97,3.14-2,5.77l-1.37,3.32c-4.06,10.18-1.49,14.29,4,14.29,3.97,0,7.49-2.38,10.67-6.04,3,6.73,14.25,7.91,22.96,3.02l-.12.3c-.07.18-.14.35-.21.51l-.13.32-.33.82-.13.31h8.12l7.07-17.53c.9-2.22,2.48-4.12,4.56-5.31,1.14-.66,2.17-.98,2.91-.99h.03c.86,0,1.54.46,1.54,1.2,0,.86-.97,3.14-2,5.77l-1.37,3.32c-3.08,7.73-2.34,11.96.6,13.55.93.5,2.08.74,3.4.74,3.45,0,6.57-1.8,9.42-4.67.12-.12.23-.27.35-.39.39,2.01,1.53,3.57,3.23,4.4.92.44,1.97.67,3.13.67.8,0,1.65-.1,2.55-.31,1.91-.44,3.31-1.41,4.32-2.12,3.59-2.52,8.3-9.22,8.51-9.5l-4.09-3.06c-.23.31-4.04,5.97-6.82,7.4l-.05.03c-2.35,1.26-3-.43-3.03-.45-1.82-1.97,2.03-14.57,6.53-26.43l18.19-.84ZM294.94,58.57c1.92-1.57,4.59-2.36,5.92-1.1,1.33,1.26,1.04,3.87-.62,5.72-2.69,3-6.92,3.05-8.51,2.95-.34-.02-.58-.34-.51-.67.31-1.41,1.3-4.92,3.71-6.9ZM221.65,58.57c1.92-1.57,4.59-2.36,5.92-1.1,1.33,1.26,1.04,3.87-.62,5.72-2.69,3-6.92,3.05-8.51,2.95-.34-.02-.58-.34-.51-.67.31-1.41,1.3-4.92,3.71-6.9ZM178.44,60.49c-.94,2.88-1.79,5.89-2.36,8.61-.38,1.77-1.25,3.42-2.56,4.67-.28.26-.57.5-.89.73-2.47,1.68-5.65,1.34-6.94-1.49-.15-.33-.29-.68-.37-1.04-.86-3.22-.04-6.98,1.75-9.83.1-.18.26-.43.39-.59.12-.16.27-.42.4-.58.7-.91,1.54-1.78,2.44-2.5,1.52-1.18,3.6-2.17,5.47-1.78.74.19,1.35.55,1.89,1.01.8.69,1.1,1.78.78,2.78Z"/>
          <path class="cls-1" d="M128.25,47.12l2.48-6.58-2.14-.12c-1.68-.1-3.4-.19-5.16-.29l-2.61,6.58c2.54.13,5.01.27,7.39.4h.03Z"/>
          <path class="cls-1" d="M85.84,45.49c10.38.12,20.6.51,30.02.98l2.43-6.6c-10.06-.51-21.12-.96-32.39-1.09h-.02c-6.02-.03-11.25.02-15.92.14L84.75,0l-5.11.62c-8.99,1.09-19.17,2.32-26.85,8.81-8.69,7.24-13.24,18.87-17.25,29.12,0,0-1.42,3.75-1.88,5.06-4.55,1.29-9.02,2.91-13.65,4.91l-.09.04c-5.74,2.68-10.08,5.44-13.29,8.45C1.59,61.73-.59,67.02.14,72.72v.02c.85,6.25,6.12,10.91,12.3,10.91.07,0,.14,0,.21,0h.1c5.76-.27,10.79-3.23,14.94-8.81,3.39-4.56,5.68-10.17,7.3-14.56.98-2.7,1.91-5.44,2.82-8.09.34-.99.68-1.99,1.02-2.99,6.59-1.62,13.43-2.57,21.23-3.11l-13.27,34.92h7.18l13.41-35.29c5.57-.2,11.66-.25,18.46-.22ZM28.68,57.97c-1.46,3.95-3.5,8.99-6.38,12.86-2.92,3.92-6.13,5.92-9.82,6.11h-.05c-2.82,0-5.24-2.17-5.64-5.09-.44-3.49,1.01-6.74,4.43-9.96,2.67-2.5,6.43-4.87,11.49-7.24,2.78-1.2,5.51-2.26,8.23-3.17-.74,2.16-1.49,4.36-2.27,6.49ZM48.71,40.49c-2.47.34-4.86.74-7.19,1.21l.28-.71c3.72-9.51,7.93-20.28,15.31-26.42l.02-.02c4.67-3.95,11.06-5.53,17.39-6.5l-11.84,31.14c-5.23.28-9.73.7-13.96,1.28Z"/>
        </g>
        <g>
          <path class="cls-1" d="M158.73,97.06h-6.73c.21,2.72,1.56,25.61-9.95,38.28-3.16,3.48-7.09,5.91-11.72,7.26,3.16-16.57.69-29.72-7.37-39.19-4.43-5.2-10.53-9.22-18.14-11.94-5.93-2.12-12.79-3.47-20.39-4-3.71-.26-7.21-.3-10.33-.23l-2.76,6.83c12.79-.62,35.23.43,46.53,13.71,7.05,8.28,8.84,20.37,5.38,36.02-.48,2.19-1.07,4.45-1.77,6.78,2.5-.03,4.9-.26,7.17-.68,7.39-1.35,13.55-4.72,18.4-10.07,12.9-14.23,12.04-37.77,11.69-42.77Z"/>
          <path class="cls-1" d="M264.66,137.31c-.18.3-.36.61-.55.9-4.21,6.59-11.27,10.44-16.58,10.44-2.29,0-5.54-.85-5.54-4.25,0-.22.01-.45.03-.71,1.08.12,2.28.21,3.55.21,3.7,0,7.91-.75,10.87-3.49,0,0,1.85-1.34,3.17-4.16.83-1.78,1.45-4.14,1.26-7.13,0,0,0-.01,0-.02h0c-.57-4.29-3.95-6.35-9.04-6.35-9.78,0-15.68,10.25-17.06,18.04-1.41,1.87-3.65,4.6-5.47,5.52l-.05.03c-2.35,1.26-3.02-.42-3.03-.45-.11-.7-1-2.08,1.28-8.99.33-1,.67-2.02,1.02-3.03.77-2.21,1.57-4.41,2.37-6.45l-7.25-.98-5.08-.69c.14-.65.49-2.26.49-2.26h-6.84c-1.45,7.13-3.7,12.83-6.62,16.85-1.39,1.92-2.94,3.46-4.63,4.59-.39.26-.78.49-1.16.7-1.07.58-2.18.97-3.46,1.17-.56.09-1.15.13-1.67-.08-.59-.24-1.02-.78-1.25-1.37-.42-1.09-.12-2.03.02-3.13.1-.76.23-1.52.38-2.28.73-3.6,1.82-7.13,2.97-10.62,1.09-3.32,2.29-6.61,3.53-9.88l18.18-.84v-4.25h-16.19c1.18-2.93,2.39-5.86,3.69-8.74h-6.72c-1.19,2.7-2.44,5.72-3.64,8.74h-7.44l-2.33,5.75,7.68-.35c-1.16,3.06-2.18,5.93-2.94,8.23-.75,2.27-1.41,4.33-1.95,6.05-1.7.74-3.31,1.31-4.82,1.71-.18-4.31-1.88-8.05-4.86-10.6l-.11-.09c-2.61-2.04-5.7-2.74-8.93-2.04-4.19.91-8.35,4.28-10.6,8.6-3.34,5.89-3.69,14.77,2.22,19.67,2.07,1.73,4.53,2.63,7.19,2.63.44,0,.89-.02,1.34-.07,3.73-.41,7.41-2.57,9.87-5.76,1.51-1.9,2.61-4.19,3.26-6.63,1.15-.23,2.34-.54,3.58-.93-.45,2.08-1.11,5.73-.83,8.04,0,.06.02.12.03.18.37,2.07,1.53,3.67,3.27,4.51.92.45,1.97.67,3.13.67.22,0,.45,0,.69-.02.24.01.51.02.79.02,2.53,0,6.48-.55,10.6-3.23,5.47-3.57,9.61-9.74,12.38-18.37l4.49.61c-1.95,6.04-3.49,12.57-2.91,15.83.37,2.07,1.53,3.67,3.27,4.51.92.45,1.97.67,3.13.67.8,0,1.65-.1,2.55-.31,1.91-.44,3.31-1.41,4.32-2.12,1.15-.81,2.42-2.05,3.62-3.37,0,0,0,0,0,0,2.23,4.62,8.45,6.52,14.95,5.52,0,0,0,0,0,0,11.83-1.21,17.96-12.55,17.96-12.55l-3.57-3.75ZM247.45,130.72c1.92-1.57,4.59-2.36,5.92-1.1,1.33,1.26,1.04,3.87-.62,5.72-2.69,3-6.92,3.05-8.51,2.95-.34-.02-.58-.34-.51-.67.31-1.41,1.3-4.92,3.71-6.9ZM172.33,129.41c.84,0,1.61.27,2.34.84,1.69,1.47,2.44,3.73,2.48,6.09-1.01-.14-1.94-.39-2.76-.78-2.99-1.42-3.64-4.33-3.79-5.81.26-.1.52-.18.77-.23.33-.07.65-.11.95-.11ZM174.64,144c-1.34,1.76-3.37,2.98-5.28,3.2-1.31.15-2.47-.2-3.47-1.04-2.99-2.47-2.67-7.8-.67-11.31l.08-.15c.16-.3.33-.6.52-.89.98,2.12,2.78,4.79,6.06,6.49,1.29.67,2.69,1.1,4.19,1.35-.38.84-.84,1.62-1.38,2.3l-.04.06Z"/>
          <polygon class="cls-1" points="174.11 115.6 176.79 120.12 182.22 120.12 177.54 110.34 173.53 110.34 161.07 120.12 168.05 120.12 174.11 115.6"/>
        </g>
      </g>
      <g>
        <path class="cls-1" d="M49.75,162.56l2.93,2.21,2.21-1.29,5.3,4-.63,2.47,2.97,2.25,3.79-17.31-.94-.71-15.62,8.38ZM60.95,164.48l-3.39-2.56,4.74-2.75-1.35,5.31Z"/>
        <path class="cls-1" d="M80.38,175.12c-1.1,2.06-2.86,2.52-4.51,1.64-1.67-.89-2.2-2.6-1.11-4.64l4.56-8.55-2.95-1.57-4.56,8.55c-1.97,3.7-.66,7.11,2.59,8.84,3.24,1.73,6.91.91,8.85-2.74l4.56-8.55-2.88-1.54-4.56,8.55Z"/>
        <polygon class="cls-1" points="92.63 173.55 96.58 175.1 91.88 187.11 94.98 188.33 99.69 176.32 103.65 177.88 104.75 175.07 93.73 170.75 92.63 173.55"/>
        <path class="cls-1" d="M117.84,178.76c-4.46-1.26-9.08,1.25-10.34,5.73-1.26,4.48,1.36,9.05,5.82,10.3,4.48,1.26,9.1-1.26,10.36-5.74,1.26-4.48-1.36-9.03-5.84-10.29ZM120.38,188.12c-.85,3.03-3.54,4.52-6.23,3.76-2.67-.75-4.19-3.43-3.33-6.46.85-3.03,3.54-4.52,6.22-3.76,2.69.76,4.21,3.43,3.35,6.46Z"/>
        <polygon class="cls-1" points="145.83 184.97 138.99 194.34 135.7 183.2 134.42 182.98 128.74 198.37 132.09 198.95 134.93 190.77 137.59 200.11 138.18 200.21 143.9 192.33 143.74 200.98 147.13 201.57 147.11 185.19 145.83 184.97"/>
        <path class="cls-1" d="M164.07,186.9c-4.62-.37-8.66,2.98-9.04,7.62-.37,4.64,3.08,8.61,7.7,8.99,4.64.37,8.68-3,9.06-7.63.37-4.64-3.08-8.59-7.72-8.97ZM162.98,200.48c-2.77-.22-4.77-2.55-4.52-5.69.25-3.14,2.6-5.11,5.37-4.89,2.79.22,4.79,2.56,4.54,5.69-.25,3.14-2.6,5.11-5.39,4.89Z"/>
        <path class="cls-1" d="M188.5,195.7c.7-.5,2.06-1.37,2.08-3.34.02-2.06-1.81-4.19-5.37-4.22l-5.4-.05-.14,15.9,5.77.05c3.78.03,5.71-2.11,5.73-4.48.02-2.2-1.55-3.35-2.67-3.87ZM183.06,191l1.97.02c1.37.01,2.19.87,2.18,1.87,0,1.04-.87,1.86-2.2,1.85l-1.99-.02.03-3.72ZM185.44,201.17l-2.47-.02.03-3.78,2.43.02c1.51.01,2.37.85,2.36,1.89,0,1.06-.83,1.9-2.35,1.89Z"/>
        <rect class="cls-1" x="198.78" y="187.78" width="3.34" height="15.9" transform="translate(-9.73 10.48) rotate(-2.92)"/>
        <polygon class="cls-1" points="214.28 199.64 212.95 186.81 209.63 187.16 211.26 202.98 220.48 202.02 220.17 199.03 214.28 199.64"/>
        <polygon class="cls-1" points="231.22 197.42 230.61 193.84 236.14 192.9 235.64 189.97 230.11 190.91 229.55 187.64 236.28 186.49 235.78 183.54 225.75 185.26 228.43 200.93 238.76 199.17 238.26 196.22 231.22 197.42"/>
        <path class="cls-1" d="M263.8,190.09c-2.94.89-5.6-.56-6.51-3.55-.91-2.99.49-5.68,3.43-6.57,1.81-.55,3.72-.37,5.19.14l-1-3.29c-1.04-.23-2.89-.41-5.01.23-4.71,1.43-7.27,5.94-5.89,10.49,1.4,4.6,5.99,6.89,10.72,5.46,2.2-.67,3.56-1.83,4.31-2.62l-1-3.29c-.94,1.23-2.4,2.45-4.23,3Z"/>
        <polygon class="cls-1" points="279.54 184.09 274.63 172.16 271.54 173.43 277.59 188.14 286.16 184.62 285.01 181.83 279.54 184.09"/>
        <path class="cls-1" d="M296.79,161.29l-2.86,1.56,4.64,8.5c1.12,2.05.54,3.77-1.1,4.67-1.66.91-3.38.42-4.49-1.62l-4.64-8.5-2.93,1.6,4.64,8.5c2.01,3.68,5.58,4.45,8.81,2.69,3.22-1.76,4.55-5.28,2.57-8.9l-4.64-8.5Z"/>
        <path class="cls-1" d="M318.74,159.43c-1.34-1.74-3.29-1.68-4.48-1.39.24-.82.77-2.35-.43-3.91-1.26-1.64-4.01-2.17-6.83,0l-4.28,3.3,9.7,12.6,4.57-3.52c3-2.31,3.19-5.19,1.74-7.07ZM309.35,160.64l-2.27-2.95,1.56-1.2c1.09-.84,2.26-.67,2.87.13.64.83.47,2-.59,2.81l-1.58,1.21ZM315.23,164.23l-1.96,1.51-2.31-3,1.93-1.48c1.19-.92,2.39-.79,3.02.04.65.84.52,2.01-.68,2.94Z"/>
      </g>
    </g>
  </g>
</svg>