<svg xmlns="http://www.w3.org/2000/svg" width="87.972" height="87.972" viewBox="0 0 87.972 87.972">
  <g id="Lotus_Cars_New_Black" data-name="Lotus Cars New Black" transform="translate(-112.6 -37.8)">
    <path id="Tracé_1906" data-name="Tracé 1906" d="M156.586,37.8a43.986,43.986,0,1,0,43.986,43.986A43.987,43.987,0,0,0,156.586,37.8Zm0,86.119A42.109,42.109,0,1,1,198.7,81.809,42.12,42.12,0,0,1,156.586,123.919Z" transform="translate(0 0)" fill="#1e1e21"/>
    <path id="Tracé_1907" data-name="Tracé 1907" d="M279.666,147.8v-1.5h-.211a2.275,2.275,0,0,0-1.6.657l-3.66,3.66h2.651A3.467,3.467,0,0,1,279.666,147.8Z" transform="translate(-123.69 -83.047)" fill="#1e1e21"/>
    <path id="Tracé_1908" data-name="Tracé 1908" d="M306.624,172.058a2.168,2.168,0,0,0-2.158-2.158H302.8v1.5a2.283,2.283,0,0,0,.54-.258H305.1a3.422,3.422,0,0,1-2.3,1.525v1.478h1.666A2.079,2.079,0,0,0,306.624,172.058Z" transform="translate(-145.581 -101.11)" fill="#1e1e21"/>
    <path id="Tracé_1909" data-name="Tracé 1909" d="M290.7,160.335a2.224,2.224,0,0,0,1.6,2.135V158.2A2.2,2.2,0,0,0,290.7,160.335Z" transform="translate(-136.319 -92.155)" fill="#1e1e21"/>
    <path id="Tracé_1910" data-name="Tracé 1910" d="M306.624,148.458a2.168,2.168,0,0,0-2.158-2.158H302.8v1.5a3.588,3.588,0,0,1,2.3,1.525H303.34a2.283,2.283,0,0,0-.54-.258v1.5h1.666A2.128,2.128,0,0,0,306.624,148.458Z" transform="translate(-145.581 -83.047)" fill="#1e1e21"/>
    <path id="Tracé_1911" data-name="Tracé 1911" d="M217.554,128.709s-18.533-21.7-22.92-26.11l-.023-.023h0a14.3,14.3,0,0,0-20.2,0l-.023.023c-4.434,4.387-22.9,26.11-22.9,26.11a11.414,11.414,0,0,0-2.393,7.014,8.16,8.16,0,0,0,.094,1.337,11.472,11.472,0,0,0,4.856,8.07s7.788,6.076,30.544,6.076,30.38-6.076,30.38-6.076a11.444,11.444,0,0,0,4.833-7.906,10.846,10.846,0,0,0,.117-1.525A11.234,11.234,0,0,0,217.554,128.709Zm-53.088,12.809h-8.422V129.976h2.51V139.1h6.217Zm7.483.188a5.959,5.959,0,1,1,5.959-5.959A5.952,5.952,0,0,1,171.949,141.706Zm13.841-9.337v9.149h-2.51v-9.149h-3.73l.3-2.416h9.384l.3,2.416Zm-1.267-8a9.76,9.76,0,0,1-9.407-7.085l-3.425,3.425h-1.783l4.88-4.88a10.63,10.63,0,0,1-.07-1.22,9.784,9.784,0,0,1,18.838-3.707h-1.384a8.533,8.533,0,0,0-16.21,3.73v.023l5.208-5.208a3.52,3.52,0,0,1,2.463-1.009h3.144a3.4,3.4,0,0,1,3.4,3.4,3.367,3.367,0,0,1-1.431,2.768,3.367,3.367,0,0,1,1.431,2.768,3.4,3.4,0,0,1-3.4,3.4h-2.909v-2.745a3.5,3.5,0,0,1-2.792-2.792h-3.918l-1.032,1.032h0a8.528,8.528,0,0,0,16.023,2.135h1.361A9.7,9.7,0,0,1,184.523,124.369Zm17.9,12.2a5.138,5.138,0,1,1-10.275,0v-6.5h2.487v6.522h0a2.651,2.651,0,0,0,5.3,0h0v-6.616h2.487Zm11.425,3.355a3.772,3.772,0,0,1-1.572,1.29,6.043,6.043,0,0,1-2.581.469,8.283,8.283,0,0,1-2.534-.375,6.851,6.851,0,0,1-1.666-.751l.3-2.44.258.211a5.221,5.221,0,0,0,1.689.868,5.791,5.791,0,0,0,1.971.328,2.818,2.818,0,0,0,1.6-.352,1.012,1.012,0,0,0,.516-.891.923.923,0,0,0-.3-.68,2.36,2.36,0,0,0-.8-.446c-.328-.117-.751-.235-1.29-.375a17.212,17.212,0,0,1-2.064-.633,3.408,3.408,0,0,1-1.384-1.009,2.745,2.745,0,0,1-.586-1.853,3.528,3.528,0,0,1,.516-1.83,3.63,3.63,0,0,1,1.572-1.29,6,6,0,0,1,2.557-.469,8.73,8.73,0,0,1,2.064.258,6.477,6.477,0,0,1,1.783.751l-.8,2.018a5.849,5.849,0,0,0-3.05-.891,2.542,2.542,0,0,0-1.572.375,1.1,1.1,0,0,0-.516.962.932.932,0,0,0,.586.868,9.281,9.281,0,0,0,1.806.563,17.21,17.21,0,0,1,2.064.633,3.578,3.578,0,0,1,1.384.985,2.641,2.641,0,0,1,.586,1.83A3.329,3.329,0,0,1,213.847,139.923Z" transform="translate(-27.937 -46.384)" fill="#1e1e21"/>
    <circle id="Ellipse_115" data-name="Ellipse 115" cx="3.589" cy="3.589" r="3.589" transform="translate(140.423 85.751)" fill="#1e1e21"/>
  </g>
</svg>
