<svg xmlns="http://www.w3.org/2000/svg" xmlns:xlink="http://www.w3.org/1999/xlink" width="23.072" height="26.499" viewBox="0 0 23.072 26.499">
  <defs>
    <clipPath id="clip-path">
      <rect id="Rectangle_947" data-name="Rectangle 947" width="23.072" height="26.499" transform="translate(0 0)" fill="none"/>
    </clipPath>
  </defs>
  <g id="Groupe_2780" data-name="Groupe 2780" transform="translate(0 0)">
    <g id="Groupe_2779" data-name="Groupe 2779" clip-path="url(#clip-path)">
      <path id="Tracé_2091" data-name="Tracé 2091" d="M17.968,12.867V23.749a2,2,0,0,1-2,2H2.75a2,2,0,0,1-2-2V5.482a2,2,0,0,1,2-2H12.8" fill="none" stroke="#d95027" stroke-linecap="round" stroke-width="1.5"/>
      <path id="Tracé_2092" data-name="Tracé 2092" d="M22.235,3.07,9.912,17.235a.354.354,0,0,1-.118.089l-2.823,1.3a.412.412,0,0,1-.557-.485l.9-2.976a.379.379,0,0,1,.071-.129L19.708.872a.388.388,0,0,1,.547-.019l1.923,1.673A.388.388,0,0,1,22.235,3.07Z" fill="none" stroke="#d95027" stroke-width="1.5"/>
    </g>
  </g>
</svg>
