<svg id="Peugeot_2021_Years" data-name="Peugeot 2021 Years" xmlns="http://www.w3.org/2000/svg" width="80.032" height="87.972" viewBox="0 0 80.032 87.972">
  <path id="Tracé_1786" data-name="Tracé 1786" d="M376.805,98.582a234.468,234.468,0,0,1,35.472-3.418,232.075,232.075,0,0,1,43.941,3.41,2.882,2.882,0,0,1,.06.417c.179,5.05.323,10.092.238,15.143a123.673,123.673,0,0,1-1.148,15.551,77,77,0,0,1-5.229,19.437,64.857,64.857,0,0,1-24.768,29.248,65.81,65.81,0,0,1-8.383,4.608.936.936,0,0,1-.91,0c-17.736-8.485-29.784-21.936-35.668-40.786a80.488,80.488,0,0,1-2.763-12.762,130.863,130.863,0,0,1-1.131-19.564c.034-3.563.161-7.117.238-10.679C376.763,99.007,376.78,98.812,376.805,98.582Zm1.624,1.649c0,.332.008.561,0,.8-.043,1.752-.094,3.495-.145,5.246A158.109,158.109,0,0,0,378.667,124a95.991,95.991,0,0,0,1.717,11.844,65.671,65.671,0,0,0,6.139,17.328,63.473,63.473,0,0,0,29.461,27.914,1.165,1.165,0,0,0,1.1-.026,63.275,63.275,0,0,0,9.038-5.161,62.576,62.576,0,0,0,21.7-25.38,72.612,72.612,0,0,0,5.875-20.584,109.267,109.267,0,0,0,1.1-14.9c.026-4.056-.068-8.111-.119-12.176-.009-.859-.068-1.717-.1-2.627a221.754,221.754,0,0,0-76.14,0Z" transform="translate(-376.508 -95.124)" fill="#1e1e21"/>
  <path id="Tracé_1787" data-name="Tracé 1787" d="M396.6,119.681a221.479,221.479,0,0,1,76.14-.009c.034.91.094,1.769.1,2.627.051,4.056.136,8.111.119,12.176a109.277,109.277,0,0,1-1.1,14.9,72.694,72.694,0,0,1-5.875,20.584,64.132,64.132,0,0,1-30.736,30.541,1.164,1.164,0,0,1-1.1.026,63.392,63.392,0,0,1-29.461-27.914,65.671,65.671,0,0,1-6.139-17.328,95.768,95.768,0,0,1-1.718-11.844,156.123,156.123,0,0,1-.383-17.728c.051-1.752.094-3.495.145-5.246C396.607,120.242,396.6,120,396.6,119.681Zm74.72,1.258a220.766,220.766,0,0,0-73.232-.009c-.017.264-.034.476-.043.689-.051,2.134-.119,4.268-.145,6.411a149.7,149.7,0,0,0,.493,16.1,93.25,93.25,0,0,0,1.854,11.878,64.125,64.125,0,0,0,5.323,15.024,61.687,61.687,0,0,0,28.56,27.82,1.158,1.158,0,0,0,1.139-.008,63.135,63.135,0,0,0,17.2-12.176,60.624,60.624,0,0,0,15.781-27.165,95.673,95.673,0,0,0,3.205-23.535c.077-3.061.034-6.13.017-9.191C471.446,124.867,471.37,122.946,471.319,120.939Z" transform="translate(-394.678 -114.573)" fill="#fff"/>
  <path id="Tracé_1788" data-name="Tracé 1788" d="M487.432,137.049c.051,2.007.128,3.928.145,5.841.025,3.061.059,6.13-.017,9.191a96.078,96.078,0,0,1-3.205,23.535,60.624,60.624,0,0,1-15.781,27.165,62.875,62.875,0,0,1-17.2,12.176,1.157,1.157,0,0,1-1.139.008,61.646,61.646,0,0,1-28.56-27.82,64.122,64.122,0,0,1-5.323-15.024,93.5,93.5,0,0,1-1.854-11.878,147.531,147.531,0,0,1-.493-16.1c.026-2.134.094-4.268.145-6.411.009-.213.026-.425.043-.689A220.817,220.817,0,0,1,487.432,137.049Zm-32.615,66.37c.468-.825.876-1.53,1.258-2.253a5.855,5.855,0,0,1,1.462-1.794c3.478-2.865,6.947-5.748,10.441-8.6a2.606,2.606,0,0,0,.969-1.462,45.464,45.464,0,0,0,1.207-7.856,38.146,38.146,0,0,0-.136-6.462,2.733,2.733,0,0,0-.493-1.309,62.557,62.557,0,0,0-6.122-7.44,1.639,1.639,0,0,0-.995-.519c.026.2.034.374.068.536.408,1.9.825,3.792,1.216,5.7a2.154,2.154,0,0,0,.646,1.165,24.908,24.908,0,0,1,2.993,3.486,3.631,3.631,0,0,1,.68,1.93,61.585,61.585,0,0,1-.213,10.016,2.267,2.267,0,0,1-.867,1.573c-3.154,2.687-6.283,5.408-9.4,8.128a7.5,7.5,0,0,0-2.024,2.415c-.017.034-.068.043-.119.068a6.859,6.859,0,0,1-.4-4.549c.527-1.777.995-3.571,1.479-5.357.068-.247.119-.493.179-.731l-.128-.051c-.094.179-.2.357-.272.544-.621,1.428-1.25,2.84-1.845,4.277-.425,1.037-.8,2.092-1.207,3.137a2.036,2.036,0,0,0,.026,1.624c.451,1.046.859,2.117,1.292,3.171C454.587,202.969,454.672,203.131,454.817,203.42Zm-9.65-35.8c-.076.008-.153.008-.23.017.026.51.043,1.012.094,1.522.068.689.153,1.369.23,2.058a2.093,2.093,0,0,1-.323,1.42c-.323.51-.612,1.037-.944,1.547a109.885,109.885,0,0,1-7.95,10.535,3.162,3.162,0,0,0-.808,1.726c-.119,1.2-.255,2.4-.391,3.6a2.167,2.167,0,0,0,.349,1.479c.417.629.808,1.275,1.258,1.879a98.632,98.632,0,0,0,7.737,9.217,8.7,8.7,0,0,0,2.976,2.228c.374.153.731.366,1.1.544a1.916,1.916,0,0,0,.374.119c.026-.042.051-.085.077-.119a4.8,4.8,0,0,0-.689-.629,9.882,9.882,0,0,1-2.389-2.058,104,104,0,0,1-7.389-9.327c-.485-.689-.91-1.411-1.352-2.126a2.13,2.13,0,0,1-.332-1.36c.094-.859.179-1.717.289-2.568a1.884,1.884,0,0,1,.655-1.156c.774-.723,1.539-1.445,2.279-2.2,2.143-2.177,1.667-1.386,3.052-4.345,1.071-2.279,2.049-4.608,3.069-6.913a1.827,1.827,0,0,0,.2-1.19C445.813,170.2,445.481,168.908,445.167,167.616Zm4.362-14.267c.009.06.009.119.017.187.34.008.672.042,1.012.025,1.964-.068,3.92-.136,5.884-.23a4.311,4.311,0,0,1,2.015.357c.978.451,1.956.91,2.95,1.326a4.813,4.813,0,0,0,1.233.332c.816.094,1.641.085,2.449.187a3.971,3.971,0,0,1,1.411.4c1.726.969,3.435,1.99,5.135,3a2.01,2.01,0,0,0,1.326.34c-1.258-1.2-2.423-2.313-3.588-3.426a1.159,1.159,0,0,0-.272-.179c-2.721-1.539-5.45-3.061-8.3-4.362a5.1,5.1,0,0,0-1.93-.459c-1.318-.051-2.627-.128-3.945-.179a99.889,99.889,0,0,0-11.053.247,1.48,1.48,0,0,0-1.335.842,5.921,5.921,0,0,1-1.59,1.845,34.018,34.018,0,0,1-3.818,2.882,1.319,1.319,0,0,0-.689.791c.621-.349,1.165-.655,1.709-.952q3.444-1.862,6.887-3.716a4.162,4.162,0,0,1,1.913-.527c1.08-.026,2.151-.136,3.231-.145,2.721-.034,5.433-.051,8.154-.06a2.168,2.168,0,0,1,1.284.4C456.228,152.592,452.87,152.873,449.528,153.349Zm-22.965,14.089a2.706,2.706,0,0,1-.7,1.862c-.459.459-.876.961-1.292,1.454-.3.349-.323.51-.051.859.527.68,1.08,1.343,1.641,2a2.532,2.532,0,0,0,.612.383c.179-.791.349-1.479.485-2.177a.9.9,0,0,1,.8-.791c1.25-.23,2.491-.5,3.741-.74.748-.145,1.5-.272,2.347-.425-.2-.238-.323-.408-.468-.561-.451-.468-.927-.91-1.343-1.4a2.27,2.27,0,0,0-1.922-.867,13.041,13.041,0,0,1-1.394-.119.755.755,0,0,1-.042-.128c.162-.119.315-.255.485-.357a2.292,2.292,0,0,1,.425-.153l6.53-2.474a2.761,2.761,0,0,0,1.5-1.377.364.364,0,0,0-.238.077,5.169,5.169,0,0,1-2.687,1.182c-.315.06-.629.153-.944.23a1.673,1.673,0,0,1-1.131-.06,1.308,1.308,0,0,0-.68-.051c-.468.077-.927.213-1.386.315-.128.026-.255.034-.5.06a2.9,2.9,0,0,1,1.122-.825c.451-.153.884-.349,1.335-.5a.693.693,0,0,0,.561-.68c.017-.408.136-.808.179-1.216a.949.949,0,0,1,.408-.7c.536-.4,1.063-.808,1.59-1.224a.733.733,0,0,0,.374-.527c-.8.476-1.5.935-2.245,1.326a8.543,8.543,0,0,0-3.188,2.865,3.944,3.944,0,0,1-.91.893c-1.556,1.2-3.129,2.372-4.685,3.571a9.253,9.253,0,0,0-1.216,1.165.907.907,0,0,0,.281,1.471c.3-.213.612-.442.927-.663a3.1,3.1,0,0,0,1.19-1.241C426.155,167.7,426.393,167.582,426.563,167.437Zm33.491-7.576a5.136,5.136,0,0,0,2.338-.043c.561-.2,1.182-.264,1.751-.442a1.833,1.833,0,0,1,1.811.383c1.292,1.046,2.585,2.092,3.894,3.112a6.926,6.926,0,0,0,1.326.791c.859.4,1.743.757,2.61,1.131a1.35,1.35,0,0,1,.859,1.054c.034.17.094.332.119.5.255,1.794.5,3.588.774,5.382A4.994,4.994,0,0,1,475,174.86c-.655,1.258-1.3,2.534-1.973,3.784a2,2,0,0,1-.6.74,2.114,2.114,0,0,0-1.1,2.134,8.62,8.62,0,0,1-.051,1.046,1.635,1.635,0,0,0,.51-.476,48.454,48.454,0,0,0,4.574-7.737,2.056,2.056,0,0,0,.213-.74,35.335,35.335,0,0,0-.366-9.608,1.537,1.537,0,0,0-.663-1.054,59.761,59.761,0,0,0-8.817-5.161,2.109,2.109,0,0,0-1.862-.06c-1.445.629-2.891,1.241-4.336,1.862A3.1,3.1,0,0,0,460.054,159.862Zm-8.086,46.168a3.751,3.751,0,0,0-.34-1.9c-.3-.6-.544-1.224-.782-1.845-.757-1.947-1.513-3.9-2.236-5.867a3.259,3.259,0,0,1-.2-1.394c.119-1.309.264-2.619.51-3.911.655-3.452,1.377-6.9,2.066-10.339a5.413,5.413,0,0,0-.315-2.236,2.028,2.028,0,0,0-.289.527c-.4,1.046-.808,2.092-1.19,3.146-1.182,3.265-2.3,6.555-3.18,9.914a3.785,3.785,0,0,0,.2,2.627c1.632,3.741,3.512,7.355,5.51,10.917C451.8,205.792,451.892,205.911,451.969,206.03Zm-17.549-45.14.051.153c.468,0,.935.026,1.394-.008A13.887,13.887,0,0,0,439,160.72c1.318-.4,2.636-.8,3.945-1.233a1.387,1.387,0,0,0,.706-.51c.706-1.156,1.377-2.338,2.049-3.512a1.272,1.272,0,0,0,.051-.255,6.578,6.578,0,0,0-2.738.187c-1.479.587-2.942,1.224-4.387,1.888a3.189,3.189,0,0,0-.935.757,14.948,14.948,0,0,0-1.182,1.454,2.821,2.821,0,0,1-1.462,1.105A4.733,4.733,0,0,0,434.419,160.89Zm.111,10.024c-.009.043-.017.085-.026.136.187.077.383.162.57.23,1.037.374,2.075.74,3.1,1.122a1.111,1.111,0,0,1,.663,1.7,23.216,23.216,0,0,1-2.508,3.767,1.775,1.775,0,0,1-.706.527c-.927.34-1.879.621-2.823.944a.758.758,0,0,1-.825-.17c-.306-.272-.621-.544-.927-.808-.1-.085-.23-.162-.4-.281a4.5,4.5,0,0,0,.17,2.287,15.427,15.427,0,0,1,.68,2.151c.17.6.281,1.216.434,1.828.111.425.238.527.646.434a12.933,12.933,0,0,0,1.862-.536,3.534,3.534,0,0,0,.833-.655.7.7,0,0,0-.476-.051c-.5.111-1,.247-1.513.332-.451.085-.527.017-.621-.425-.128-.638-.238-1.275-.34-1.913-.1-.578-.068-.621.527-.825,1.3-.451,2.61-.9,3.92-1.335a1.312,1.312,0,0,0,.816-.587c.961-1.692,1.922-3.375,2.865-5.067a.761.761,0,0,0,.094-.553,1.664,1.664,0,0,0-1.139-1.216c-1.36-.323-2.721-.68-4.081-1A5.03,5.03,0,0,0,434.53,170.915ZM456,168.262c-.034-.213-.051-.34-.077-.459-.264-1.267-.527-2.534-.8-3.792a1.382,1.382,0,0,1,.238-1.335,6.063,6.063,0,0,0,.578-.859c1.054-1.709,1.046-1.207.57-3.418a1.178,1.178,0,0,0-.068-.247.575.575,0,0,0-.2-.247,2.387,2.387,0,0,0-1.7-.434c-1.768.383-3.546.706-5.323,1.063a1.529,1.529,0,0,0-1.275,1.479c.374.068.757.119,1.131.213a2.32,2.32,0,0,0,1.565-.162c1.088-.459,2.211-.842,3.307-1.3a1.43,1.43,0,0,1,1.182.034,1.241,1.241,0,0,1,.519,1.768q-.714.995-1.479,1.964a.877.877,0,0,0-.17.893c.417,1.292.808,2.593,1.2,3.886A1.555,1.555,0,0,0,456,168.262Zm-20.508-23.73c-1.973.136-3.877.272-5.79.4v-1.394c1.726-.136,3.418-.264,5.135-.4v-.867c-1.726.128-3.409.247-5.127.366V141.36c1.947-.145,3.852-.289,5.765-.434.017-.179.034-.306.034-.434a3.845,3.845,0,0,0-.043-.451c-2.27.17-4.489.34-6.708.51V145.9c2.27-.17,4.5-.34,6.725-.51C435.491,145.093,435.491,144.863,435.491,144.532Zm18.017-.451c-1.59,0-3.1.009-4.608-.008-.476,0-.655-.2-.663-.68-.017-.672-.008-1.335,0-2.007,0-.791.1-.9.893-.91,1.42-.008,2.848,0,4.268.009h.706v-.842a3.171,3.171,0,0,0-.349-.034c-1.556-.008-3.1-.017-4.659-.008a3.269,3.269,0,0,0-.706.085,1.138,1.138,0,0,0-1.054,1.131c-.051,1.012-.042,2.032,0,3.044a1.027,1.027,0,0,0,.978,1.029,5.518,5.518,0,0,0,.833.077c1.573.017,3.146.017,4.727.025.187,0,.374-.025.6-.042.025-1.063.042-2.083-.009-3.112H450.8v.859h2.7C453.508,143.171,453.508,143.6,453.508,144.081Zm4.217-3.5c1.973.068,3.886.145,5.824.213v-.85c-2.262-.111-4.489-.238-6.777-.247,0,1.82-.008,3.554,0,5.314,2.321.085,4.549.17,6.819.264-.017-.34-.026-.587-.042-.876-1.981-.085-3.894-.162-5.824-.238v-1.326h2.61c.85.009,1.7.153,2.542.077v-.842c-1.743-.068-3.435-.136-5.161-.213C457.725,141.428,457.725,141.054,457.725,140.578Zm15.491,2.712h0v-1.352a1.3,1.3,0,0,0-1.02-1.326,2.667,2.667,0,0,0-.629-.128c-1.309-.1-2.619-.2-3.928-.3a3.9,3.9,0,0,0-.706.017c-.689.068-1.037.383-1.063,1.063-.042.986-.042,1.981.009,2.976a1.133,1.133,0,0,0,1.02,1.165,6.271,6.271,0,0,0,.893.128c.944.077,1.888.153,2.831.213a13.487,13.487,0,0,0,1.547.042.993.993,0,0,0,1.046-1.071C473.233,144.243,473.216,143.766,473.216,143.29ZM420.5,145.144c1.224-.136,2.364-.264,3.494-.4.536-.068,1.071-.128,1.59-.238a1.163,1.163,0,0,0,.986-.995,7.281,7.281,0,0,0,.009-1.666.966.966,0,0,0-.9-.876,2.805,2.805,0,0,0-.706-.026c-1.046.1-2.1.213-3.146.332-.74.085-1.479.187-2.228.289v5.323c.306-.034.578-.068.9-.111Zm18.238-5.229c-.349.017-.621.034-.961.051v.748c0,.995-.008,1.99,0,2.976.017,1.1.383,1.462,1.5,1.5h.128c1.377-.051,2.763-.085,4.141-.17,1.114-.068,1.471-.468,1.479-1.607.008-1.054,0-2.117,0-3.171,0-.17-.017-.332-.034-.527H444.1c-.009.238-.034.451-.034.663,0,1.037.008,2.075-.008,3.112-.009.527-.111.655-.646.68-1.36.068-2.712.119-4.073.162-.476.017-.6-.119-.6-.629-.008-.536,0-1.08,0-1.615C438.739,141.4,438.739,140.714,438.739,139.915Zm43.278,1.632c-2.381-.264-4.7-.527-7.074-.791v.876c1.02.119,2.015.23,3.078.349v4.43c.34.043.612.085.969.128v-4.447c1.054.111,2.032.213,3.027.323Zm-44.5,33.517-.145-.145c-1.42,1.173-2.848,2.347-4.268,3.52.017.043.042.077.06.119.765-.264,1.53-.527,2.287-.808a.727.727,0,0,0,.3-.238C436.341,176.7,436.928,175.889,437.514,175.064Zm-8.349-1.8a2.326,2.326,0,0,0-1.7,1.148c.442.51.833.952,1.275,1.462a4.094,4.094,0,0,0,.119-.451C428.961,174.741,429.055,174.069,429.165,173.261Zm5.646-11.5c-.017.451-.034.825-.051,1.207,1.284-.136,1.488-.366,1.148-1.267C435.584,161.724,435.244,161.741,434.811,161.766Z" transform="translate(-410.792 -130.683)" fill="#1e1e21"/>
  <path id="Tracé_1789" data-name="Tracé 1789" d="M875.141,544.808c-.145-.289-.23-.459-.306-.629-.434-1.054-.842-2.126-1.292-3.171a2.036,2.036,0,0,1-.026-1.624c.408-1.046.774-2.1,1.207-3.137.6-1.437,1.224-2.857,1.845-4.277.085-.187.179-.366.272-.544l.128.051c-.06.247-.111.493-.179.731-.493,1.786-.952,3.588-1.479,5.357a6.917,6.917,0,0,0,.4,4.549c.042-.026.1-.034.119-.068a7.5,7.5,0,0,1,2.024-2.415q4.693-4.081,9.4-8.128a2.267,2.267,0,0,0,.867-1.573,61.571,61.571,0,0,0,.213-10.016,3.7,3.7,0,0,0-.68-1.93,24.351,24.351,0,0,0-2.993-3.486,2.267,2.267,0,0,1-.646-1.165c-.391-1.9-.808-3.792-1.216-5.7-.034-.162-.043-.332-.068-.536a1.688,1.688,0,0,1,.995.519,62.564,62.564,0,0,1,6.122,7.44,2.766,2.766,0,0,1,.493,1.309,38.146,38.146,0,0,1,.136,6.462,44.659,44.659,0,0,1-1.207,7.856,2.577,2.577,0,0,1-.969,1.462c-3.495,2.848-6.964,5.731-10.441,8.6a5.98,5.98,0,0,0-1.462,1.794C876.017,543.278,875.609,543.984,875.141,544.808Z" transform="translate(-831.116 -472.072)" fill="#fff"/>
  <path id="Tracé_1790" data-name="Tracé 1790" d="M669.653,529.5c.323,1.292.646,2.585.952,3.886a1.826,1.826,0,0,1-.2,1.19c-1.02,2.3-2,4.634-3.069,6.912-1.386,2.959-.91,2.168-3.052,4.345-.74.757-1.5,1.479-2.279,2.2a1.884,1.884,0,0,0-.655,1.156c-.11.859-.2,1.709-.289,2.568a2.129,2.129,0,0,0,.332,1.36c.442.714.867,1.437,1.352,2.126a102.819,102.819,0,0,0,7.389,9.327,10.046,10.046,0,0,0,2.389,2.058,4.346,4.346,0,0,1,.689.629,1.412,1.412,0,0,1-.077.119c-.128-.042-.255-.068-.374-.119-.366-.179-.723-.391-1.1-.544a8.921,8.921,0,0,1-2.976-2.228,97.754,97.754,0,0,1-7.737-9.217c-.451-.6-.842-1.25-1.258-1.879a2.213,2.213,0,0,1-.349-1.479c.136-1.2.272-2.4.391-3.6a3.048,3.048,0,0,1,.808-1.726,112.7,112.7,0,0,0,7.941-10.535c.332-.5.621-1.037.944-1.547a2.1,2.1,0,0,0,.323-1.42c-.077-.689-.17-1.369-.229-2.058-.051-.5-.06-1.012-.094-1.522C669.5,529.508,669.576,529.5,669.653,529.5Z" transform="translate(-635.278 -492.567)" fill="#fff"/>
  <path id="Tracé_1791" data-name="Tracé 1791" d="M691.1,332.51c3.341-.476,6.7-.757,10.075-1.046a2.073,2.073,0,0,0-1.284-.4c-2.721.009-5.433.017-8.154.06-1.08.017-2.151.128-3.231.145a4.192,4.192,0,0,0-1.913.527q-3.443,1.862-6.887,3.716c-.544.3-1.088.6-1.709.952a1.3,1.3,0,0,1,.689-.791,33.029,33.029,0,0,0,3.818-2.882,5.906,5.906,0,0,0,1.59-1.845,1.47,1.47,0,0,1,1.335-.842,97.848,97.848,0,0,1,11.053-.247c1.318.051,2.627.119,3.945.179a5.021,5.021,0,0,1,1.93.459c2.848,1.3,5.578,2.823,8.3,4.362a1.159,1.159,0,0,1,.272.179c1.165,1.114,2.33,2.228,3.588,3.427a2.024,2.024,0,0,1-1.326-.34c-1.7-1.02-3.4-2.032-5.135-3a3.971,3.971,0,0,0-1.411-.4c-.808-.1-1.641-.094-2.449-.187a4.493,4.493,0,0,1-1.233-.332c-.995-.417-1.973-.867-2.95-1.326a4.207,4.207,0,0,0-2.015-.357c-1.964.094-3.92.162-5.884.23-.332.009-.672-.017-1.012-.025A.885.885,0,0,0,691.1,332.51Z" transform="translate(-652.366 -309.844)" fill="#fff"/>
  <path id="Tracé_1792" data-name="Tracé 1792" d="M528.091,431.236c-.162.145-.4.264-.485.451a3.156,3.156,0,0,1-1.19,1.241c-.315.23-.629.451-.927.663-.612-.417-.723-.978-.281-1.471a9.844,9.844,0,0,1,1.216-1.165c1.547-1.207,3.129-2.372,4.685-3.571a4.126,4.126,0,0,0,.91-.893,8.681,8.681,0,0,1,3.188-2.865c.74-.391,1.445-.85,2.245-1.326a.7.7,0,0,1-.374.527c-.527.408-1.054.825-1.59,1.224a.924.924,0,0,0-.408.7c-.043.408-.153.808-.179,1.216a.686.686,0,0,1-.561.68c-.451.153-.884.349-1.335.5a2.836,2.836,0,0,0-1.122.825,3.85,3.85,0,0,0,.5-.06c.459-.1.918-.238,1.386-.315a1.225,1.225,0,0,1,.68.051,1.673,1.673,0,0,0,1.131.06c.315-.077.629-.17.944-.23a5.269,5.269,0,0,0,2.687-1.182.348.348,0,0,1,.238-.077,2.825,2.825,0,0,1-1.5,1.377l-6.53,2.474a3.129,3.129,0,0,0-.425.153c-.17.1-.323.238-.485.357a.75.75,0,0,1,.043.128,12.874,12.874,0,0,0,1.394.119,2.292,2.292,0,0,1,1.922.867c.417.493.9.935,1.343,1.4.145.153.272.323.468.561-.842.153-1.6.281-2.347.425-1.25.247-2.491.519-3.741.74a.9.9,0,0,0-.8.791c-.145.7-.306,1.386-.485,2.177a2.712,2.712,0,0,1-.612-.383c-.57-.655-1.114-1.318-1.641-2-.272-.349-.247-.51.051-.859.417-.493.833-.995,1.292-1.454A2.824,2.824,0,0,0,528.091,431.236Z" transform="translate(-512.32 -394.482)" fill="#fff"/>
  <path id="Tracé_1793" data-name="Tracé 1793" d="M955.9,413.3a4.272,4.272,0,0,1,.468-.272c1.445-.621,2.9-1.233,4.336-1.862a2.11,2.11,0,0,1,1.862.06,59.027,59.027,0,0,1,8.817,5.161,1.556,1.556,0,0,1,.663,1.054,35.337,35.337,0,0,1,.366,9.608,2.243,2.243,0,0,1-.213.74,47.584,47.584,0,0,1-4.574,7.737,1.637,1.637,0,0,1-.51.476,8.646,8.646,0,0,0,.051-1.046,2.1,2.1,0,0,1,1.1-2.134,1.918,1.918,0,0,0,.6-.74c.672-1.258,1.318-2.525,1.973-3.784a5,5,0,0,0,.536-3.129c-.272-1.794-.51-3.588-.774-5.382-.026-.17-.085-.332-.119-.5a1.366,1.366,0,0,0-.859-1.054c-.876-.374-1.752-.723-2.61-1.131a7.486,7.486,0,0,1-1.326-.791c-1.318-1.02-2.61-2.058-3.894-3.112a1.849,1.849,0,0,0-1.811-.383c-.578.179-1.19.238-1.751.442A5.1,5.1,0,0,1,955.9,413.3Z" transform="translate(-906.637 -384.125)" fill="#fff"/>
  <path id="Tracé_1794" data-name="Tracé 1794" d="M795.1,685.4a3.452,3.452,0,0,1-.247-.366,118.2,118.2,0,0,1-5.51-10.917,3.789,3.789,0,0,1-.2-2.627c.884-3.367,2-6.649,3.18-9.914.383-1.054.791-2.1,1.19-3.146a2.032,2.032,0,0,1,.289-.527,5.147,5.147,0,0,1,.315,2.236c-.689,3.443-1.4,6.887-2.066,10.339-.247,1.292-.383,2.6-.51,3.911a3.256,3.256,0,0,0,.2,1.394c.714,1.964,1.479,3.911,2.236,5.867.238.621.493,1.25.782,1.845A3.647,3.647,0,0,1,795.1,685.4Z" transform="translate(-753.924 -610.05)" fill="#fff"/>
  <path id="Tracé_1795" data-name="Tracé 1795" d="M654.4,388.641a4.6,4.6,0,0,1,.621-.3,2.822,2.822,0,0,0,1.462-1.105,14.943,14.943,0,0,1,1.182-1.454,3.3,3.3,0,0,1,.935-.757c1.445-.663,2.908-1.3,4.387-1.888a6.578,6.578,0,0,1,2.738-.187c-.026.136-.017.213-.051.255-.68,1.173-1.343,2.364-2.049,3.512a1.353,1.353,0,0,1-.706.51c-1.309.434-2.627.833-3.945,1.233a14.445,14.445,0,0,1-3.137.315c-.459.034-.927.009-1.394.009C654.426,388.743,654.417,388.692,654.4,388.641Z" transform="translate(-630.772 -358.434)" fill="#fff"/>
  <path id="Tracé_1796" data-name="Tracé 1796" d="M613.081,568.3a3.962,3.962,0,0,1,.782.042c1.36.323,2.721.68,4.081,1a1.678,1.678,0,0,1,1.139,1.216.768.768,0,0,1-.094.553c-.944,1.692-1.9,3.384-2.865,5.068a1.335,1.335,0,0,1-.816.587c-1.309.442-2.61.893-3.92,1.335-.6.2-.621.247-.527.825.111.638.221,1.275.34,1.913.085.442.17.5.621.425.51-.094,1.012-.23,1.513-.332a.749.749,0,0,1,.476.051,3.97,3.97,0,0,1-.833.655,12.618,12.618,0,0,1-1.862.536c-.408.094-.536-.008-.646-.434-.153-.6-.272-1.224-.434-1.828a15.437,15.437,0,0,0-.68-2.151,4.405,4.405,0,0,1-.17-2.287,4.32,4.32,0,0,1,.4.281c.315.264.629.527.927.808a.758.758,0,0,0,.825.17c.935-.323,1.888-.6,2.823-.944a1.8,1.8,0,0,0,.706-.527,23.215,23.215,0,0,0,2.508-3.766,1.113,1.113,0,0,0-.663-1.7c-1.029-.383-2.066-.748-3.1-1.122-.2-.068-.383-.153-.57-.23A.653.653,0,0,0,613.081,568.3Z" transform="translate(-589.343 -528.068)" fill="#fff"/>
  <path id="Tracé_1797" data-name="Tracé 1797" d="M821.552,420.492a1.569,1.569,0,0,1-.8-.961q-.587-1.951-1.2-3.886a.877.877,0,0,1,.17-.893q.765-.969,1.479-1.964a1.247,1.247,0,0,0-.519-1.768,1.462,1.462,0,0,0-1.182-.034c-1.1.451-2.219.842-3.307,1.3a2.371,2.371,0,0,1-1.564.162c-.374-.093-.757-.145-1.131-.213a1.529,1.529,0,0,1,1.275-1.479c1.768-.357,3.554-.689,5.323-1.063a2.387,2.387,0,0,1,1.7.434.576.576,0,0,1,.2.247.819.819,0,0,1,.068.247c.476,2.211.485,1.709-.57,3.418a5.419,5.419,0,0,1-.578.859,1.382,1.382,0,0,0-.238,1.335c.272,1.267.536,2.525.8,3.792C821.5,420.152,821.518,420.279,821.552,420.492Z" transform="translate(-776.345 -382.913)" fill="#fff"/>
  <path id="Tracé_1798" data-name="Tracé 1798" d="M594.625,209.781v.867c-2.236.17-4.455.34-6.725.51V205.81c2.219-.17,4.447-.34,6.708-.51.017.2.042.323.042.451s-.017.255-.034.434c-1.913.145-3.818.289-5.765.434v1.275c1.718-.128,3.4-.247,5.127-.366v.867c-1.718.136-3.409.264-5.135.4v1.394C590.748,210.053,592.644,209.917,594.625,209.781Z" transform="translate(-569.927 -195.932)" fill="#fff"/>
  <path id="Tracé_1799" data-name="Tracé 1799" d="M812.221,204.3v-1.4h-2.7v-.859h3.665c.051,1.029.034,2.049.008,3.112-.23.017-.417.043-.6.043-1.573,0-3.146-.008-4.727-.026a4.534,4.534,0,0,1-.833-.077,1.033,1.033,0,0,1-.978-1.029c-.043-1.012-.043-2.032,0-3.044a1.138,1.138,0,0,1,1.054-1.131,3.269,3.269,0,0,1,.706-.085c1.556,0,3.1.009,4.659.009a3.17,3.17,0,0,1,.349.034v.842h-.706c-1.42,0-2.848-.008-4.268-.008-.791,0-.893.119-.893.91,0,.672-.009,1.335,0,2.007.008.485.187.68.663.68C809.126,204.306,810.631,204.3,812.221,204.3Z" transform="translate(-769.505 -190.9)" fill="#fff"/>
  <path id="Tracé_1800" data-name="Tracé 1800" d="M918.3,201.984v1.275c1.726.068,3.418.136,5.161.213v.842c-.842.077-1.692-.077-2.542-.077s-1.718,0-2.61,0v1.326c1.93.077,3.843.162,5.824.238.017.281.025.527.043.876-2.27-.085-4.5-.17-6.819-.264-.009-1.76,0-3.495,0-5.314,2.287.009,4.515.136,6.776.247v.85C922.189,202.12,920.284,202.052,918.3,201.984Z" transform="translate(-871.37 -192.089)" fill="#fff"/>
  <path id="Tracé_1801" data-name="Tracé 1801" d="M1031.291,209.817c0,.476.017.952-.009,1.42a1,1,0,0,1-1.046,1.071,13.439,13.439,0,0,1-1.547-.043c-.944-.06-1.888-.136-2.831-.213a6.278,6.278,0,0,1-.893-.128,1.14,1.14,0,0,1-1.02-1.165c-.042-.986-.042-1.981-.008-2.976.026-.68.383-.995,1.063-1.063a3.932,3.932,0,0,1,.706-.017c1.309.094,2.619.187,3.928.3a3.176,3.176,0,0,1,.629.128,1.3,1.3,0,0,1,1.02,1.326v.128c.017.417.017.825.009,1.233Zm-.918-.077c0-.391.009-.774,0-1.165-.017-.468-.153-.638-.6-.672-1.437-.128-2.874-.238-4.311-.34-.4-.026-.587.119-.6.51-.026.842-.026,1.675,0,2.517.009.366.2.527.587.561,1.437.119,2.874.221,4.311.323.434.026.578-.128.6-.561C1030.389,210.514,1030.372,210.123,1030.372,209.74Z" transform="translate(-968.866 -197.21)" fill="#fff"/>
  <path id="Tracé_1802" data-name="Tracé 1802" d="M481,219.96V221.6c-.323.043-.6.068-.9.111v-5.323c.748-.094,1.488-.2,2.228-.289,1.046-.119,2.1-.23,3.146-.332a2.806,2.806,0,0,1,.706.025.966.966,0,0,1,.9.876,7.8,7.8,0,0,1-.008,1.666,1.172,1.172,0,0,1-.986.995c-.527.119-1.063.17-1.59.238C483.365,219.7,482.226,219.824,481,219.96Zm.043-.893c.485-.051.884-.1,1.292-.145,1.088-.119,2.177-.238,3.265-.374.476-.06.578-.2.6-.672.008-.213.008-.434,0-.646-.017-.536-.153-.655-.663-.6q-1.186.115-2.372.255c-.7.085-1.394.179-2.117.272Z" transform="translate(-471.292 -205.499)" fill="#fff"/>
  <path id="Tracé_1803" data-name="Tracé 1803" d="M694.871,201.6v2.177c0,.536-.008,1.08,0,1.615.009.5.128.638.6.629,1.36-.043,2.721-.094,4.073-.162.536-.026.638-.153.646-.68.008-1.037,0-2.075.008-3.112,0-.213.017-.417.034-.663h.893c.008.187.034.357.034.527,0,1.054.008,2.117,0,3.171-.008,1.131-.366,1.539-1.479,1.607-1.377.077-2.755.111-4.141.17h-.128c-1.105-.042-1.479-.4-1.5-1.5-.017-.995,0-1.99,0-2.976v-.748C694.25,201.63,694.522,201.613,694.871,201.6Z" transform="translate(-666.924 -192.364)" fill="#fff"/>
  <path id="Tracé_1804" data-name="Tracé 1804" d="M1138.074,214.482v.876c-.995-.1-1.972-.213-3.027-.323v4.447c-.357-.051-.629-.085-.969-.128v-4.43c-1.063-.119-2.058-.23-3.078-.349V213.7C1133.364,213.955,1135.693,214.219,1138.074,214.482Z" transform="translate(-1066.85 -203.618)" fill="#fff"/>
  <path id="Tracé_1805" data-name="Tracé 1805" d="M643.313,615.636c-.587.816-1.173,1.641-1.769,2.457a.727.727,0,0,1-.3.238c-.757.281-1.531.544-2.287.808-.017-.042-.042-.077-.059-.119,1.42-1.173,2.848-2.347,4.268-3.52C643.211,615.542,643.262,615.594,643.313,615.636Z" transform="translate(-616.59 -571.255)" fill="#fff"/>
  <path id="Tracé_1806" data-name="Tracé 1806" d="M574.3,595.9c-.11.8-.2,1.479-.306,2.16a4.089,4.089,0,0,1-.119.451c-.442-.51-.833-.952-1.275-1.462A2.31,2.31,0,0,1,574.3,595.9Z" transform="translate(-555.927 -553.322)" fill="#fff"/>
  <path id="Tracé_1807" data-name="Tracé 1807" d="M658.451,460.06c.434-.026.774-.043,1.1-.06.34.9.136,1.122-1.148,1.267C658.417,460.884,658.426,460.51,658.451,460.06Z" transform="translate(-634.432 -428.977)" fill="#fff"/>
  <path id="Tracé_1808" data-name="Tracé 1808" d="M1040.587,218.956c0,.391.009.774,0,1.165-.017.434-.17.587-.6.561-1.437-.094-2.874-.2-4.311-.323-.383-.034-.578-.2-.587-.561-.026-.842-.026-1.675,0-2.517.009-.383.2-.536.6-.51,1.437.1,2.874.213,4.311.34.451.042.587.2.6.672C1040.6,218.174,1040.587,218.565,1040.587,218.956Z" transform="translate(-979.081 -206.425)"/>
  <path id="Tracé_1809" data-name="Tracé 1809" d="M491.2,228.329v-1.913c.723-.094,1.42-.187,2.117-.272q1.186-.14,2.372-.255c.51-.051.646.077.663.6.009.213.009.434,0,.646-.017.476-.119.612-.6.672-1.088.136-2.177.247-3.265.374C492.084,228.227,491.685,228.278,491.2,228.329Z" transform="translate(-481.448 -214.761)"/>
</svg>
