<svg xmlns="http://www.w3.org/2000/svg" width="184.8" height="93.285" viewBox="0 0 184.8 93.285">
  <path id="Porsche_Black" data-name="Porsche Black" d="M148.693,125.654a78.594,78.594,0,0,0-18.051,2.2,69.247,69.247,0,0,0-8.556,2.789l-.161.08s.349,20.787.59,31.086a29.049,29.049,0,0,0,1.663,8.9,43.538,43.538,0,0,0,4.64,9.2,37.128,37.128,0,0,0,10.648,10.407,44.212,44.212,0,0,0,5.847,2.95c.671.3,1.261.563,1.77.724a10.264,10.264,0,0,0,1.69.536,15.541,15.541,0,0,0,1.69-.51c.563-.188,1.126-.456,1.8-.724a32.085,32.085,0,0,0,9.28-5.472,36.919,36.919,0,0,0,7.215-7.939,41.719,41.719,0,0,0,4.64-9.2,28.272,28.272,0,0,0,1.663-8.9c.241-10.326.59-31.086.59-31.086l-.188-.107a67.831,67.831,0,0,0-20.706-4.747c-2.012-.161-3.835-.241-5.874-.241h-.188Zm0,1.046h.161a75.736,75.736,0,0,1,17.354,2.173,65.517,65.517,0,0,1,8.234,2.682l.161.08-.107,6.518h-.08a65.237,65.237,0,0,0-19.9-4.64c-1.878-.188-3.755-.268-5.633-.322h-.161a75.766,75.766,0,0,0-17.354,2.2,63.4,63.4,0,0,0-8.261,2.736L123,131.554l.161-.054a65.528,65.528,0,0,1,19.955-4.613c1.824-.134,3.7-.215,5.579-.188Zm39.267.644a6.29,6.29,0,1,0,6.276,6.3,6.284,6.284,0,0,0-6.276-6.3Zm-41.225.349a.941.941,0,0,0-.375.161.388.388,0,0,0-.188.268v1.019l-.027.966a.44.44,0,0,0,.188.3.659.659,0,0,0,.4.134h1.287l1.341.027,1.341.08a.179.179,0,0,1,.188.134v.536a.578.578,0,0,1-.054.3c-.027.08-.107.107-.268.107h-1.18l-.644-.027h-1.69l-.992.054-.054.858,1.395-.054,1.073-.027h.858l.778.027.536.027h.59a.723.723,0,0,0,.4-.134.5.5,0,0,0,.188-.322v-.966l.027-.966a.639.639,0,0,0-.161-.3.589.589,0,0,0-.322-.134l-1.234-.054h-2.977l-.08-.054a.232.232,0,0,1-.08-.161v-.349a1.181,1.181,0,0,1,.054-.429.258.258,0,0,1,.241-.107l3,.027h.429l1.046.027V127.8l-1.395-.054-3.648-.054Zm-2.87.134c-.51,0-5.15.483-5.15.483v4.935l.536-.054.51-.08v-1.529l2.9-.322a.949.949,0,0,1,.885.536,8.088,8.088,0,0,1,.349.966l1.126-.107a2.407,2.407,0,0,0-.241-.885,3.046,3.046,0,0,0-.724-.939,1.217,1.217,0,0,0,.536-.724,12.114,12.114,0,0,0-.054-1.717C144.508,128.121,144.374,127.853,143.865,127.826Zm10.407.054a1.1,1.1,0,0,0-.7.241.847.847,0,0,0-.349.59v3.433l.027.241a.423.423,0,0,0,.134.215.5.5,0,0,0,.349.188h.215l.054.027h.054l2.253.241,2.333.241.349.08v-.912l-.4-.08-.322-.027h-.054l-1.931-.241-1.931-.241a.107.107,0,0,1-.107-.054l-.027-.107v-2.629c0-.107,0-.188.107-.241a.953.953,0,0,1,.241-.107c.429.027,4.023.51,4.56.59v-.966l-3.111-.349-1.743-.134Zm33.661.375a5.362,5.362,0,0,1,4.908,3.138l.054.107a5.641,5.641,0,0,1,0,4.184,5.178,5.178,0,0,1-2.816,2.816,5.392,5.392,0,0,1-4.184,0,5.013,5.013,0,0,1-2.816-2.816,5.641,5.641,0,0,1,0-4.184,5.094,5.094,0,0,1,2.816-2.816A6.926,6.926,0,0,1,187.933,128.255Zm-27.894.4v.215a9.539,9.539,0,0,1-.054,1.153c0,.617-.027,1.234-.054,1.851l-.027.4v.59l-.027.59.241.054.134.054.241.027.375.054.027-.349V133l.027-.349v-.966a.457.457,0,0,1,.188.027h.08l1.153.241,1.77.349.134.054.188.054.215.054v.966l-.027.322v.376l-.027.188.322.08.188.054.188.054.268.08V134.1c.054-.59.054-1.207.08-1.931v-2.36l-.376-.107-.51-.107v.751l-.054.483v.8h-.027l-.241-.054-.188-.054-.134-.027-.134-.054-1.126-.241-1.153-.215h-.107l-.3-.08-.3-.054h-.08v-2.065l-.241-.054h-.161l-.188-.054-.3-.027Zm-23.335.054-4.56.885c-.349.107-.724.375-.724.751v3.3c0,.349.429.8.778.724l4.56-.885a1.061,1.061,0,0,0,.778-.912v-3.326a.71.71,0,0,0-.831-.536Zm6.384.161a.422.422,0,0,1,.349.107.291.291,0,0,1,.107.241v.563a.609.609,0,0,1-.161.429.633.633,0,0,1-.429.188l-1.609.134-1.609.134v-1.5l3.353-.3Zm-7.161.778c.429-.054.563.188.563.483v2.119a.574.574,0,0,1-.429.59l-3.245.617c-.322.08-.51-.161-.51-.456v-2.092c0-.429.188-.617.7-.724C132.975,130.187,135.926,129.65,135.926,129.65Zm52.168.188h-2.6v7.832h.966v-3.514h1.5l1.529,3.514h1.046l-1.609-3.648a2.384,2.384,0,0,0,1.287-.724,1.938,1.938,0,0,0,.483-1.261,3.627,3.627,0,0,0-.107-.778,1.931,1.931,0,0,0-.4-.724,2.123,2.123,0,0,0-.8-.536A4.98,4.98,0,0,0,188.094,129.838Zm-21,.241-.054,2.9-.054,1.985,2.682.8c.858.3,1.824.59,2.789.939l.107.027.322.107a5.831,5.831,0,0,0,.054-.966l-.268-.107h-.054l-.054-.027c-.483-.188-1.046-.349-1.556-.536l-1.636-.536-.349-.107-.375-.107-.4-.107-.215-.08v-.483l.027-.483.536.134,1.985.59,1.878.644.188.054.322.107v-1.019l-.3-.107-.134-.027c-1.153-.429-2.307-.8-3.487-1.127l-.268-.08-.3-.08-.134-.054-.241-.08v-.992l.349.107.429.107.376.107h.027c1.046.3,2.092.617,3.111.992l.241.107.349.134v-.885l-.241-.107-.215-.08h-.027C170.713,131.152,168.916,130.562,167.092,130.079Zm-37.309.188h-.322c-1.877.59-3.728,1.207-5.579,1.9l.054,2.468v2.307l1.287-.429v-1.69l4.8-1.5a.428.428,0,0,0,.241-.188.436.436,0,0,0,.134-.241c0-.027.027-.08.027-.107l-.054-1.958a.662.662,0,0,0-.322-.483A.453.453,0,0,0,129.783,130.267Zm56.674.429h1.448a2.368,2.368,0,0,1,1.207.3,1.16,1.16,0,0,1,.483,1.046,1.858,1.858,0,0,1-.08.536.653.653,0,0,1-.268.376,1.484,1.484,0,0,1-.59.268,2.891,2.891,0,0,1-.966.107H186.4l.054-2.629Zm-57.613.59h.054a.262.262,0,0,1,.241.107.291.291,0,0,1,.107.241l.054.7a.612.612,0,0,1-.161.322.639.639,0,0,1-.3.161l-3.7,1.207-.027-1.448s1.448-.59,2.038-.8C127.745,131.581,128.845,131.286,128.845,131.286Zm19.285,2.843v13.25h-8.476c-.107,0-.054-.054.054-.134a4.648,4.648,0,0,1,2.038-.885c.08,0,.107-.027,0-.134a2.514,2.514,0,0,0-2.682-.617,2.9,2.9,0,0,0-1.8,1.743.1.1,0,0,1-.107.107l-1.368.054c-.08,0-.107-.107-.107-.161a2,2,0,0,1,.992-1.368,3.084,3.084,0,0,1,1.5-.536h.027c.054-.027.054-.107.027-.161a1.073,1.073,0,0,0-.322-.268,2.235,2.235,0,0,0-1.448-.241,3.036,3.036,0,0,0-2.709,2.789c-.027.161,0,.215-.134.268a11.521,11.521,0,0,1-1.261.241c-.054.027-.134-.107-.107-.161a3.511,3.511,0,0,1,.7-1.5,2.9,2.9,0,0,1,.966-.831c.107-.027.134-.107.107-.161-.724-.644-2.226.027-2.843.7a3.933,3.933,0,0,0-.778,2.6v.134l-1.153.4-.054-.107a2.8,2.8,0,0,1,.429-1.958,2,2,0,0,1,.7-.724v-.107c-.349-.429-1.636-.134-2.038.241-.912.912-.831,1.77-.885,3.165a.7.7,0,0,1-.161.349,1.33,1.33,0,0,1-.536.215h-.08l-.107-.241a1.108,1.108,0,0,0-1.529-.4c-.054,0-.08.054-.107.08a1.023,1.023,0,0,0-.107,1.448c.054.054.08.107,0,.107a1.2,1.2,0,0,0-.8,1.5c0,.027,0,.027.027.054a.932.932,0,0,0,.858.59,1.788,1.788,0,0,0,1.046-.322c.054-.054.107-.027.161,0a1.08,1.08,0,0,0,1.5.376c.483-.322.671-.8.349-1.609-.027-.054.054-.107.107-.161a18.98,18.98,0,0,1,9.012-2.521,4.492,4.492,0,0,1,1.314.322h.054v2.709l-.08.08a2.853,2.853,0,0,0-1.261,1.582c0,.054,0,.054-.107.054l-1.69.188c-.054,0-.107-.08-.107-.107a5.381,5.381,0,0,1,2.092-2.6.229.229,0,0,0,0-.188,1.122,1.122,0,0,0-.483-.3,3.049,3.049,0,0,0-2.548,1.046,3.889,3.889,0,0,0-.885,2.494c0,.08,0,.161-.08.188l-1.1.322a.115.115,0,0,1-.107-.107,2.894,2.894,0,0,1,1.395-2.95c.134-.107-.107-.3-.3-.3a2.855,2.855,0,0,0-2.655,1.5,4.116,4.116,0,0,0-.08,2.28c0,.08.054.188,0,.188l-.966.322c-.054.027-.107,0-.107-.107a2.737,2.737,0,0,1-.054-1.395,2.592,2.592,0,0,1,.778-1.395v-.107a1.565,1.565,0,0,0-1.1-.08,2.082,2.082,0,0,0-1.341,1.073c-.483.858-.349,1.69.134,2.9,0,.08.054.161,0,.215l-.376.3c-.027.027-.08,0-.107-.054-.161-.241-.349-.59-.59-.7a1.205,1.205,0,0,0-1.234.107,1.232,1.232,0,0,0-.349,1.261l.268.429c.027.027,0,.107-.027.107-.161.134-.4.241-.563.4a1.127,1.127,0,0,0,0,1.341.975.975,0,0,0,1.287.349,5.265,5.265,0,0,0,.671-.349c.08-.054.107-.134.188-.08a1.368,1.368,0,0,0,.644.429,1.149,1.149,0,0,0,1.019-.161.9.9,0,0,0,.483-.966,3.066,3.066,0,0,0-.4-.778c-.107-.107-.107-.107,0-.161a24.232,24.232,0,0,1,4.774-2.065,13.572,13.572,0,0,1,4.855-.59h.107v5.606H123.48l-.4-22.476.054-.027A64.549,64.549,0,0,1,143.06,134.4C144.8,134.237,146.413,134.156,148.129,134.129Zm-8.637,2.36a3.468,3.468,0,0,0-2.2.644,5.482,5.482,0,0,0-1.448,2.816.1.1,0,0,1-.107.107,17.1,17.1,0,0,0-1.985.349,2.929,2.929,0,0,1,.724-1.69,11.874,11.874,0,0,1,1.448-1.153c.027-.027,0-.107-.054-.134a2.925,2.925,0,0,0-2.28.027,3.293,3.293,0,0,0-1.931,2.494,5.945,5.945,0,0,0-.107,1.207l-.107.054-2.038.671-.107-.027a3.424,3.424,0,0,1,.483-1.9c.349-.563.992-.858,1.448-1.341.054-.027.107-.107.054-.134a2.756,2.756,0,0,0-3.219,1.073,4.2,4.2,0,0,0-.59,3.245.241.241,0,0,1-.054.241l-.644.241c-.054,0-.107,0-.107-.054-.3-.858-1.287-.7-1.743-.429a1.019,1.019,0,0,0-.376,1.395c0,.08,0,.107-.054.134a1.286,1.286,0,0,0-.59,1.69.949.949,0,0,0,1.207.4l.724-.349h.08a.053.053,0,0,0,.054.054,1.088,1.088,0,0,0,1.582.161c.322-.241.456-.268.59-.7a1.09,1.09,0,0,0-.241-.858c-.054,0,0-.107,0-.107a27.869,27.869,0,0,1,12.07-3.084,6.7,6.7,0,0,1,4.131,1.582.271.271,0,0,0,.188.107c.08-.027.107-.107.134-.161a1.879,1.879,0,0,0-.59-1.958,3.67,3.67,0,0,0-1.743-.992c-.054,0-.054-.107-.027-.107a2.4,2.4,0,0,1,.966-.617,9.193,9.193,0,0,1,1.743-.134c.027,0,.107-.054.107-.107a1.705,1.705,0,0,0-1.5-1.126,3.871,3.871,0,0,0-1.985.3,3.322,3.322,0,0,0-1.448,1.582l-.08.054h-1.743c-.027,0-.08,0-.08-.054a2.643,2.643,0,0,1,.724-1.5,5.922,5.922,0,0,1,1.958-1.1.167.167,0,0,0,.107-.161,1.471,1.471,0,0,0-.59-.483,1.633,1.633,0,0,0-.751-.161Zm34.975,2.521V140.3h0ZM149.014,141.1h25.4c0,1.985-.054,4.077-.107,6.3H149.041l-.027-6.3Zm-9.79,7.161h19.151c.054,0,.054.027.054.054V163.07a6.039,6.039,0,0,1-.4,2.2,8.7,8.7,0,0,1-4.131,4.56,10.228,10.228,0,0,1-4.989,1.422,10.061,10.061,0,0,1-6.491-2.468,8.061,8.061,0,0,1-3.165-6.249V148.345C139.2,148.345,139.225,148.264,139.225,148.264Zm20.089.054v0Zm14.966,0-.107,5.525h.027C174.227,153.843,174.28,148.318,174.28,148.318Zm-22.047,1.207a.35.35,0,0,0-.268.241l-.671,2.065.027.161.134.08c.107,0,.161,0,.188-.107l.107-.349h.966l.107.349c0,.08.107.107.161.107a.191.191,0,0,0,.161-.08.229.229,0,0,0,0-.188l-.724-2.065a.26.26,0,0,0-.188-.215Zm-6.008.054a.163.163,0,1,0,0,.322h.322v1.985a.177.177,0,0,0,.188.161.173.173,0,0,0,.161-.161V149.9h.349a.161.161,0,1,0,0-.322Zm1.582,0a.161.161,0,1,0,0,.322h.349v1.985a.177.177,0,0,0,.188.161.173.173,0,0,0,.161-.161V149.9h.349a.161.161,0,0,0,0-.322Zm2.307,0a.633.633,0,0,0-.617.349,1.664,1.664,0,0,0-.241.858,2.049,2.049,0,0,0,.215.885.688.688,0,0,0,.644.4,1.124,1.124,0,0,0,.429-.107,1.091,1.091,0,0,0,.4-.671,2.349,2.349,0,0,0,.054-.429.223.223,0,0,0-.241-.241h-.536c-.134,0-.161.054-.161.107,0,.107.054.161.134.161h.4V151a.672.672,0,0,1-.483.7.459.459,0,0,1-.429-.322,1.223,1.223,0,0,1-.134-.617,1.627,1.627,0,0,1,.161-.644.475.475,0,0,1,.375-.3.454.454,0,0,1,.376.241.139.139,0,0,0,.188.08c.08,0,.107-.107.107-.161A.578.578,0,0,0,150.114,149.578Zm5.579,0a.163.163,0,1,0,0,.322h.349v1.985a.155.155,0,0,0,.161.161.173.173,0,0,0,.161-.161V149.9h.349a.155.155,0,0,0,.161-.161.173.173,0,0,0-.161-.161Zm-14.189,0a.843.843,0,0,0-.563.134.6.6,0,0,0-.268.483.759.759,0,0,0,.188.563.628.628,0,0,0,.483.215.642.642,0,0,1,.563.268.35.35,0,0,1-.08.349.5.5,0,0,1-.429.134.633.633,0,0,1-.429-.188.216.216,0,0,0-.241-.08c-.107.054-.107.188-.107.241a.812.812,0,0,0,.751.376.891.891,0,0,0,.724-.241.708.708,0,0,0,.188-.51.557.557,0,0,0-.241-.51,2.023,2.023,0,0,0-.778-.241.3.3,0,0,1-.241-.349.368.368,0,0,1,.4-.3.588.588,0,0,1,.456.188.161.161,0,0,0,.268-.107C142.148,149.9,141.987,149.578,141.5,149.578Zm1.126,0a.173.173,0,0,0-.161.161v.027a.173.173,0,0,0,.161.161h.349v1.958a.179.179,0,0,0,.161.188.2.2,0,0,0,.188-.188v-1.958h.349a.173.173,0,0,0,.161-.161c0-.08-.054-.188-.134-.188h-1.073Zm11.131,0-.134.08a.2.2,0,0,0-.054.107v2.092a.179.179,0,0,0,.134.188h.027a.179.179,0,0,0,.188-.161v-.671h.349l.536.724a.194.194,0,0,0,.161.107.151.151,0,0,0,.161-.134.191.191,0,0,0-.08-.161l-.429-.59h.054a1.02,1.02,0,0,0,.349-.241.632.632,0,0,0,.215-.563.737.737,0,0,0-.322-.59,1.149,1.149,0,0,0-.59-.161A4.154,4.154,0,0,0,153.762,149.578Zm-9.468,0a.173.173,0,0,0-.161.161v1.287a1.8,1.8,0,0,0,.161.751.727.727,0,0,0,.671.3.654.654,0,0,0,.644-.3,1.464,1.464,0,0,0,.161-.751v-1.261a.173.173,0,0,0-.161-.161h-.027a.173.173,0,0,0-.161.161v1.341a.882.882,0,0,1-.107.456.52.52,0,0,1-.7,0,.682.682,0,0,1-.107-.456v-1.341a.228.228,0,0,0-.215-.188Zm9.6.349h.456a.5.5,0,0,1,.349.107.391.391,0,0,1,.134.322.516.516,0,0,1-.536.51h-.375l-.027-.939Zm-1.69.027.429,1.341h-.8Zm-3.353,2.924a2.5,2.5,0,0,0-.671.268,1.757,1.757,0,0,0-.4.483.371.371,0,0,1-.107.08l-.134.027-.51.241a4.051,4.051,0,0,1-.483.241,1.976,1.976,0,0,1-.375.107c-.3-.054-.617-.027-.724.3a.147.147,0,0,0,.107.161c.054.027.08.054.134.08l.161.08c.054,0,.08,0,.107.054l.027.054v.027c0,.054-.08.107-.107.107a.6.6,0,0,1-.429-.08h-.027a.13.13,0,0,0-.188,0,7.238,7.238,0,0,1-.912.671l-.107.107-.027.054v.08c0,.08-.08.107-.134.107a.178.178,0,0,0-.107.134v.134a.216.216,0,0,0,.241.161h.054l.241-.107h.107l.027.027v.107a.268.268,0,0,1-.107.134c-.054.08-.08.134,0,.188a.229.229,0,0,0,.349-.027.672.672,0,0,0,.107-.188.17.17,0,0,1,.161-.134,2.511,2.511,0,0,1,.429-.107.384.384,0,0,1,.3.08l.08.08v.054a1.307,1.307,0,0,1-.107.3l-.08.241-.08.215-.107.107-.429.349a3.163,3.163,0,0,0-.59.724.953.953,0,0,0-.107.241c-.054.241-.107.536-.349.349a3.779,3.779,0,0,1-.724-.483.692.692,0,0,1-.241-.241c-.241-.349-.536,0-.671.241a8.778,8.778,0,0,1-.939,1.287.839.839,0,0,1-.134.268.481.481,0,0,0-.107.375,1.291,1.291,0,0,1-.188.644.53.53,0,0,0-.161.376v.375c0,.107.054.161.134.161h.08a2.147,2.147,0,0,0,.563-.349l.08-.054a.165.165,0,0,0,.027-.188l-.027-.054-.054-.054c-.027-.027-.08-.054-.107-.107v-.161l.054-.161a.191.191,0,0,1,.08-.161l.3-.241a.431.431,0,0,0,.107-.429v-.188c0-.08.027-.107.08-.188l.188-.241a.742.742,0,0,1,.349-.3.842.842,0,0,1,.563.188,2.589,2.589,0,0,1,.322.671,2.277,2.277,0,0,0,.241.59c.107.107.241.188.375.107l.08-.054.054-.027c.054,0,.107,0,.134.08l.241.241c.107.08.027.134-.08.134h-.375a4.181,4.181,0,0,1-1.287.215h-.08a.1.1,0,0,0-.107.107l-.027.054-.054.107a.653.653,0,0,0,0,.322,3.813,3.813,0,0,1,.107,1.824.687.687,0,0,0,.161.644l.188.107.107.054a.374.374,0,0,1,.08.241.689.689,0,0,0,.134.322,1.715,1.715,0,0,0,.4.349H144a.177.177,0,0,0,.241-.08,1.205,1.205,0,0,0,.107-.617.228.228,0,0,0-.188-.215l-.107.027-.08.027h-.107a.268.268,0,0,1-.107-.134.69.69,0,0,1-.027-.4v-.08l.027-.188a.2.2,0,0,0-.054-.161c-.054-.107-.054-.134-.134-.161-.054,0-.08-.027-.107-.08-.054-.054-.054-.08-.027-.107a3.265,3.265,0,0,0,.027-.885c0-.107,0-.188.054-.241.215-.188.563-.054.751.027a5.436,5.436,0,0,0,.831.215,1.954,1.954,0,0,0,1.341-.349c.027-.027.027-.054.08-.027l.4.3a4.632,4.632,0,0,0,1.1.536,6.484,6.484,0,0,0,1.609-.027.947.947,0,0,1,.375.08l.054.08c0,.215-.107.376-.107.59a.763.763,0,0,0,.107.322l.107.3.08.107a1.049,1.049,0,0,1,0,1.314,4.268,4.268,0,0,1-.644.536,1.529,1.529,0,0,1-.751.3.672.672,0,0,0-.483.215,1.669,1.669,0,0,1-.51.376.23.23,0,0,0-.161.188,2.8,2.8,0,0,0-.215.671c-.027.107.08.161.188.161.188-.027.376-.107.59-.161.107,0,.161-.134.134-.241l-.027-.027-.08-.161v-.134c.054-.027.08-.08.134-.107a.255.255,0,0,1,.188-.054h.107a.532.532,0,0,0,.7-.268h0a1.49,1.49,0,0,1,.161-.215,8.43,8.43,0,0,1,1.636-.8.115.115,0,0,0,.107-.107v-.831c0-.134.054-.376.241-.376a.181.181,0,0,1,.161.107,1.557,1.557,0,0,0,.724.51l.241.107a.663.663,0,0,1,.376.536.407.407,0,0,1-.08.349l-.563.8a.872.872,0,0,1-.349.349,6.176,6.176,0,0,0-1.019.858l-.268.831c-.054.161.054.215.188.161a2.115,2.115,0,0,0,.617-.241l.107-.08a.161.161,0,0,0,.027-.107.331.331,0,0,0-.107-.215.244.244,0,0,1,0-.268c.027-.054.08-.08.107-.107l.483-.134a1.08,1.08,0,0,0,.536-.241c.027-.054.054-.08.08-.134v-.054a2.5,2.5,0,0,1,1.207-1.5.18.18,0,0,0,.107-.188l-.027-.241-.429-.671a1.258,1.258,0,0,1-.241-.59,1.274,1.274,0,0,1,.161-.644l.107-.161c.08-.161.241-.241.349-.4a2.162,2.162,0,0,0,.322-.483l.241-.644a1.988,1.988,0,0,0-.027-.563c0-.08.054-.107.08-.188a.732.732,0,0,1,.322-.241.589.589,0,0,1,.376.027l.617.241a.792.792,0,0,0,.349-.054,1.112,1.112,0,0,0,.349-.188v-.107h-.3a.391.391,0,0,1-.241-.161.482.482,0,0,1-.107-.241l.08-.134a1.25,1.25,0,0,0,.376-.376,1.052,1.052,0,0,0,.107-.483h-.08c-.107.107-.134.241-.268.322a.59.59,0,0,1-.349.107.328.328,0,0,1-.241-.107.953.953,0,0,1-.107-.241c-.027-.107.107-.134.161-.161a1.566,1.566,0,0,0,.483-.107.473.473,0,0,0,.215-.241.783.783,0,0,0,.054-.241c0-.054,0-.08-.027-.054-.107,0-.161.08-.241.107a.6.6,0,0,1-.429-.027,1.412,1.412,0,0,1-.322-.376v-.3c.161,0,.3-.161.375-.349l.054-.107.107-.134a1.305,1.305,0,0,0,.027-.322.4.4,0,0,0-.107-.241H155.8c-.054.107,0,.241-.107.349a1.406,1.406,0,0,1-.268.3c-.08.054-.134.107-.188.107a.387.387,0,0,1-.241-.3.994.994,0,0,1,.107-.375l.456-.724.376-.429c.08-.107.107-.349.027-.4-.107-.027-.161.215-.241.268a3.947,3.947,0,0,0-1.046.563,1.817,1.817,0,0,0-.322.644c-.054.134-.027.322-.08.456,0,.054-.107.107-.161.08a1.239,1.239,0,0,1-.241-.4.763.763,0,0,1,0-.349c.027-.054,0-.08-.027-.054a.8.8,0,0,0-.322.349.816.816,0,0,0,.054.617,3.759,3.759,0,0,0,.59.858c.161.241.349.536.483.778a1.082,1.082,0,0,1,.161.724,1.414,1.414,0,0,1-.376.644s-.08.054-.107.027a5.661,5.661,0,0,0-.617-.51,2.5,2.5,0,0,0-.831-.349,4.152,4.152,0,0,0-1.153,0c-.4,0-.8.08-1.207.054a2.385,2.385,0,0,1-.966-.107,1.325,1.325,0,0,1-.536-.483,1.126,1.126,0,0,1-.107-.724,1.488,1.488,0,0,1,.161-.59.947.947,0,0,1,.349-.376.771.771,0,0,1,.59-.08l.241.161.241.241.08-.027a2.085,2.085,0,0,0-.107-.8,3.212,3.212,0,0,0-.349-.563c0-.054.107-.027.134-.054a1.137,1.137,0,0,1,.912.51l.027-.027a1.21,1.21,0,0,0-.322-.885,1.083,1.083,0,0,0-.349-.349c-.107-.027.054-.107.134-.107a.745.745,0,0,1,.483.08l.161.107.107.107c.027,0,.08-.054.054-.08a.8.8,0,0,0-.107-.268,6.829,6.829,0,0,0-.8-.7l-.107-.08a1.113,1.113,0,0,1-.188-.349l-.107-.161v-.188a.593.593,0,0,1,.349-.268,2.239,2.239,0,0,1,.4-.107l.134.054s.027-.08-.027-.107a1.081,1.081,0,0,0-.59-.161,1.646,1.646,0,0,0-.8.054,1.223,1.223,0,0,1-.59.161.682.682,0,0,1-.4-.08.308.308,0,0,1-.161-.241.948.948,0,0,1,.107-.456.587.587,0,0,1,.268-.241c.107,0,.134-.054.107-.107.054-.08-.027-.054-.08-.027Zm-1.046,1.582a.565.565,0,0,1,.349.134,1.592,1.592,0,0,1,.536,1.046,4.788,4.788,0,0,1,0,1.636.455.455,0,0,1-.241.429.783.783,0,0,1-.241.054c-.08,0-.107-.134-.107-.349v-1.475a3.329,3.329,0,0,0-.3-.966c0-.08-.054-.107-.107-.161l-.107-.134c-.054-.054-.134-.08-.188-.134l.027-.08a.6.6,0,0,1,.376,0Zm11.506.268h14.859l-.134,6.491H159.314Zm.027,7.349h14.7a29.471,29.471,0,0,1-1.609,8.342,41.758,41.758,0,0,1-4.479,8.958A35.73,35.73,0,0,1,157.7,189.489a46.443,46.443,0,0,1-5.633,2.9c-.617.268-1.207.536-1.69.7-.563.161-1.046.349-1.368.429v-21.27a5.2,5.2,0,0,0,.912-.054l.107.3a1.016,1.016,0,0,0,.617.483.975.975,0,0,0,.885-.322,1.1,1.1,0,0,0,1.1.188.685.685,0,0,0,.51-.644.9.9,0,0,0-.107-.59l-.107-.161a11.951,11.951,0,0,0,2.146-1.207h.08c1.046-.268,5.364-1.824,8.02-1.851a9.384,9.384,0,0,1,4.667,1.127,7.922,7.922,0,0,1,2.065,1.717l.107-.08a4.014,4.014,0,0,0,.241-1.5c-.08-.8-.885-1.395-1.127-1.636,0,0,0-.054.08-.107a3.156,3.156,0,0,1,1.931-.831c.08,0,.054-.107.027-.241-.161-.7-1.207-1.153-2.253-1.019a2.692,2.692,0,0,0-1.743,1.207c-.027.054-.134.107-.161.054a7.8,7.8,0,0,0-1.046-.322c-.107-.027-.054-.134-.054-.134a2.7,2.7,0,0,1,.858-.966,3.1,3.1,0,0,1,1.448-.644c.054,0,.054-.08,0-.107a1.535,1.535,0,0,0-1.046-.858,2.445,2.445,0,0,0-2.226.376,4.465,4.465,0,0,0-1.287,1.931c-.027.08-.054.107-.107.107-.3-.08-.992-.027-1.046-.08-.054,0-.054-.107-.027-.134a2.681,2.681,0,0,1,.617-1.073,2.749,2.749,0,0,1,1.046-.8l.054-.054a.17.17,0,0,0-.027-.241h0a2.894,2.894,0,0,0-3.514.778,5.95,5.95,0,0,0-.858,1.985c0,.027-.054.107-.107.107l-1.448.349-.241.054-.054-.054a9.687,9.687,0,0,0,1.395-4.721Zm-19.9,2.333c.08.322.241.617.349.939Zm1.636,3.406a10.162,10.162,0,0,0,7.778,3.835,9.908,9.908,0,0,0,6.357-2.414,10,10,0,0,1-6.357,2.36A10.15,10.15,0,0,1,141.075,167.817Zm-.51.778h0Zm-15.825.724h16.844l.349.3a10.949,10.949,0,0,0,6.223,2.6v3.46H127.423a38.553,38.553,0,0,1-2.682-6.357Zm35.136,1.368a2.843,2.843,0,0,0-1.207.429,2.875,2.875,0,0,0-1.127,1.207,7.042,7.042,0,0,0-.483,2.2l-.107.107-.966.241a.1.1,0,0,1-.08-.054,3.092,3.092,0,0,1,.429-2.065,2.927,2.927,0,0,1,.617-.778c.054-.027.08-.107.054-.134l-.107-.054a2.667,2.667,0,0,0-1.851.349,2.425,2.425,0,0,0-1.287,1.931,4.5,4.5,0,0,0,.107,1.69.107.107,0,0,1-.054.107l-1.046.51h-.054a1.689,1.689,0,0,0-.778-1.046,1.449,1.449,0,0,0-1.287.054,1.365,1.365,0,0,0-.59.644,1.032,1.032,0,0,0,.349,1.287c0,.027.054.08,0,.107-.268.107-.268.161-.483.456a1.239,1.239,0,0,0,.161,1.287,1.31,1.31,0,0,0,1.824.375.711.711,0,0,0,.161-.134.1.1,0,0,1,.08.054,1.535,1.535,0,0,0,.4.429,1.235,1.235,0,0,0,1.287,0,1.173,1.173,0,0,0,.59-1.207.958.958,0,0,0-.322-.724c-.027-.054,0-.08.107-.134a15.584,15.584,0,0,1,5.659-1.931,9.923,9.923,0,0,1,3.084.08,4.19,4.19,0,0,1,1.8.885,9.569,9.569,0,0,1,1.18,1.153.558.558,0,0,0,.349-.08,1.834,1.834,0,0,0,.027-1.5,4.725,4.725,0,0,0-1.1-1.69v-.054c0-.107.054-.134.134-.241a3.439,3.439,0,0,1,1.609-.831.091.091,0,0,0,.08-.134,1.851,1.851,0,0,0-2.333-.885,2.466,2.466,0,0,0-1.287,1.207c-.027.054-.08.134-.107.107l-.966-.107c-.107,0-.08-.107-.054-.107a2.017,2.017,0,0,1,.563-.912,3.332,3.332,0,0,1,1.287-.912c.054,0,.054-.054.054-.08a1.864,1.864,0,0,0-1.341-.671,2.342,2.342,0,0,0-1.743.671,3.592,3.592,0,0,0-.966,2.146c-.054.054-.08.107-.107.107a7.41,7.41,0,0,1-.8.08c-.054,0-.054-.08-.054-.107a2.457,2.457,0,0,1,.3-1.153,4.173,4.173,0,0,1,1.582-1.69c.107-.08.107-.241.08-.241a2.059,2.059,0,0,0-1.261-.241ZM148.1,176.454h0l.027,6.3Zm8.61,3.353a1.255,1.255,0,0,0-.751.241,2.755,2.755,0,0,0-1.368,1.582,3.382,3.382,0,0,0,.054,1.636v.08l-.617.3h-.08a1.823,1.823,0,0,1,.241-2.119c.054-.054.08-.107-.027-.134a1.681,1.681,0,0,0-1.5.563,1.941,1.941,0,0,0-.349,1.931,2.067,2.067,0,0,0,.3.724s.107.08.027.107l-.4.349h-.08a1.342,1.342,0,0,0-.831-.7.975.975,0,0,0-.885.241,1.052,1.052,0,0,0-.027,1.475l.027.027a1.01,1.01,0,0,0,.4.241.051.051,0,0,1,.027.08,1.69,1.69,0,0,0-.563.59,1.08,1.08,0,0,0,.241,1.18,1.059,1.059,0,0,0,.831.241,1.887,1.887,0,0,0,1.046-.885s.054-.054.08,0a1.886,1.886,0,0,0,.778.563.824.824,0,0,0,.912-.188.984.984,0,0,0,.322-1.153,1.491,1.491,0,0,0-.563-.59c-.054-.054,0-.107.054-.161a8.258,8.258,0,0,1,4.05-1.77,5.028,5.028,0,0,1,2.924.483,4.262,4.262,0,0,1,.966.751c.027,0,.134.054.161,0a1.094,1.094,0,0,0,.107-1.529,2.112,2.112,0,0,0-.59-.483l-.027-.054a2.461,2.461,0,0,1,1.717-1.529c.08,0,.054-.054,0-.134-.322-.8-1.77-.831-2.441-.4a3.158,3.158,0,0,0-1.019,1.126c0,.054-.027.107-.08.107l-.59-.188v-.08a3.059,3.059,0,0,1,1.985-1.609c.054-.027.027-.08,0-.107-.295-.778-1.878-.724-2.655-.215a3.362,3.362,0,0,0-1.448,2.065v.107a3.05,3.05,0,0,1-.671.161c-.027,0-.054-.027-.054-.08a1.726,1.726,0,0,1,.188-1.1,6.646,6.646,0,0,1,.939-1.207c.054-.054.054-.134,0-.161a1.069,1.069,0,0,0-.751-.376Zm-23.844,3.755H148.1V193.4c-.3-.107-.617-.241-.992-.349-.51-.161-1.046-.456-1.717-.724a31.17,31.17,0,0,1-8.9-5.284A34.171,34.171,0,0,1,132.868,183.561ZM189.6,206.172v12.66h2.789v-4.747h16.924v4.747h2.816v-12.66h-2.789v5.15H192.412v-5.15Zm-104.363,0a2.856,2.856,0,0,0-2.843,2.816v7.081a2.816,2.816,0,0,0,2.843,2.789h17.783a2.787,2.787,0,0,0,2.789-2.789v-7.081a2.794,2.794,0,0,0-2.736-2.789l-17.836-.027Zm23.952,0v12.66h2.763v-3.353h15.53a2.828,2.828,0,0,1,2.789,2.816v.51h2.816v-.027a4.768,4.768,0,0,0-2.709-4.291,2.784,2.784,0,0,0,2.682-2.789v-2.736a2.793,2.793,0,0,0-2.816-2.789ZM55.3,206.2v12.66h2.789v-3.353H76.328a2.81,2.81,0,0,0,2.816-2.789v-3.728a2.81,2.81,0,0,0-2.816-2.789H55.3Zm110.988,0a2.834,2.834,0,0,0-2.843,2.789v7.081a2.8,2.8,0,0,0,2.763,2.816h20.2V216.1H166.609a.338.338,0,0,1-.349-.349v-6.384a.406.406,0,0,1,.456-.375H186.4v-2.816l-20.116.027Zm49.11,0v12.66h24.7V216.5H218.214v-2.763H240.1v-2.387H218.214v-2.763H240.1V206.2Zm-76.361,0a2.846,2.846,0,0,0-2.763,2.843v1.878a2.839,2.839,0,0,0,2.843,2.816h17.756a.491.491,0,0,1,.483.429V216.1a.435.435,0,0,1-.483.4h-20.2v2.387h20.679a2.828,2.828,0,0,0,2.789-2.816v-1.9a2.851,2.851,0,0,0-2.816-2.816H139.546a.409.409,0,0,1-.456-.4h0v-1.931a.447.447,0,0,1,.456-.429h20.143v-2.36l-20.653-.027Zm-27.063,2.763h17.809a.519.519,0,0,1,.483.483v2.789a.491.491,0,0,1-.429.483H111.974v-3.755Zm-53.885,0,17.783.027a.519.519,0,0,1,.483.483v2.763a.491.491,0,0,1-.429.483H58.143v-3.755Zm27.6.027h16.9a.5.5,0,0,1,.483.483v6.142a.475.475,0,0,1-.456.483H85.582a.355.355,0,0,1-.349-.349v-6.384a.417.417,0,0,1,.456-.375Z" transform="translate(-55.3 -125.6)" fill="#1e1e21"/>
</svg>
