<svg id="Triumph_Wordmark" data-name="Triumph Wordmark" xmlns="http://www.w3.org/2000/svg" width="167.993" height="45.75" viewBox="0 0 167.993 45.75">
  <path id="Tracé_1810" data-name="Tracé 1810" d="M144.984,19.163s.919.714.919,3.881V41.015c0,2.146.614,2.758,1.839,2.758h5.821a5.026,5.026,0,0,1-1.021-2.96V22.532c0-2.451-.409-3.472-1.839-3.472s-5.719.1-5.719.1m11.846-.1a3.465,3.465,0,0,1,.919,2.756V37.034c0,4.595,3.881,7.556,9.09,7.556,4.7,0,6.434-2.451,6.434-2.451a2.074,2.074,0,0,0,1.94,1.735c1.634,0,5.514-.1,5.514-.1a6.675,6.675,0,0,1-1.021-3.267V19.06H172.15a6.061,6.061,0,0,1,.919,3.165c0,1.839-.1,10.418-.1,12.664s-.816,4.9-4.391,4.9-4.085-3.574-4.085-4.9V21.409c0-1.224-.714-2.451-1.633-2.451s-6.027.1-6.027.1m26.96,0a4.044,4.044,0,0,1,1.328,3.371V40.3a5.022,5.022,0,0,1-1.021,3.472h7.046a5.72,5.72,0,0,1-.919-3.472V26.618s2.86,5.82,4.6,8.68,3.269,3.065,4.7,3.165a3.466,3.466,0,0,0,2.04-.305s3.472-9.7,5.209-12.46c-.2.2,0,12.867,0,15.013a4.6,4.6,0,0,1-1.021,3.165h7.762a7.3,7.3,0,0,1-1.021-3.369V22.225a5.278,5.278,0,0,1,1.021-3.165s-6.23.1-7.66.1-2.144.714-2.86,2.653-3.574,9.192-3.574,9.192-3.676-7.556-4.493-9.393-1.43-2.656-2.962-2.656-8.17.1-8.17.1m40.953,4.186s2.246-.1,2.962-.1,3.574.818,3.574,3.268c0,5.106-6.535,5.821-6.535,5.821Zm-7.967-4.288H229.95c4.086,0,7.353,3.063,7.353,7.863,0,7.863-12.56,9.5-12.56,9.5v5.208c0,1.94-.817,2.246-1.635,2.246h-6.332a5.656,5.656,0,0,0,1.125-3.063V21.816a5.068,5.068,0,0,0-1.125-2.858" transform="translate(-96.271 -12.728)" fill="#1e1e21" fill-rule="evenodd"/>
  <path id="Tracé_1811" data-name="Tracé 1811" d="M167.073,28.6V6.747H159.21a8.368,8.368,0,0,1,.919,3.268v3.47c-3.17.359-6.25,1.934-9.6,4.181V6.748h-7.863a8.379,8.379,0,0,1,.918,3.268V22.733c-11.256,8.451-26.817,19.623-55.758,19.86-37.377.305-48.1-20.424-48.1-20.424s5.311-2.146,5.311-7.761c0-4.6-3.576-7.762-7.046-7.762s-11.03.2-11.03.2L26.348.416s-4.9.511-13.174.511S.612.519.612.519L0,8.178C2.451,7.156,9.906,6.646,9.906,6.646S9.8,14.2,9.8,20.739A33.19,33.19,0,0,1,8.17,31.563l10.723-.1a34.491,34.491,0,0,1-1.737-11.13V6.646s6.944.407,7.965,1.021A2.015,2.015,0,0,1,26.143,9.4V28.4a8.291,8.291,0,0,1-.918,3.165l8.271-.1a5.751,5.751,0,0,1-.816-2.451c0-1.123-.1-5.207-.1-5.207l1.023-.1S48.611,46.166,87.316,46.166c27.166,0,44.259-9.533,56.35-17.187.21,1.7.848,2.583,1.757,2.583h6.026a5.354,5.354,0,0,1-.919-2.96v-5.14a35.553,35.553,0,0,1,9.6-5.379v9.6c0,2.552.716,3.879,1.839,3.879h6.025A5.354,5.354,0,0,1,167.073,28.6ZM32.68,10.934h2.756c1.125,0,3.779.817,3.779,3.268,0,5-6.639,5.616-6.639,5.616Z" transform="translate(0 -0.416)" fill="#1e1e21" fill-rule="evenodd"/>
</svg>
