<svg id="Volvo_New_Black" data-name="Volvo New Black" xmlns="http://www.w3.org/2000/svg" width="123.438" height="123.438" viewBox="0 0 123.438 123.438">
  <rect id="Rectangle_836" data-name="Rectangle 836" width="123.438" height="123.438" transform="translate(0 0)" fill="none"/>
  <g id="Groupe_2229" data-name="Groupe 2229" transform="translate(20.482 20.591)">
    <g id="Groupe_2226" data-name="Groupe 2226" transform="translate(10.168 36.918)">
      <path id="Tracé_1812" data-name="Tracé 1812" d="M168.236,130.58h9.986v-3.316h-1.093a2.2,2.2,0,0,1-2.369,2.223h-1.531v-4.993h1.64V123.4H168.2v1.093h1.676v4.993H168.2v1.093Z" transform="translate(-141.122 -123.218)" fill="#1e1e21"/>
      <path id="Tracé_1813" data-name="Tracé 1813" d="M200.129,130.516h3.9l3.28-6.086h1.64V123.3h-4.956v1.13h1.421l-2.405,4.446L200.6,124.43h1.749V123.3h-7.216l-.036,1.13h1.676Z" transform="translate(-158.218 -123.154)" fill="#1e1e21"/>
      <path id="Tracé_1814" data-name="Tracé 1814" d="M101.116,123.3H93.9v1.13h1.64l3.389,6.086h3.863l3.316-6.086h1.64V123.3h-4.956v1.13h1.421l-2.405,4.446-2.442-4.446h1.749Z" transform="translate(-93.9 -123.154)" fill="#1e1e21"/>
      <path id="Tracé_1815" data-name="Tracé 1815" d="M134.6,126.654c0,2.114,1.713,3.827,5.139,3.827s5.1-1.676,5.1-3.827c0-2.077-1.786-3.754-5.139-3.754S134.6,124.576,134.6,126.654Zm6.888.036c-.036,1.312-.547,2.66-1.822,2.66-1.2-.036-1.749-1.385-1.749-2.7.036-1.385.692-2.588,1.822-2.588C140.9,124.066,141.524,125.305,141.488,126.69Z" transform="translate(-119.767 -122.9)" fill="#1e1e21"/>
      <path id="Tracé_1816" data-name="Tracé 1816" d="M235.8,126.654c0,2.114,1.713,3.827,5.139,3.827s5.1-1.676,5.1-3.827c0-2.077-1.786-3.754-5.139-3.754S235.8,124.576,235.8,126.654Zm5.175-2.624c1.13.036,1.749,1.239,1.713,2.624-.036,1.312-.547,2.66-1.822,2.66-1.239-.036-1.749-1.385-1.749-2.7C239.153,125.232,239.809,124.03,240.975,124.03Z" transform="translate(-184.085 -122.9)" fill="#1e1e21"/>
    </g>
    <g id="Groupe_2228" data-name="Groupe 2228">
      <g id="Groupe_2227" data-name="Groupe 2227">
        <path id="Tracé_1817" data-name="Tracé 1817" d="M141,39.385l-4.191,4.191a35.379,35.379,0,1,1-10.46-10.46l4.191-4.191A41.123,41.123,0,1,0,141,39.385Z" transform="translate(-66 -21.6)" fill="#1e1e21"/>
      </g>
      <path id="Tracé_1818" data-name="Tracé 1818" d="M235.7,26.1v1.166A44.013,44.013,0,0,1,242.734,32l-5.868,5.868a33.942,33.942,0,0,1,5.94,5.94l5.868-5.868a45.388,45.388,0,0,1,4.738,7h1.13V26.1Z" transform="translate(-173.854 -24.46)" fill="#1e1e21"/>
    </g>
  </g>
</svg>
